<svg width="182" height="26" viewBox="0 0 182 26" fill="none" xmlns="http://www.w3.org/2000/svg">
<path d="M18.9263 23.14L17.8661 20.4716C18.3962 20.1158 18.7496 19.76 19.2796 19.4042C19.633 19.0484 19.9864 18.5147 20.3398 18.1589L22.9901 19.2263C23.5202 19.4042 23.8736 19.2263 24.227 18.6926L24.9337 17.0916C25.1104 16.5579 24.9337 16.2021 24.4037 15.8463L21.5766 14.7789C21.7533 13.6593 21.7533 12.5186 21.5766 11.399L24.227 10.3316C24.3463 10.2894 24.4557 10.2226 24.5481 10.1356C24.6404 10.0486 24.7139 9.94326 24.7637 9.82619C24.8136 9.70913 24.8387 9.58291 24.8375 9.45555C24.8364 9.32819 24.809 9.20246 24.7571 9.08632L24.0503 7.48528C24.0083 7.36511 23.9421 7.25504 23.8557 7.16201C23.7693 7.06899 23.6646 6.99505 23.5483 6.94488C23.432 6.89471 23.3067 6.8694 23.1802 6.87055C23.0537 6.87171 22.9288 6.8993 22.8135 6.95159L20.1631 8.01896C19.9182 7.52146 19.5538 7.09342 19.103 6.7737C18.7496 6.41791 18.2195 6.06212 17.8661 5.70633L18.9263 3.03792C19.103 2.50423 18.9263 2.14844 18.3962 1.79266L16.806 1.08108C16.2759 0.903183 15.9225 1.08108 15.5691 1.61476L14.6857 4.28318C13.5736 4.10528 12.4406 4.10528 11.3286 4.28318L10.2684 1.61476C10.2265 1.4946 10.1602 1.38452 10.0738 1.2915C9.98739 1.19848 9.88274 1.12454 9.76646 1.07436C9.65019 1.02419 9.52483 0.998882 9.39833 1.00004C9.27183 1.00119 9.14695 1.02879 9.0316 1.08108L7.44139 1.79266C7.22583 1.9089 7.05595 2.09548 6.95962 2.32177C6.8633 2.54806 6.84626 2.80059 6.91131 3.03792L7.97146 5.70633C7.47733 5.95287 7.05219 6.31976 6.73462 6.7737C6.33842 7.14979 5.98304 7.56722 5.67448 8.01896L3.02412 6.7737C2.49405 6.5958 2.14067 6.7737 1.78729 7.30738L1.25722 8.90843C1.16403 9.12512 1.14831 9.36763 1.21274 9.59468C1.27718 9.82173 1.41777 10.0193 1.6106 10.1537L4.26096 11.2211C4.08426 12.3407 4.08426 13.4814 4.26096 14.601L1.6106 15.6684C1.49125 15.7106 1.38192 15.7774 1.28953 15.8644C1.19713 15.9514 1.12369 16.0567 1.07386 16.1738C1.02403 16.2909 0.99889 16.4171 1.00004 16.5444C1.00119 16.6718 1.02859 16.7975 1.08053 16.9137L1.78729 18.5147C1.82924 18.6349 1.89551 18.745 1.98192 18.838C2.06833 18.931 2.17299 19.005 2.28926 19.0551C2.40554 19.1053 2.5309 19.1306 2.65739 19.1294C2.78389 19.1283 2.90877 19.1007 3.02412 19.0484L5.67448 17.981C5.91935 18.4785 6.28376 18.9066 6.73462 19.2263C7.088 19.5821 7.61808 19.9379 7.97146 20.2937L6.91131 22.9621C6.73462 23.4958 6.91131 23.8516 7.44139 24.2073L9.0316 24.9189C9.56167 25.0968 9.91505 24.9189 10.2684 24.3852L11.1519 21.7168C12.2639 21.8947 13.3969 21.8947 14.509 21.7168L15.5691 24.3852C15.6111 24.5054 15.6774 24.6155 15.7638 24.7085C15.8502 24.8015 15.9548 24.8755 16.0711 24.9256C16.1874 24.9758 16.3128 25.0011 16.4393 25C16.5657 24.9988 16.6906 24.9712 16.806 24.9189L18.3962 24.2073C18.7496 24.0295 19.103 23.4958 18.9263 23.14ZM10.0917 15.8463C9.71123 15.4746 9.40794 15.0304 9.19951 14.5396C8.99109 14.0488 8.88169 13.5212 8.87768 12.9874C8.87368 12.4536 8.97514 11.9244 9.17618 11.4305C9.37722 10.9365 9.67381 10.4878 10.0487 10.1104C10.4236 9.73291 10.8693 9.4343 11.3599 9.23189C11.8505 9.02948 12.3761 8.92732 12.9063 8.93136C13.4364 8.93539 13.9605 9.04553 14.448 9.25538C14.9355 9.46523 15.3767 9.77059 15.7458 10.1537C16.477 10.9124 16.8824 11.9303 16.8745 12.9874C16.8665 14.0445 16.4459 15.0561 15.7034 15.8036C14.961 16.5512 13.9563 16.9746 12.9063 16.9826C11.8563 16.9906 10.8453 16.5825 10.0917 15.8463Z" fill="context-fill"/>
<path d="M45.7791 9.08483L50.1579 4.87446C50.6916 5.85797 50.9804 6.95556 51 8.07434C50.9926 8.97112 50.8076 9.85756 50.4559 10.6825C50.1042 11.5075 49.5926 12.2546 48.9507 12.8809C48.3088 13.5072 47.5492 14.0002 46.7158 14.3314C45.8824 14.6627 44.9917 14.8256 44.095 14.8109C43.2809 14.8231 42.4748 14.6504 41.7372 14.3057L31.6323 24.2422C31.1051 24.7296 30.4135 25.0003 29.6955 25.0003C28.9775 25.0003 28.2859 24.7296 27.7587 24.2422C27.271 23.7152 27 23.0235 27 22.3054C27 21.5873 27.271 20.8956 27.7587 20.3686L37.6952 10.4321C37.3504 9.57615 37.1787 8.66028 37.19 7.73751C37.1974 6.84072 37.3823 5.95429 37.7341 5.12933C38.0858 4.30436 38.5974 3.5572 39.2393 2.93094C39.8812 2.30467 40.6408 1.81169 41.4742 1.48044C42.3076 1.14919 43.1983 0.98621 44.095 1.00091C45.2138 1.02052 46.3114 1.30936 47.2949 1.84299L43.0845 6.05336C42.8961 6.24112 42.7466 6.46422 42.6446 6.70987C42.5426 6.95552 42.4901 7.2189 42.4901 7.48489C42.4901 7.75087 42.5426 8.01425 42.6446 8.2599C42.7466 8.50555 42.8961 8.72866 43.0845 8.91641C44.095 10.2637 45.4423 9.25324 45.7791 9.08483ZM29.6113 21.0423C29.3115 21.0423 29.0185 21.1312 28.7692 21.2977C28.52 21.4643 28.3257 21.701 28.211 21.978C28.0962 22.2549 28.0662 22.5597 28.1247 22.8537C28.1832 23.1477 28.3275 23.4178 28.5395 23.6298C28.7515 23.8418 29.0216 23.9861 29.3156 24.0446C29.6096 24.1031 29.9144 24.0731 30.1914 23.9584C30.4683 23.8436 30.705 23.6494 30.8716 23.4001C31.0381 23.1508 31.127 22.8578 31.127 22.558C31.127 22.156 30.9674 21.7705 30.6831 21.4862C30.3988 21.202 30.0133 21.0423 29.6113 21.0423Z" fill="context-fill"/>
<path fill-rule="evenodd" clip-rule="evenodd" d="M77 13C77 19.6274 71.6274 25 65 25C58.3726 25 53 19.6274 53 13C53 6.37258 58.3726 1 65 1C71.6274 1 77 6.37258 77 13ZM62.0916 4.20088C62.1194 4.1893 62.1522 4.18765 62.1816 4.1893C62.1649 4.19024 62.1504 4.19701 62.1355 4.20391C62.1241 4.20919 62.1126 4.21456 62.0998 4.21743C62.0916 4.21908 62.0802 4.21908 62.0703 4.21908C62.0769 4.21081 62.0851 4.20419 62.0916 4.20088ZM62.0703 4.21908C62.0465 4.21641 62.0206 4.20724 61.9985 4.19945C61.9933 4.19761 61.9883 4.19585 61.9836 4.19426C61.9514 4.18289 61.9349 4.16527 61.9194 4.14855C61.9009 4.12879 61.8837 4.1103 61.8429 4.10492C61.7511 4.09129 61.8033 4.03027 61.8512 3.97429C61.8963 3.92155 61.9376 3.87328 61.8511 3.87328C61.8235 3.87248 61.7974 3.85208 61.773 3.83301C61.7468 3.81252 61.7226 3.79356 61.7005 3.80213C61.6913 3.80576 61.6842 3.81051 61.6776 3.81488C61.6632 3.82448 61.6516 3.83222 61.6269 3.82199C61.6221 3.82005 61.6171 3.81767 61.612 3.81522C61.5908 3.80511 61.5671 3.79378 61.5434 3.8071C61.5077 3.82937 61.4878 3.82406 61.4663 3.81831C61.4495 3.8138 61.4317 3.80903 61.4044 3.81702C61.3858 3.82309 61.3702 3.83361 61.3551 3.84385C61.329 3.86152 61.3042 3.87835 61.2669 3.86997C61.2916 3.83664 61.3187 3.80564 61.3456 3.77478C61.3828 3.73209 61.4198 3.68965 61.4502 3.64164C61.4845 3.58539 61.5271 3.5341 61.5844 3.49935C61.593 3.49426 61.6062 3.48918 61.6208 3.48355C61.6583 3.46904 61.7052 3.45093 61.7087 3.41993C61.7169 3.34878 61.6727 3.3554 61.6236 3.38353C61.496 3.45964 61.3634 3.54071 61.2391 3.62179C61.2355 3.62408 61.2319 3.62637 61.2284 3.62863C61.1581 3.67361 61.1004 3.7105 61.0116 3.6979C60.9731 3.6917 60.9468 3.71154 60.9218 3.73033C60.9002 3.74666 60.8795 3.76219 60.8529 3.75911C60.8312 3.67267 60.4533 3.89814 60.2522 4.01809C60.1954 4.05196 60.1528 4.07741 60.1362 4.08506C60.0944 4.1036 60.0507 4.12681 60.0062 4.15049C59.9236 4.19444 59.8379 4.24002 59.7549 4.26045C59.7401 4.26419 59.7207 4.27668 59.7007 4.28959C59.6498 4.3223 59.5948 4.35773 59.5995 4.26045C59.5499 4.25418 59.5097 4.2906 59.474 4.32302C59.4625 4.33342 59.4515 4.34341 59.4407 4.35145C59.4024 4.38106 59.3596 4.40375 59.3167 4.4265C59.2902 4.44061 59.2635 4.45474 59.2378 4.47057C59.1195 4.54672 59.0067 4.63517 58.8957 4.72213C58.8717 4.74097 58.8478 4.75975 58.8238 4.77832C58.7802 4.81226 58.7366 4.84813 58.6927 4.88422C58.6082 4.95369 58.5227 5.02396 58.4344 5.08276C58.4257 5.08875 58.4125 5.09671 58.3969 5.10613C58.3307 5.14618 58.221 5.21252 58.2249 5.26476C58.2752 5.27451 58.3765 5.18994 58.4854 5.09892C58.6354 4.97362 58.8 4.8361 58.8664 4.91565C58.8912 4.94493 58.751 5.02241 58.6867 5.05792C58.6747 5.06455 58.6654 5.06971 58.6602 5.07283C58.6463 5.08028 58.6312 5.08359 58.616 5.0869C58.6009 5.09021 58.5858 5.09352 58.5719 5.10096C58.5527 5.11239 58.5373 5.12802 58.5219 5.14363C58.5083 5.15741 58.4947 5.17118 58.4786 5.18203C58.3869 5.23994 58.31 5.3144 58.2429 5.39713C58.2226 5.42342 58.2046 5.45307 58.1866 5.4828C58.1627 5.52229 58.1386 5.56193 58.1088 5.59402C58.1136 5.55856 58.1115 5.52896 58.1094 5.4986C58.108 5.47796 58.1065 5.45696 58.1071 5.43353C58.0869 5.44652 58.0702 5.46223 58.0542 5.47728C58.0173 5.51207 57.9841 5.54335 57.919 5.52949C57.8524 5.51396 57.7968 5.56324 57.7468 5.60761C57.7329 5.61995 57.7194 5.63192 57.7062 5.642C57.598 5.72471 57.5169 5.81426 57.4316 5.90841C57.406 5.93668 57.38 5.96538 57.3528 5.99442C57.3343 6.01453 57.3154 6.03292 57.2969 6.05093C57.2499 6.09666 57.2054 6.13999 57.1761 6.2029C57.1418 6.27605 57.0967 6.34324 57.0514 6.41063C57.0384 6.43011 57.0253 6.44961 57.0124 6.46928C56.9592 6.54712 56.9022 6.62185 56.8453 6.69648C56.7848 6.77573 56.7244 6.85487 56.6688 6.93752C56.521 7.15772 56.407 7.39938 56.2933 7.64023C56.237 7.75952 56.1808 7.8786 56.1206 7.99478C56.0273 8.17678 55.9373 8.35548 55.8997 8.55899C55.867 8.73437 55.8653 8.91306 55.8686 9.09175C55.9684 9.01399 55.9635 9.17614 55.9373 9.22412C55.8997 9.29857 55.885 9.38296 55.8735 9.46568C55.8712 9.48088 55.8688 9.49607 55.8665 9.51127C55.852 9.60365 55.8375 9.6962 55.8375 9.78998C55.8375 9.83804 55.8296 9.88431 55.8217 9.9302C55.8145 9.97277 55.8072 10.015 55.8064 10.058C55.7911 10.0462 55.7973 10.0174 55.803 9.99043C55.8101 9.95691 55.8165 9.9264 55.7803 9.93558C55.7549 9.94198 55.7482 9.97212 55.7427 9.99694C55.7411 10.0042 55.7396 10.011 55.7377 10.0167C55.7253 10.0574 55.6927 10.077 55.6599 10.0967C55.6235 10.1186 55.5868 10.1407 55.5773 10.192C55.5675 10.2516 55.561 10.2863 55.5217 10.3343C55.5004 10.3593 55.5075 10.3749 55.5162 10.394C55.5202 10.4027 55.5246 10.4122 55.5266 10.4237C55.5338 10.4653 55.5113 10.5148 55.4897 10.5625C55.4666 10.6134 55.4443 10.6625 55.4595 10.6983C55.473 10.7311 55.4753 10.7657 55.4777 10.8001C55.4802 10.8369 55.4827 10.8734 55.4988 10.9068C55.5026 10.9144 55.5074 10.9225 55.5125 10.931C55.5297 10.9596 55.5494 10.9924 55.5381 11.0243C55.4877 11.0338 55.5195 11.1195 55.5441 11.1857C55.5538 11.212 55.5624 11.2352 55.5643 11.2493C55.5741 11.3304 55.6461 11.5852 55.7246 11.6216L55.7311 11.6315C55.8287 11.7812 55.9608 11.9839 56.1304 12.0584C56.2185 12.0964 56.2662 12.0252 56.3114 11.9576C56.3292 11.931 56.3467 11.905 56.3661 11.8863C56.4528 11.8003 56.5657 11.7457 56.6802 11.706C56.6888 11.7029 56.6997 11.6992 56.7124 11.6948C56.8436 11.6503 57.1637 11.5414 56.9862 11.4148C56.9419 11.3826 56.8809 11.3576 56.8181 11.3318C56.6676 11.2701 56.5062 11.204 56.5362 11.0243C56.5624 10.8687 56.7228 10.748 56.8521 10.6719C57.0222 10.5726 57.2121 10.5693 57.4035 10.5858C57.4144 10.587 57.4276 10.5874 57.4417 10.5879C57.4871 10.5894 57.5419 10.5912 57.5606 10.6189C57.5737 10.6371 57.5999 10.6487 57.6211 10.6553C57.6525 10.6645 57.6846 10.6687 57.7168 10.6729C57.7367 10.6754 57.7566 10.678 57.7766 10.6818C57.8017 10.6865 57.8245 10.6967 57.8464 10.7065C57.8931 10.7274 57.9359 10.7465 57.9893 10.7083C57.9922 10.7063 57.9949 10.7043 57.9976 10.7024C58.0803 10.6446 58.0975 10.6326 58.2037 10.6454C58.2558 10.6515 58.2969 10.6334 58.3362 10.616C58.3709 10.6007 58.4042 10.586 58.4426 10.5891C58.4688 10.5908 58.4917 10.5957 58.5113 10.604C58.5195 10.5759 58.5309 10.5511 58.5489 10.5461C58.5723 10.5395 58.6118 10.5691 58.6493 10.5973C58.6773 10.6183 58.7042 10.6385 58.7224 10.6421C58.8189 10.6628 58.8239 10.6041 58.8298 10.5359C58.8305 10.5278 58.8312 10.5196 58.832 10.5114C58.8552 10.5071 58.8733 10.5184 58.8903 10.529C58.9128 10.5431 58.9333 10.556 58.9613 10.5296C58.9604 10.5377 58.9629 10.5483 58.9654 10.5587C58.9675 10.5673 58.9695 10.5758 58.9695 10.5825C58.9793 10.5891 58.9908 10.5891 59.0006 10.5809C59.0055 10.5726 59.0071 10.5643 59.0038 10.5544C59.03 10.5627 59.0431 10.5445 59.0464 10.513C59.0555 10.5138 59.0672 10.5117 59.0789 10.5096C59.0925 10.5071 59.1063 10.5046 59.1168 10.5064C59.1191 10.4975 59.1219 10.4881 59.1248 10.4784C59.14 10.4271 59.1577 10.3676 59.1233 10.3244C59.1276 10.3237 59.1322 10.3226 59.137 10.3216C59.1431 10.3202 59.1496 10.3187 59.156 10.3178C59.156 10.2875 59.1669 10.2664 59.1772 10.2463C59.1861 10.2291 59.1945 10.2127 59.1953 10.192C59.1433 10.1847 59.0861 10.1865 59.0318 10.1881C59.0246 10.1883 59.0175 10.1885 59.0104 10.1887C59.0148 10.1847 59.0199 10.1801 59.0256 10.175C59.0664 10.1383 59.1341 10.0774 59.1413 10.0382C59.1494 9.99871 59.1281 9.96702 59.1055 9.93355C59.0827 9.89964 59.0586 9.86391 59.0628 9.81645C59.0726 9.86609 59.1282 9.98025 59.1806 9.9968C59.2727 10.0279 59.2718 9.96274 59.2709 9.9036C59.2707 9.88714 59.2704 9.87114 59.2722 9.85781C59.3017 9.66423 59.4751 9.82472 59.4784 9.92565C59.5291 9.80983 59.6551 9.93889 59.5978 10.0382C59.5882 10.0549 59.5773 10.0636 59.5687 10.0704C59.5525 10.0833 59.5443 10.0898 59.5667 10.1308C59.5913 10.1755 59.6273 10.1771 59.6797 10.1656C59.6927 10.1391 59.7042 10.1093 59.7042 10.0779C59.7942 10.0497 59.8531 10.1573 59.8007 10.2218C59.8678 10.1854 59.9366 10.1507 60.0086 10.1325C60.0072 10.1276 60.0058 10.1227 60.0043 10.1178C59.9632 9.97395 59.9227 9.83272 59.9496 9.67912C59.9503 9.67576 59.9509 9.67235 59.9515 9.66891C59.9573 9.63681 59.9636 9.6021 59.9873 9.57819C60.0071 9.55717 59.9999 9.55371 59.9905 9.54913C59.9843 9.54614 59.9771 9.54267 59.9758 9.53352C59.9692 9.4869 60.0002 9.43953 60.0297 9.39442C60.0442 9.37229 60.0583 9.3507 60.0675 9.33001C59.9906 9.31346 60.0609 9.16124 60.1116 9.13477C60.1369 9.12202 60.1843 9.12457 60.2296 9.12701C60.2843 9.12994 60.3361 9.13272 60.3424 9.1083C60.3498 9.11244 60.3572 9.11701 60.3646 9.12159C60.3897 9.13717 60.4151 9.15297 60.4455 9.15297C60.5355 9.15463 60.596 9.15628 60.6582 9.22908C60.665 9.23741 60.6725 9.24795 60.6807 9.25942C60.7098 9.30034 60.7473 9.35297 60.7907 9.35814C60.7902 9.38011 60.7986 9.40006 60.8066 9.41898C60.8214 9.4542 60.8348 9.48584 60.7858 9.52028C60.7651 9.53483 60.7416 9.54303 60.7187 9.55101C60.6765 9.56571 60.6365 9.57965 60.6205 9.63114C60.6161 9.6445 60.6095 9.65595 60.6035 9.66622C60.5873 9.69409 60.5761 9.71329 60.6287 9.73869C60.6598 9.75523 60.6991 9.75854 60.7335 9.75854C60.7416 9.80652 60.7662 9.87105 60.8284 9.86278C60.898 9.85421 60.9363 9.80019 60.9746 9.74608C61.0029 9.70614 61.0312 9.66616 61.0722 9.64438C61.1527 9.60199 61.1855 9.67514 61.2166 9.74455C61.2462 9.8106 61.2743 9.87325 61.3405 9.82969C61.3612 9.81614 61.3688 9.77501 61.3757 9.73774C61.3798 9.71585 61.3836 9.69529 61.3896 9.68243C61.4224 9.60963 61.46 9.53517 61.5074 9.47065C61.5132 9.46283 61.519 9.45498 61.5249 9.44709C61.5813 9.37147 61.6408 9.29172 61.6171 9.19434C61.6076 9.15617 61.5572 9.13227 61.5085 9.10915C61.4811 9.09618 61.4543 9.08345 61.4354 9.06859C61.3733 9.0173 61.3127 8.9627 61.2751 8.89155C61.2729 8.88749 61.2708 8.88367 61.2689 8.88008C61.2501 8.84566 61.2425 8.83161 61.2751 8.81213C61.2964 8.80055 61.2898 8.77739 61.2816 8.76084C61.2762 8.74937 61.2695 8.73666 61.2623 8.72314C61.2178 8.63913 61.1566 8.52375 61.2849 8.47957C61.3176 8.46798 61.3864 8.36209 61.3913 8.32073C61.3948 8.29098 61.3776 8.26245 61.3605 8.23408C61.3377 8.19619 61.315 8.15862 61.3422 8.11887C61.3605 8.09154 61.3937 8.06938 61.4274 8.04688C61.4569 8.02715 61.4868 8.00716 61.5074 7.9832C61.5287 7.95838 61.5533 7.93687 61.586 7.93025C61.5876 7.90213 61.5942 7.87069 61.6187 7.85249C61.6423 7.83463 61.674 7.83284 61.7056 7.83105C61.7267 7.82986 61.7476 7.82867 61.766 7.82271C61.8123 7.80847 61.8425 7.77358 61.8726 7.73883C61.8914 7.71705 61.9102 7.69533 61.9329 7.67876C61.9603 7.65847 61.9897 7.6536 62.0194 7.64868C62.043 7.64478 62.0668 7.64084 62.09 7.62912C62.1039 7.62251 62.1137 7.61175 62.1235 7.601C62.1333 7.59024 62.1432 7.57949 62.1571 7.57287C62.2258 7.53978 62.3043 7.59272 62.3354 7.65063C62.3411 7.66128 62.3468 7.67237 62.3527 7.68375C62.4238 7.82097 62.5167 8.0004 62.7102 7.94845C62.7952 7.92529 62.8591 7.8558 62.8852 7.77638C62.9002 7.73007 62.8951 7.68865 62.89 7.64655C62.8867 7.61946 62.8833 7.59209 62.8852 7.56294C62.8886 7.49471 62.9246 7.43922 62.9607 7.38357C62.9946 7.33127 63.0287 7.27881 63.0358 7.21549C62.9724 7.21655 62.9711 7.19144 62.9693 7.15838C62.9683 7.1402 62.9672 7.11962 62.9556 7.09967C62.9318 7.05801 62.8878 7.06429 62.8451 7.07038C62.8234 7.07349 62.802 7.07654 62.7838 7.07319C62.8394 6.93917 62.8394 6.89285 62.7085 6.82832C62.6836 6.81609 62.6516 6.78417 62.6198 6.75239C62.5783 6.71106 62.5371 6.66998 62.5122 6.67279C62.5457 6.62654 62.6219 6.6952 62.6533 6.72353C62.6556 6.72561 62.6576 6.72746 62.6594 6.72904C62.7167 6.78365 62.7674 6.80846 62.8476 6.81508C62.8247 6.78034 62.8132 6.71746 62.828 6.67775C62.836 6.65797 62.829 6.63769 62.8215 6.61587C62.8152 6.59754 62.8085 6.57812 62.81 6.55697C62.8665 6.62946 62.8826 6.70825 62.8989 6.78828C62.909 6.83795 62.9192 6.8881 62.9392 6.93752C62.9499 6.9649 62.9688 6.9877 62.9879 7.01072C63.0068 7.03361 63.026 7.05673 63.0374 7.08477C63.0457 7.10478 63.0501 7.11903 63.0535 7.13013C63.0623 7.15852 63.0647 7.16636 63.1094 7.19728C63.1471 7.22376 63.1601 7.27009 63.1667 7.31145C63.1738 7.35656 63.1865 7.36165 63.2046 7.36883C63.2156 7.37324 63.2287 7.37845 63.2436 7.39418C63.251 7.40218 63.2621 7.40794 63.2734 7.4138C63.2972 7.42611 63.3217 7.43884 63.314 7.4736C63.3103 7.49008 63.3032 7.50521 63.2961 7.52037C63.2876 7.53867 63.279 7.55701 63.2763 7.57783C63.2616 7.68703 63.476 7.53812 63.4972 7.52323C63.5175 7.50788 63.5435 7.49802 63.5693 7.48823C63.6019 7.47585 63.6342 7.46359 63.6543 7.44051C63.6727 7.41952 63.6801 7.39382 63.6875 7.36838C63.6953 7.34167 63.7029 7.31525 63.723 7.2949C63.7551 7.26142 63.7865 7.2646 63.8207 7.26809C63.839 7.26994 63.8581 7.27188 63.8785 7.26843C63.9397 7.25958 63.9932 7.21526 64.04 7.17644C64.0457 7.1717 64.0513 7.16704 64.0569 7.16254C64.1355 7.0963 64.1933 7.02567 64.2536 6.95194C64.2762 6.92438 64.2991 6.89639 64.3236 6.86803C64.3141 6.87043 64.299 6.87799 64.2814 6.88677C64.2267 6.9142 64.1482 6.95351 64.142 6.88457C64.0912 6.88457 63.9734 6.8763 63.9554 6.82005C63.9436 6.78684 63.9444 6.75043 63.9452 6.71597C63.9454 6.7075 63.9456 6.69915 63.9456 6.69099C63.9446 6.66294 63.9229 6.65837 63.898 6.65313C63.8832 6.65001 63.8674 6.64666 63.854 6.63804C63.8205 6.61651 63.7948 6.58639 63.7692 6.55633C63.7396 6.52173 63.7102 6.48722 63.6691 6.46597C63.5463 6.40144 63.4727 6.29721 63.3991 6.18635C63.3863 6.16701 63.3638 6.14171 63.3389 6.11368C63.2808 6.04821 63.2094 5.9678 63.2174 5.91335C63.2203 5.89089 63.2301 5.8678 63.2399 5.84462C63.2524 5.81488 63.2651 5.785 63.2632 5.75617C63.2625 5.7351 63.2546 5.71849 63.2468 5.70181C63.2373 5.6818 63.2278 5.6617 63.2305 5.63373C63.2323 5.61207 63.2144 5.5845 63.1969 5.55763C63.1664 5.51061 63.1372 5.46572 63.2174 5.45834C63.2391 5.45652 63.2508 5.44106 63.2644 5.42312C63.2754 5.40859 63.2876 5.39243 63.3074 5.38058C63.3247 5.3701 63.3345 5.36003 63.3422 5.35203C63.3566 5.33729 63.3641 5.32957 63.3991 5.33922C63.4664 5.35978 63.518 5.30648 63.5653 5.25762C63.5788 5.24357 63.5921 5.22989 63.6052 5.21843C63.6669 5.16409 63.6312 5.14219 63.5919 5.1181C63.5665 5.10259 63.5397 5.08617 63.5365 5.0596C63.5325 5.02626 63.521 4.99732 63.5089 4.96708C63.4964 4.93578 63.4834 4.9031 63.4776 4.8627C63.4711 4.8048 63.4171 4.82796 63.386 4.84285C63.356 4.85682 63.3261 4.84622 63.2968 4.83583C63.2844 4.83145 63.2721 4.8271 63.26 4.82465C63.2454 4.82145 63.2318 4.81005 63.218 4.79845C63.196 4.78009 63.1735 4.76119 63.1454 4.77336C63.132 4.7798 63.1241 4.79 63.1165 4.79977C63.1046 4.81509 63.0936 4.82934 63.0636 4.8263C63.0448 4.82458 63.0296 4.81431 63.0143 4.80393C63.0002 4.79441 62.9859 4.7848 62.9687 4.78163C62.9414 4.77838 62.9393 4.78948 62.9369 4.80221C62.9344 4.81542 62.9316 4.83039 62.9 4.83292C62.8856 4.834 62.8608 4.82842 62.8338 4.82234C62.7779 4.80973 62.7124 4.79497 62.7102 4.83292C62.6836 4.78715 62.6665 4.81559 62.6467 4.84841C62.6337 4.87016 62.6194 4.89383 62.6005 4.8991C62.5765 4.90595 62.5517 4.90685 62.5269 4.90776C62.4977 4.90882 62.4685 4.90989 62.4402 4.92061C62.3256 4.96694 62.3633 5.08111 62.4729 5.09931C62.5215 5.10659 62.5087 5.12838 62.4923 5.15643C62.4788 5.17938 62.4629 5.20652 62.4762 5.23333C62.4802 5.24156 62.4839 5.2494 62.4873 5.25684C62.5061 5.29724 62.5194 5.32602 62.5678 5.34418C62.5734 5.34624 62.5791 5.34827 62.5847 5.3503C62.6742 5.38259 62.7622 5.4143 62.7314 5.52949C62.6889 5.68171 62.5825 5.82566 62.4336 5.89515C62.3437 5.93694 62.2949 5.88044 62.244 5.82145C62.2143 5.78702 62.1838 5.75173 62.144 5.73466C62.0788 5.70732 62.0059 5.71593 61.9372 5.72403L61.9313 5.72473C61.9254 5.73406 61.9513 5.74773 61.9804 5.76307C62.0081 5.77767 62.0387 5.79378 62.0474 5.80911C62.0663 5.84625 62.0445 5.85927 62.0213 5.8731C62.0042 5.8833 61.9864 5.89393 61.9836 5.915C61.9812 5.93059 61.9719 5.94454 61.963 5.95808C61.9482 5.98046 61.9342 6.00174 61.9525 6.02751C61.9214 5.98946 61.8609 6.04075 61.8396 6.06391C61.8085 6.097 61.8151 6.11851 61.8282 6.15988C61.8543 6.24426 61.7267 6.33195 61.6514 6.32202C61.6326 6.31909 61.614 6.31745 61.5956 6.31584C61.5518 6.31199 61.5092 6.30825 61.4665 6.28728C61.4321 6.27067 61.4198 6.26692 61.4146 6.25867C61.409 6.24966 61.412 6.23529 61.4044 6.19297C61.399 6.16516 61.3816 6.14309 61.3647 6.12168C61.3354 6.0845 61.3076 6.0493 61.3471 5.98946C61.3793 5.9388 61.3767 5.92859 61.3698 5.90113C61.3672 5.89092 61.364 5.87834 61.3618 5.8604C61.352 5.79091 61.3831 5.78098 61.4387 5.77106C61.4803 5.76311 61.5056 5.70998 61.5291 5.66085C61.5398 5.63838 61.5501 5.61674 61.5614 5.60064C61.5696 5.58906 61.6073 5.49309 61.5484 5.51791C61.5342 5.52434 61.5308 5.53572 61.5273 5.54711C61.5228 5.56206 61.5183 5.57702 61.4894 5.58078C61.4695 5.58445 61.4496 5.57847 61.4293 5.5724C61.4131 5.56752 61.3966 5.56258 61.3798 5.56258C61.3666 5.56258 61.3532 5.56466 61.3399 5.56672C61.3103 5.57131 61.2809 5.57587 61.2538 5.55762C61.2567 5.55425 61.2621 5.54891 61.2689 5.54218C61.3091 5.5027 61.398 5.41526 61.3029 5.39547C61.2823 5.39085 61.2791 5.40417 61.2757 5.41872C61.2717 5.43541 61.2673 5.45372 61.2358 5.44842C61.2288 5.48363 61.2001 5.49559 61.1709 5.50775C61.1521 5.51558 61.1331 5.52349 61.1196 5.53776C61.1259 5.51151 61.1533 5.488 61.1792 5.46579C61.2136 5.4362 61.2454 5.40893 61.2211 5.38058L61.2249 5.37724C61.3149 5.29909 61.3322 5.284 61.208 5.23994C61.01 5.17045 61.0247 4.96694 61.1605 4.8445C61.2849 4.73199 61.4894 4.5897 61.6105 4.77667C61.7263 4.95589 61.804 4.85799 61.8953 4.74291C61.906 4.72944 61.9168 4.71574 61.928 4.70221C61.9075 4.69374 61.9093 4.68688 61.9125 4.67432C61.9149 4.66479 61.9182 4.65199 61.9133 4.63272C61.7954 4.6807 61.6907 4.52848 61.7709 4.43748C61.8048 4.39982 61.8511 4.39522 61.8981 4.39056C61.9192 4.38847 61.9404 4.38636 61.9607 4.38123C62.018 4.36634 62.0703 4.31008 62.0949 4.25714C62.0458 4.27037 62.0523 4.24059 62.0703 4.21908ZM62.1162 5.52618C62.1669 5.52287 62.2569 5.56258 62.2193 5.61056C62.1914 5.64862 62.0605 5.65855 62.0311 5.62215C62.0319 5.62046 62.0327 5.61845 62.0336 5.61631C62.0362 5.61005 62.0393 5.60268 62.0442 5.59898L62.0147 5.61222C61.9705 5.65524 61.9067 5.67344 61.8462 5.66516C61.8468 5.65351 61.8449 5.63958 61.843 5.62524C61.8397 5.60088 61.8363 5.57532 61.8445 5.55762C61.8529 5.54064 61.8693 5.53066 61.8858 5.52061C61.8982 5.51303 61.9107 5.50542 61.9198 5.49475C61.9356 5.47599 61.9488 5.45343 61.9621 5.43077C61.9804 5.39945 61.9989 5.36791 62.0245 5.34584C62.0736 5.30447 62.1653 5.28958 62.1833 5.36569C62.1952 5.4098 62.1728 5.43812 62.1504 5.46647C62.1359 5.48491 62.1213 5.50336 62.1162 5.52618ZM62.383 3.69339C62.3301 3.67109 62.2789 3.64948 62.2814 3.58042C62.209 3.56743 62.1699 3.60926 62.1303 3.65172C62.1144 3.66872 62.0984 3.68583 62.0802 3.69955C61.9918 3.76408 62.0425 3.63999 62.0605 3.6102C62.0834 3.5705 62.1276 3.51259 62.1718 3.49769C62.2004 3.48738 62.2124 3.46613 62.2249 3.44397C62.2325 3.43059 62.2403 3.41688 62.252 3.40504L62.2405 3.41497C62.2045 3.38022 62.1882 3.30908 62.2045 3.26275C62.2201 3.21803 62.2668 3.21513 62.3091 3.2125C62.32 3.21182 62.3306 3.21116 62.3403 3.2098C62.3937 3.2036 62.4494 3.18249 62.506 3.16107C62.6002 3.12538 62.6967 3.08882 62.7887 3.1188C62.8701 3.1459 62.9357 3.12884 63.0044 3.11101C63.0531 3.09835 63.1034 3.0853 63.1618 3.08736C63.2124 3.08855 63.2689 3.08204 63.3229 3.07583C63.3439 3.0734 63.3646 3.07102 63.3843 3.06916C63.4182 3.06544 63.4487 3.05436 63.4792 3.04329C63.5166 3.02974 63.5538 3.01622 63.5971 3.01622C63.6527 3.01622 63.7787 3.02615 63.7345 3.10722C63.7116 3.15189 63.6838 3.22966 63.7721 3.22304C63.8341 3.21862 63.8854 3.16944 63.9362 3.12076C63.9805 3.07822 64.0245 3.03606 64.0749 3.02449C64.1485 3.00629 64.1109 3.08736 64.088 3.11384C64.0798 3.12211 63.993 3.25613 64.0634 3.228C64.0798 3.21973 64.0929 3.20815 64.1027 3.19326C64.123 3.16183 64.1566 3.1541 64.1926 3.14583C64.2002 3.14409 64.2079 3.14233 64.2156 3.14031C64.3007 3.11715 64.3809 3.09067 64.4627 3.05924C64.5874 3.01062 64.6503 3.04339 64.7389 3.08961C64.7618 3.10159 64.7865 3.11447 64.8145 3.12707C64.8271 3.1332 64.8615 3.13523 64.9024 3.13764C64.9938 3.14303 65.1173 3.15031 65.0992 3.2098C65.084 3.2589 64.9934 3.2854 64.9353 3.30241C64.9249 3.30546 64.9155 3.30821 64.9078 3.31073C64.7932 3.34721 64.8036 3.39434 64.8248 3.49146C64.8257 3.49565 64.8266 3.49993 64.8276 3.50431C64.8436 3.57315 64.8033 3.6488 64.7635 3.7233C64.7383 3.77057 64.7134 3.81738 64.7032 3.8617C64.6803 3.96593 64.5707 4.11154 64.4839 4.17606C64.4787 4.18005 64.4731 4.18428 64.4673 4.18871C64.372 4.26148 64.2071 4.38741 64.0945 4.3531C64.0241 4.33325 63.9521 4.31505 63.8801 4.29685C63.8421 4.28744 63.8075 4.26612 63.774 4.24542C63.7426 4.22605 63.7121 4.20722 63.6805 4.19923C63.7023 4.14464 63.7305 4.15517 63.7596 4.16601C63.7852 4.17554 63.8114 4.18531 63.8343 4.15124C63.8392 4.17275 63.8867 4.19261 63.9063 4.1711C63.9214 4.15704 63.9159 4.12473 63.9115 4.09826C63.9096 4.08734 63.908 4.07742 63.908 4.07017C63.9063 4.0073 64.0143 3.93119 64.0716 3.92457C64.0787 3.924 64.0859 3.92357 64.0933 3.92315C64.1285 3.92109 64.1659 3.91891 64.1943 3.89975C64.2192 3.88203 64.241 3.88482 64.2655 3.88795C64.2845 3.89038 64.3051 3.89301 64.3301 3.88652C64.371 3.87824 64.5281 3.7889 64.5069 3.7343C64.4931 3.73571 64.4808 3.73664 64.4693 3.7375C64.4139 3.74168 64.3803 3.7442 64.322 3.79221C64.3284 3.76773 64.3537 3.742 64.3787 3.71652C64.4113 3.68343 64.4434 3.65076 64.4332 3.62179C64.4043 3.62265 64.39 3.64358 64.3756 3.66467C64.3622 3.6842 64.3488 3.70385 64.3236 3.70782C64.2917 3.71302 64.2767 3.67711 64.2626 3.64353C64.2542 3.62363 64.2462 3.60455 64.2352 3.59531C64.1668 3.53873 64.1192 3.6172 64.0713 3.69601C64.031 3.76238 63.9905 3.82899 63.9374 3.81537C63.9154 3.80981 63.9056 3.79375 63.8959 3.77809C63.8826 3.75646 63.8698 3.73559 63.8261 3.74422C63.7329 3.76242 63.7083 3.82861 63.7018 3.91299C63.6995 3.94568 63.6601 3.98222 63.6233 4.01632C63.606 4.03226 63.5894 4.04767 63.5774 4.0619C63.5185 4.13304 63.4432 4.11815 63.3745 4.07017C63.3479 4.05227 63.335 4.0236 63.3222 3.99523C63.3067 3.9607 63.2913 3.92662 63.2518 3.91299C63.1831 3.88817 63.0947 3.90802 63.0325 3.94443C62.9948 3.96599 62.9665 3.99879 62.9386 4.03114C62.9109 4.06332 62.8835 4.09504 62.8476 4.11484C62.7972 4.13972 62.7218 4.13935 62.6576 4.13904C62.6364 4.13894 62.6164 4.13884 62.5989 4.13966C62.5945 4.13984 62.5885 4.14027 62.5812 4.14078C62.5207 4.14503 62.3752 4.15526 62.3927 4.07844C62.3956 4.06513 62.3996 4.05236 62.4036 4.04009C62.4177 3.99595 62.4298 3.95823 62.3747 3.92457L62.3725 3.92313C62.3358 3.89959 62.2675 3.85569 62.306 3.80544C62.3204 3.78717 62.3422 3.77729 62.3638 3.76754C62.391 3.75521 62.4177 3.74308 62.4287 3.71444C62.4142 3.70655 62.3985 3.69994 62.383 3.69339ZM57.1253 16.7044C57.1613 16.7325 57.1761 16.8169 57.1564 16.85C57.1319 16.8913 57.0811 16.9095 57.0599 16.8549C57.0042 16.8036 57.0386 16.6316 57.1253 16.7044ZM57.4898 11.8334C57.4961 11.8362 57.5035 11.8395 57.5115 11.8466C57.5244 11.8566 57.5229 11.8654 57.5211 11.8756C57.52 11.8822 57.5187 11.8894 57.5213 11.8979C57.5255 11.908 57.5344 11.9147 57.5443 11.9222C57.5537 11.9293 57.5641 11.937 57.572 11.9492C57.59 11.9723 57.5802 11.9922 57.5671 12.0187C57.5213 12.0882 57.4297 12.0518 57.3708 12.0187C57.3482 12.013 57.3195 11.9925 57.2984 11.9774C57.295 11.975 57.2919 11.9727 57.289 11.9707C57.2783 11.9632 57.2661 11.9562 57.2538 11.9492C57.2415 11.9421 57.2292 11.9351 57.2186 11.9277C57.1924 11.921 57.1548 11.9028 57.1613 11.878C57.163 11.8615 57.2055 11.8317 57.2202 11.8267L57.2628 11.8118C57.2782 11.8014 57.2839 11.7884 57.2897 11.7752C57.2932 11.7675 57.2966 11.7596 57.3021 11.7523C57.3233 11.7225 57.3397 11.7242 57.3675 11.7357C57.3698 11.7369 57.3721 11.7384 57.3746 11.7399C57.3828 11.7452 57.3922 11.7511 57.4035 11.7473C57.4151 11.7428 57.4145 11.7383 57.414 11.7343C57.4136 11.731 57.4132 11.7281 57.4199 11.7258C57.4721 11.678 57.469 11.7535 57.4673 11.7933C57.4684 11.8234 57.4769 11.8275 57.4898 11.8334ZM65.2694 13.1388C65.2939 13.1173 65.3496 13.0974 65.3807 13.0958C65.4154 13.1009 65.4297 13.1203 65.4447 13.1405C65.4538 13.1527 65.463 13.1652 65.4772 13.1752C65.5067 13.1984 65.5492 13.1884 65.5803 13.1587C65.5852 13.1532 65.5884 13.1482 65.591 13.1441C65.5981 13.133 65.601 13.1284 65.6212 13.1405C65.6356 13.1453 65.6466 13.1564 65.6569 13.1668C65.6641 13.1741 65.671 13.181 65.6785 13.1851C65.6987 13.1909 65.7214 13.1836 65.7451 13.176C65.7692 13.1683 65.7944 13.1603 65.8192 13.1653C65.8371 13.1691 65.8468 13.1773 65.8566 13.1854C65.8638 13.1914 65.8709 13.1975 65.8814 13.2017C65.9092 13.2166 65.9092 13.2166 65.937 13.2099C65.9567 13.1967 65.9779 13.1917 66.0057 13.2066C66.013 13.2113 66.0182 13.2174 66.0234 13.2235C66.031 13.2324 66.0386 13.2414 66.0532 13.2463C66.0775 13.2564 66.0973 13.2529 66.1191 13.249C66.1297 13.2472 66.1407 13.2452 66.153 13.2447C66.1695 13.2471 66.1832 13.2522 66.1954 13.2567C66.2245 13.2674 66.2448 13.2749 66.2725 13.2364C66.2759 13.2292 66.2791 13.222 66.2823 13.215C66.3012 13.1725 66.317 13.1371 66.369 13.1371C66.4165 13.1405 66.4525 13.162 66.4165 13.2C66.3936 13.2281 66.3772 13.2546 66.3805 13.2993C66.3903 13.334 66.4197 13.334 66.4459 13.3125C66.4557 13.3027 66.4633 13.2901 66.4709 13.2774C66.4864 13.2518 66.502 13.226 66.5359 13.2215C66.5603 13.2198 66.5834 13.2307 66.6067 13.2418C66.6272 13.2515 66.6479 13.2613 66.6701 13.2629C66.6777 13.2634 66.6852 13.2633 66.6926 13.2631C66.7076 13.2627 66.7225 13.2623 66.7388 13.2679C66.7576 13.2738 66.768 13.2814 66.779 13.2896C66.7833 13.2928 66.7878 13.296 66.7928 13.2993C66.8138 13.3079 66.8322 13.3087 66.8496 13.3095C66.8688 13.3104 66.8868 13.3112 66.9057 13.3225C66.9451 13.3516 66.971 13.3899 66.9962 13.4272C67.0139 13.4535 67.0314 13.4793 67.053 13.5011C67.0673 13.5148 67.085 13.5243 67.1023 13.5336C67.1228 13.5446 67.1428 13.5553 67.1561 13.5723C67.1606 13.58 67.164 13.5868 67.1672 13.5929C67.1721 13.6025 67.1763 13.6105 67.1823 13.6186C67.2003 13.6285 67.2183 13.6385 67.2314 13.6583C67.2494 13.6814 67.2445 13.7018 67.2387 13.726C67.2365 13.7349 67.2343 13.7442 67.233 13.7543C67.2269 13.7837 67.2393 13.8087 67.2544 13.8389C67.2554 13.841 67.2565 13.8431 67.2575 13.8453C67.2837 13.8834 67.3279 13.9992 67.2461 14.0041C67.2248 14.0108 67.1937 14.0108 67.1774 14.0074C67.1629 14.0074 67.1595 14.0082 67.1574 14.0069C67.1553 14.0055 67.1547 14.0018 67.1446 13.9926C67.1207 13.9751 67.0968 13.9565 67.0738 13.9387C67.0684 13.9345 67.0631 13.9304 67.0579 13.9264C67.0327 13.9039 67.0236 13.8758 67.0143 13.8467C67.0084 13.8286 67.0025 13.8101 66.9925 13.7923C66.9794 13.7688 66.9547 13.7584 66.9253 13.7459C66.9216 13.7443 66.9178 13.7427 66.9139 13.7411C66.9024 13.7314 66.8937 13.7273 66.8829 13.7223C66.8752 13.7188 66.8665 13.7148 66.855 13.708C66.8374 13.702 66.8207 13.7029 66.8018 13.7039C66.7943 13.7043 66.7865 13.7047 66.7781 13.7047C66.7306 13.703 66.6636 13.6451 66.6374 13.607C66.6357 13.6041 66.6343 13.6014 66.6329 13.5988C66.6216 13.5778 66.6159 13.5673 66.5883 13.5673C66.5765 13.5665 66.5644 13.5713 66.552 13.5762C66.5402 13.5808 66.5283 13.5855 66.5163 13.5855C66.4919 13.5855 66.4699 13.5802 66.4481 13.5748C66.4157 13.5669 66.3836 13.5591 66.3445 13.569C66.2988 13.5809 66.2593 13.5759 66.2129 13.57C66.2011 13.5686 66.1888 13.567 66.1759 13.5657C66.1088 13.569 66.0368 13.5574 65.9861 13.5111C65.9737 13.5013 65.9636 13.4897 65.9533 13.478C65.9393 13.462 65.9251 13.4457 65.9043 13.4333C65.8899 13.4304 65.8745 13.4291 65.8597 13.4278C65.841 13.4262 65.8231 13.4247 65.8094 13.4201C65.7937 13.416 65.777 13.4122 65.7598 13.4083C65.7142 13.3979 65.6658 13.3868 65.6278 13.3688C65.601 13.3573 65.5807 13.338 65.5599 13.3182C65.5477 13.3066 65.5353 13.2948 65.5214 13.2844C65.499 13.271 65.4711 13.261 65.4431 13.2509C65.4159 13.2411 65.3885 13.2313 65.3659 13.2182C65.3632 13.2174 65.3601 13.2166 65.3569 13.2157C65.3116 13.2032 65.2236 13.1789 65.2694 13.1388ZM67.2799 15.037C67.271 15.0433 67.2616 15.0499 67.2494 15.0515C67.2456 15.0527 67.2403 15.0521 67.2345 15.0513C67.2254 15.0501 67.2149 15.0487 67.2068 15.0548C67.1636 15.0626 67.1654 15.072 67.169 15.091C67.1708 15.1002 67.1729 15.1115 67.1708 15.1259C67.1701 15.1435 67.1607 15.1585 67.1516 15.173C67.1402 15.1913 67.1292 15.2089 67.1365 15.2302C67.1433 15.2605 67.1625 15.2965 67.1782 15.3258C67.1814 15.3317 67.1844 15.3374 67.1872 15.3427C67.2428 15.4817 67.053 15.3675 67.0121 15.3327C67.0062 15.3288 67.0002 15.3251 66.9945 15.3214C66.9588 15.2989 66.9277 15.2793 66.9221 15.2351C66.9119 15.2077 66.9103 15.181 66.9087 15.1535C66.908 15.1412 66.9072 15.1288 66.9057 15.116C66.9004 15.0505 66.9117 14.9864 66.9229 14.9223C66.9289 14.8877 66.935 14.853 66.9385 14.8182C66.9396 14.7794 66.9334 14.7481 66.9267 14.7149C66.924 14.7013 66.9212 14.6874 66.9188 14.6726C66.9156 14.6631 66.9109 14.6538 66.9064 14.6446C66.8925 14.6169 66.8795 14.5907 66.909 14.5683C66.9295 14.5241 66.9226 14.4984 66.9122 14.4593C66.9101 14.4516 66.9079 14.4433 66.9057 14.4343C66.891 14.3963 66.8845 14.3764 66.8796 14.335C66.8844 14.2746 66.86 14.2267 66.8344 14.1763C66.8172 14.1425 66.7994 14.1075 66.7896 14.067C66.7797 14.0223 66.801 13.9777 66.855 14.0025L66.8943 14.0207C66.8994 14.0287 66.9023 14.0364 66.9049 14.0434C66.9099 14.0565 66.9136 14.0665 66.9286 14.0687C66.9422 14.0748 66.9637 14.0682 66.9857 14.0614C67.0167 14.0518 67.0487 14.0419 67.0612 14.067C67.0644 14.076 67.0613 14.0821 67.058 14.0885C67.0547 14.095 67.0513 14.1016 67.0546 14.1117C67.0621 14.1299 67.0792 14.1383 67.0921 14.1447C67.0933 14.1453 67.0944 14.1459 67.0955 14.1464C67.1348 14.1646 67.1692 14.1812 67.179 14.2258C67.179 14.2298 67.1786 14.2335 67.1783 14.2371C67.1771 14.2486 67.176 14.2595 67.1872 14.2771C67.2022 14.2923 67.2172 14.2922 67.2322 14.292C67.2335 14.292 67.2349 14.292 67.2363 14.292C67.247 14.2935 67.2581 14.2943 67.2689 14.295C67.3058 14.2974 67.3405 14.2998 67.3557 14.3317C67.3757 14.3596 67.3598 14.3707 67.3422 14.3829C67.3296 14.3918 67.3162 14.4011 67.3148 14.4178C67.3124 14.4456 67.3319 14.4664 67.3503 14.4859C67.357 14.493 67.3635 14.5 67.3688 14.5071C67.3901 14.5319 67.4195 14.57 67.4277 14.6047C67.433 14.6296 67.426 14.6459 67.4187 14.663C67.4123 14.6778 67.4057 14.6933 67.4065 14.7156C67.4035 14.7355 67.4159 14.7515 67.4288 14.7681C67.4448 14.7887 67.4615 14.8102 67.4506 14.8413C67.4469 14.8533 67.441 14.8656 67.4351 14.8783C67.4203 14.9096 67.4046 14.9429 67.4163 14.977C67.4235 14.9903 67.4389 14.9996 67.454 15.0086C67.4763 15.0221 67.4977 15.035 67.4899 15.0597C67.4785 15.0862 67.4212 15.0829 67.3917 15.0779C67.3754 15.0779 67.359 15.0779 67.3426 15.063C67.3351 15.0562 67.333 15.0475 67.3312 15.0402C67.3287 15.0299 67.3268 15.0221 67.3115 15.025C67.2994 15.0232 67.29 15.0299 67.2799 15.037ZM65.3433 3.12374C65.321 3.12366 65.2985 3.12358 65.2759 3.12873C65.2759 3.12707 65.2755 3.12501 65.2751 3.12294C65.2747 3.12087 65.2743 3.1188 65.2743 3.11715C65.2399 3.10722 65.2007 3.07744 65.2138 3.03938C65.2563 3.02118 65.5165 2.98147 65.5247 3.04269C65.5291 3.07294 65.4625 3.09904 65.4323 3.11088C65.4295 3.112 65.427 3.11298 65.4248 3.11384C65.3985 3.12395 65.3711 3.12385 65.3433 3.12374ZM66.5239 14.1528C66.5217 14.1666 66.5196 14.1801 66.5261 14.1944C66.5285 14.2066 66.5411 14.2163 66.5532 14.2257C66.5657 14.2354 66.5777 14.2447 66.5768 14.2556C66.5768 14.2656 66.5196 14.2705 66.5097 14.2705C66.4977 14.2744 66.4854 14.2767 66.4733 14.279C66.4542 14.2827 66.4358 14.2862 66.4197 14.2953C66.4106 14.2999 66.4022 14.3056 66.3937 14.3114C66.3839 14.318 66.3739 14.3248 66.3625 14.3301C66.3064 14.3549 66.3204 14.303 66.333 14.2562C66.338 14.2374 66.3428 14.2195 66.3428 14.2076C66.3445 14.1956 66.3418 14.1769 66.3388 14.1561C66.3327 14.1141 66.3253 14.0632 66.3494 14.0389L66.3445 14.0141C66.3445 14.0082 66.3437 14.0025 66.343 13.9967C66.3411 13.9814 66.3391 13.9659 66.351 13.9479C66.354 13.9377 66.3671 13.93 66.3804 13.9221C66.3887 13.9172 66.3971 13.9122 66.4034 13.9065C66.4096 13.9036 66.4157 13.8991 66.4219 13.8945C66.4369 13.8835 66.4516 13.8726 66.4656 13.8867C66.477 13.8966 66.4819 13.9131 66.4819 13.9231C66.4966 13.938 66.513 13.9545 66.5228 13.9744C66.5277 13.9992 66.5277 14.0306 66.5163 14.0505C66.5131 14.0744 66.5162 14.0869 66.5201 14.1025C66.5222 14.1106 66.5244 14.1196 66.5261 14.1315C66.5261 14.1388 66.525 14.1458 66.5239 14.1528ZM65.2411 16.2531C65.1788 16.2781 65.099 16.31 65.0485 16.2858C64.9755 16.2501 65.0371 16.1694 65.0813 16.1115C65.0946 16.0941 65.1063 16.0788 65.1123 16.0674C65.1373 16.0179 65.1403 15.9646 65.1433 15.9111C65.1453 15.877 65.1472 15.8428 65.1548 15.8093C65.1348 15.8073 65.1248 15.7975 65.1144 15.7874C65.107 15.7802 65.0994 15.7727 65.0878 15.7679C65.0822 15.7651 65.0719 15.7644 65.062 15.7637C65.0544 15.7632 65.0469 15.7627 65.0419 15.7613C65.0345 15.7603 65.027 15.7572 65.0195 15.7541C65.0139 15.7518 65.0083 15.7495 65.0027 15.748C64.9978 15.7877 64.9339 15.8258 64.9356 15.7695C64.9236 15.7662 64.913 15.7629 64.9025 15.7596C64.8972 15.758 64.8919 15.7563 64.8865 15.7547C64.8881 15.7216 64.9487 15.6124 64.9896 15.614L64.9781 15.6041C64.9835 15.5992 64.9889 15.5942 64.9944 15.5892C65.0931 15.4986 65.2016 15.399 65.3365 15.3708C65.4019 15.3559 65.4821 15.3327 65.5279 15.2798C65.5587 15.2448 65.5494 15.2081 65.5397 15.1703C65.533 15.1438 65.5261 15.1168 65.5328 15.0895C65.5499 15.0175 65.6343 15.0655 65.6807 15.0919C65.6834 15.0934 65.6859 15.0948 65.6883 15.0961C65.7619 15.1375 65.8274 15.1656 65.9125 15.1342C65.9336 15.1258 65.9529 15.1162 65.9717 15.1068C66.0198 15.0827 66.0644 15.0604 66.1268 15.0664C66.2168 15.0736 66.237 15.1199 66.2646 15.1832C66.2686 15.1925 66.2728 15.2021 66.2774 15.212C66.3005 15.2615 66.3474 15.2856 66.3924 15.3087C66.4557 15.3412 66.5152 15.3717 66.4999 15.4684C66.3991 15.5237 66.4453 15.599 66.4905 15.6728C66.5062 15.6984 66.5217 15.7238 66.531 15.748C66.5456 15.787 66.5462 15.8293 66.5468 15.8712C66.5469 15.8809 66.5471 15.8906 66.5474 15.9003C66.5474 15.9089 66.5481 15.9189 66.5489 15.9296C66.5517 15.9659 66.555 16.0096 66.531 16.0326C66.5109 16.0517 66.4721 16.0571 66.4384 16.0616C66.4255 16.0634 66.4134 16.0651 66.4034 16.0674C66.3844 16.0725 66.3657 16.0793 66.347 16.0861C66.3172 16.097 66.2873 16.108 66.2561 16.112C66.2224 16.1171 66.1916 16.1118 66.162 16.1067C66.1137 16.0984 66.0685 16.0907 66.0188 16.1286C66.0072 16.1373 65.9967 16.1469 65.9862 16.1564C65.9688 16.1724 65.9514 16.1883 65.9288 16.1997C65.8975 16.215 65.8603 16.2224 65.8248 16.2295C65.814 16.2317 65.8033 16.2338 65.793 16.2361C65.7878 16.2374 65.7824 16.2387 65.7769 16.24C65.7381 16.2496 65.6945 16.2604 65.6572 16.2444C65.6389 16.2365 65.6258 16.222 65.6125 16.2075C65.6008 16.1947 65.5891 16.1818 65.5738 16.1733C65.5141 16.1388 65.43 16.1757 65.3586 16.2071C65.3339 16.218 65.3108 16.2281 65.2907 16.2345C65.2765 16.239 65.2596 16.2458 65.2411 16.2531ZM65.7653 3.59586C65.7519 3.58494 65.7377 3.57334 65.7243 3.55891C65.6556 3.48611 65.6081 3.38684 65.6163 3.28922C65.6188 3.25797 65.6099 3.22868 65.6012 3.20004C65.5873 3.15437 65.5739 3.11033 65.6081 3.06255C65.6948 2.94176 65.9959 2.94673 66.1383 2.99636C66.4574 3.01291 66.7716 3.04435 67.0825 3.13204C67.2688 3.18463 67.4437 3.25998 67.6183 3.3352C67.7733 3.40196 67.9281 3.46863 68.0904 3.5192C68.2541 3.56884 68.3015 3.65819 68.2475 3.81206C68.2021 3.94334 68.3176 3.98348 68.4217 4.01964L68.4243 4.02053C68.5175 4.05528 68.6239 4.11815 68.5797 4.23397C68.5426 4.33185 68.4053 4.35413 68.3136 4.36901L68.3097 4.36965C68.1935 4.38785 68.1019 4.41266 68.0364 4.51525L68.0312 4.52329C67.9504 4.64664 67.8899 4.73906 67.7714 4.83623C67.7473 4.85636 67.7342 4.89727 67.7214 4.9374C67.6983 5.0094 67.676 5.07891 67.593 5.02154C67.5861 5.01664 67.5803 5.01222 67.575 5.00828C67.5468 4.98694 67.537 4.97956 67.4817 4.98514C67.4375 4.99011 67.3917 5.03147 67.3819 5.06787C67.3735 5.06958 67.3646 5.08089 67.3554 5.0927C67.3378 5.1152 67.3188 5.13951 67.2985 5.10262C67.2805 5.11089 67.1823 5.14563 67.1643 5.13736C67.1501 5.13108 67.1373 5.10872 67.1244 5.08614C67.1136 5.06711 67.1026 5.04793 67.0906 5.03809C67.0562 5.01005 67.0701 4.9759 67.084 4.9417C67.0971 4.90929 67.1103 4.87684 67.0825 4.84947C67.0399 4.80645 66.9875 4.80149 66.9385 4.83127C66.8912 4.86213 66.8605 4.85645 66.8272 4.85027C66.8051 4.84619 66.7819 4.84188 66.7519 4.84781C66.6976 4.8579 66.6996 4.83382 66.7025 4.79924C66.7038 4.78277 66.7054 4.76391 66.7012 4.74523C66.6668 4.72869 66.6259 4.73199 66.5916 4.74192C66.5569 4.75193 66.5569 4.75909 66.5568 4.77057C66.5568 4.77428 66.5568 4.77844 66.5556 4.78329C66.5419 4.77083 66.4869 4.76532 66.4627 4.76288C66.4579 4.76241 66.4543 4.76205 66.4525 4.76178C66.4493 4.74731 66.4674 4.72815 66.4873 4.70696C66.5085 4.68454 66.5318 4.65985 66.5343 4.63603C66.5343 4.62279 66.5179 4.4987 66.513 4.49374C66.4508 4.44907 66.5474 4.42259 66.5834 4.45403C66.6047 4.47212 66.6242 4.4633 66.6454 4.45373C66.6649 4.44491 66.6859 4.43544 66.711 4.44576C66.7159 4.42094 66.6177 4.39116 66.5965 4.38785C66.5659 4.3833 66.5354 4.40071 66.5043 4.41843C66.4787 4.43298 66.4528 4.44774 66.4263 4.45072C66.4215 4.45113 66.4128 4.45323 66.4022 4.45579C66.37 4.46362 66.3204 4.47565 66.3117 4.45568C66.3034 4.43882 66.3128 4.41479 66.3198 4.39678C66.321 4.39359 66.3222 4.39059 66.3232 4.38785C66.2937 4.36303 66.261 4.34814 66.2217 4.34483C66.2025 4.34321 66.1831 4.34405 66.1639 4.3449C66.124 4.34663 66.0847 4.34835 66.0483 4.32828C66.0403 4.32369 66.0328 4.31928 66.0256 4.31505C65.9703 4.28263 65.9327 4.26057 65.8617 4.24886C65.8045 4.23894 65.7554 4.20585 65.7472 4.14794C65.7465 4.14414 65.7458 4.13988 65.7449 4.13521C65.7355 4.08286 65.717 3.98034 65.7276 3.93781C65.7626 3.93072 65.7667 3.94737 65.771 3.96487C65.7747 3.98004 65.7785 3.99583 65.8028 3.99737C65.8329 3.99921 65.8589 4.00516 65.8854 4.01121C65.9064 4.01603 65.9278 4.02091 65.9517 4.02384C65.9673 4.02553 65.9852 4.03025 66.004 4.03518C66.0406 4.04479 66.0802 4.0552 66.1105 4.04535C66.153 4.03228 66.1783 3.98861 66.1999 3.95128C66.2165 3.92248 66.231 3.89746 66.2496 3.89313C66.2479 3.87659 66.2381 3.86335 66.2234 3.85342C66.2577 3.84515 66.2921 3.83357 66.3199 3.81372C66.311 3.8089 66.2977 3.81087 66.2849 3.81278C66.2624 3.81612 66.2411 3.81928 66.2463 3.78559C66.2494 3.76737 66.2563 3.75029 66.2632 3.73326C66.2706 3.71471 66.2781 3.69623 66.2807 3.67639C66.2888 3.59862 66.1007 3.59697 66.0548 3.61517C66.0172 3.6284 65.9828 3.65488 65.9599 3.68797C65.9313 3.73009 65.9006 3.72404 65.8579 3.71564C65.8469 3.71348 65.8352 3.71117 65.8225 3.70948C65.8308 3.64929 65.801 3.62501 65.7653 3.59586ZM71.1537 18.8967L71.1553 18.8983C71.1547 18.8952 71.1541 18.8921 71.1534 18.889C71.1408 18.8259 71.1282 18.7635 71.2093 18.7477C71.2813 18.7345 71.3238 18.7759 71.3729 18.8239C71.4286 18.8801 71.3877 18.9479 71.3173 18.9678C71.2783 18.98 71.2524 18.9666 71.2257 18.9528C71.2054 18.9422 71.1845 18.9314 71.1569 18.9314C71.1563 18.9271 71.1564 18.9222 71.1565 18.9175C71.1566 18.9096 71.1567 18.9018 71.1537 18.8967ZM73.3753 16.6696C73.3766 16.675 73.3778 16.6805 73.3791 16.6862C73.3862 16.6829 73.3962 16.6817 73.4068 16.6804C73.423 16.6785 73.4409 16.6763 73.4527 16.6663C73.5279 16.8016 73.3711 17.075 73.288 17.22C73.2806 17.2328 73.2738 17.2447 73.2678 17.2553C73.2492 17.2878 73.2276 17.318 73.2061 17.3479C73.1728 17.3943 73.1398 17.4403 73.1189 17.4936C73.1049 17.5295 73.0984 17.5678 73.092 17.6056C73.0803 17.6739 73.069 17.7408 73.0142 17.7898C72.9888 17.8117 72.9653 17.8288 72.9426 17.8451C72.9037 17.8732 72.8675 17.8993 72.8293 17.9453C72.8187 17.9576 72.808 17.9676 72.7977 17.9772C72.7761 17.9975 72.7564 18.0159 72.7442 18.0495C72.7356 18.0741 72.7358 18.0975 72.736 18.1207C72.7362 18.1505 72.7364 18.18 72.718 18.2117C72.6773 18.281 72.6069 18.3153 72.5379 18.3489C72.5097 18.3626 72.4818 18.3762 72.4562 18.392C72.4164 18.418 72.3845 18.4513 72.3528 18.4844C72.3219 18.5166 72.2912 18.5487 72.2533 18.574C72.2317 18.5885 72.2046 18.6082 72.1739 18.6306C72.0329 18.7332 71.8158 18.8914 71.7002 18.852C71.6883 18.7707 71.8158 18.6868 71.887 18.6398C71.8941 18.6352 71.9006 18.6309 71.9064 18.627C71.939 18.605 71.9594 18.5793 71.9799 18.5534C71.9903 18.5404 72.0007 18.5272 72.0128 18.5145C72.0301 18.4974 72.0485 18.483 72.0667 18.4686C72.1051 18.4384 72.1427 18.4089 72.1682 18.3573C72.1901 18.313 72.1837 18.2532 72.1774 18.1948C72.1696 18.1224 72.162 18.0522 72.2091 18.0164C72.2461 17.9893 72.2721 17.9971 72.2999 18.0054C72.3212 18.0118 72.3436 18.0184 72.3727 18.0098C72.4104 17.9976 72.4342 17.9715 72.4543 17.9493C72.456 17.9474 72.4578 17.9455 72.4595 17.9436C72.5233 17.8493 72.4742 17.6772 72.3564 17.6524C72.3875 17.5565 72.5757 17.3943 72.6902 17.4324C72.6877 17.4427 72.6839 17.4538 72.68 17.4654C72.6681 17.5002 72.6546 17.5395 72.6706 17.578C72.7573 17.573 72.844 17.4506 72.8276 17.3678C72.8195 17.3314 72.7769 17.2785 72.7409 17.262C72.6855 17.24 72.6661 17.2574 72.6445 17.277C72.6336 17.2868 72.6221 17.2972 72.6051 17.3033C72.5567 17.3214 72.5053 17.3288 72.453 17.3364C72.3903 17.3455 72.3263 17.3548 72.2647 17.3827C72.2495 17.3893 72.2351 17.3957 72.2212 17.402C72.1366 17.4399 72.0717 17.4691 71.962 17.4506C71.9522 17.4357 71.9522 17.4208 71.962 17.4076C71.9753 17.4091 71.9919 17.4062 72.0087 17.4032C72.0271 17.4 72.0457 17.3967 72.0602 17.3993C72.0655 17.3488 72.1437 17.3143 72.203 17.2881C72.2175 17.2817 72.2309 17.2758 72.2418 17.2702C72.2554 17.2624 72.2764 17.2517 72.295 17.2422C72.3079 17.2356 72.3196 17.2296 72.3269 17.2256C72.3371 17.2189 72.3502 17.2084 72.3635 17.1977C72.3801 17.1843 72.3969 17.1708 72.4087 17.1643C72.4346 17.1481 72.4667 17.1208 72.5017 17.091C72.5777 17.0264 72.6677 16.9499 72.7393 16.9476C72.772 17.0369 72.8227 17.1031 72.9291 17.0866C72.9354 17.0853 72.9412 17.0844 72.9466 17.0835C72.9848 17.077 73.0025 17.0741 73.024 17.0088C73.0404 16.9608 73.0436 16.9145 73.0093 16.8731C73.1218 16.8788 73.1279 16.8285 73.1351 16.7693C73.1405 16.7252 73.1465 16.6761 73.1975 16.6415C73.2327 16.6705 73.2616 16.6609 73.2922 16.6506C73.3157 16.6427 73.3402 16.6345 73.3693 16.6432C73.3713 16.6524 73.3733 16.6609 73.3753 16.6696ZM75.0556 12.182C75.0399 12.2827 75.0217 12.3998 75.0498 12.4522C75.1076 12.5591 75.0921 12.6958 75.077 12.8287C75.0669 12.9178 75.057 13.0052 75.0694 13.0809C75.1218 13.3903 75.0694 13.8784 74.9402 14.1448C74.8878 14.5766 74.7962 15.0415 74.5933 15.4601C74.581 15.4856 74.5684 15.5126 74.5552 15.5407C74.4167 15.8356 74.2215 16.2515 73.8749 16.2907C73.8173 16.2966 73.7133 16.3811 73.62 16.457C73.5278 16.5319 73.4461 16.5983 73.4298 16.572C73.4159 16.5485 73.4028 16.5239 73.3897 16.4991C73.3379 16.4015 73.2848 16.3012 73.1713 16.2576C73.1101 16.2294 73.1119 16.2025 73.1137 16.1761C73.1153 16.153 73.1168 16.1302 73.0764 16.1071C73.0167 16.0745 73.0047 16.0033 72.9934 15.9364L72.9929 15.9333C72.9504 15.94 72.9078 15.9482 72.8702 15.9697C72.8271 15.9947 72.7934 16.0306 72.7598 16.0664C72.731 16.0972 72.7021 16.128 72.6673 16.1517C72.6182 16.1319 72.5347 16.0955 72.5413 16.0326C72.5271 16.0455 72.5127 16.0614 72.4982 16.0773C72.4457 16.1351 72.3916 16.1946 72.3417 16.122C72.3054 16.0693 72.3123 16.0024 72.3189 15.9382C72.3218 15.9096 72.3247 15.8816 72.3237 15.8556C72.3204 15.7729 72.2418 15.6488 72.1551 15.753C72.0946 15.8258 72.052 15.8357 71.9571 15.8539C71.9208 15.8616 71.8879 15.8762 71.8552 15.8907C71.8099 15.9108 71.7649 15.9307 71.7117 15.9317C71.5313 15.9358 71.5128 16.0036 71.481 16.1199C71.4744 16.1439 71.4673 16.17 71.458 16.1981C71.4304 16.2792 71.3554 16.3198 71.2798 16.3609C71.2211 16.3927 71.1621 16.4248 71.1242 16.476C71.1162 16.4867 71.1054 16.5043 71.0924 16.5254C71.031 16.625 70.9206 16.8039 70.8248 16.7193C70.7696 16.6703 70.8307 16.5745 70.8898 16.4817C70.9305 16.4177 70.9704 16.3552 70.9704 16.3106C70.9704 16.2581 70.9453 16.2182 70.9201 16.178C70.9015 16.1486 70.8829 16.1189 70.8739 16.0839C70.8693 16.0673 70.8675 16.0515 70.8659 16.0366C70.8616 15.9981 70.858 15.966 70.8084 15.9433C70.8493 15.8639 70.8968 15.7398 70.8559 15.6521C70.8035 15.5363 70.6137 15.6405 70.5679 15.71C70.5617 15.7186 70.5544 15.7301 70.5461 15.7431C70.492 15.8278 70.3949 15.9797 70.3028 15.8622C70.2931 15.8511 70.2896 15.8389 70.2866 15.828C70.2815 15.8096 70.2774 15.795 70.2455 15.796C70.2111 15.796 70.1866 15.8175 70.1702 15.844C70.0966 15.8208 70.1244 15.753 70.1522 15.7034C70.1854 15.6438 70.2065 15.5815 70.2275 15.5194C70.2573 15.4315 70.2869 15.3442 70.3502 15.2666C70.4028 15.2012 70.4686 15.1481 70.5342 15.095C70.6116 15.0325 70.6888 14.97 70.7446 14.8877C70.7806 14.8347 70.8428 14.7338 70.792 14.6726C70.7843 14.6634 70.7742 14.6563 70.7641 14.6492C70.7488 14.6384 70.7335 14.6277 70.7266 14.6097C70.7178 14.589 70.7201 14.5666 70.7223 14.5444C70.7238 14.5294 70.7253 14.5146 70.7233 14.5005C70.6857 14.5154 70.6431 14.5319 70.6006 14.5187C70.5986 14.5028 70.5982 14.4866 70.5978 14.4704C70.5972 14.4461 70.5967 14.4217 70.5908 14.3979C70.5739 14.4045 70.5567 14.4157 70.5389 14.4272C70.5034 14.4503 70.4659 14.4746 70.4255 14.4658C70.3959 14.4598 70.3833 14.4675 70.3693 14.4761C70.3562 14.4842 70.3418 14.493 70.311 14.4922C70.3361 14.453 70.3566 14.4113 70.3771 14.3696C70.4007 14.3215 70.4243 14.2734 70.455 14.2292C70.4677 14.2099 70.4824 14.1916 70.4971 14.1732C70.5203 14.1443 70.5437 14.1153 70.5597 14.0819C70.5944 14.0098 70.5699 13.9459 70.5452 13.8816C70.5257 13.8309 70.5061 13.78 70.5155 13.7245C70.5384 13.5822 70.6971 13.5475 70.8215 13.5607C70.869 13.5658 70.9187 13.5856 70.969 13.6056C71.0503 13.638 71.1331 13.671 71.2109 13.6434C71.3288 13.6037 71.3648 13.4399 71.3304 13.334C71.3139 13.2848 71.2779 13.2504 71.2423 13.2164C71.1931 13.1693 71.1447 13.1231 71.1504 13.0395C71.1523 13.0063 71.1601 12.9743 71.1678 12.9426C71.1797 12.8938 71.1914 12.8458 71.1815 12.7947C71.1745 12.7582 71.1613 12.7237 71.1481 12.6891C71.1367 12.6592 71.1253 12.6292 71.1177 12.5978C71.0931 12.4953 71.1434 12.4395 71.197 12.38C71.2291 12.3444 71.2623 12.3075 71.2813 12.2586C71.2865 12.2449 71.2911 12.2271 71.296 12.2081C71.3161 12.1304 71.3418 12.0307 71.4351 12.0931C71.4878 12.1286 71.5025 12.1879 71.5173 12.248C71.5315 12.3055 71.5459 12.3637 71.5938 12.4025C71.7084 12.4985 71.8638 12.4356 71.98 12.376C71.9989 12.3663 72.0198 12.3566 72.0415 12.3465C72.1305 12.305 72.2335 12.257 72.2729 12.1758C72.3002 12.1214 72.2966 12.0635 72.2931 12.0081C72.2878 11.9237 72.2828 11.8449 72.3875 11.792C72.3957 11.788 72.4054 11.7832 72.4162 11.7778C72.4995 11.7362 72.6489 11.6616 72.7213 11.6894C72.7694 11.7074 72.7975 11.7484 72.8256 11.7895C72.8414 11.8126 72.8573 11.8358 72.8767 11.8549C72.898 11.7837 72.9275 11.7175 72.9733 11.6613C72.9978 11.6308 73.0247 11.6025 73.0512 11.5746C73.1311 11.4907 73.2077 11.4103 73.204 11.2824C73.2319 11.148 73.2134 11.1073 73.1872 11.0497C73.1734 11.0193 73.1575 10.9842 73.1451 10.9283C73.1446 10.9239 73.1439 10.9178 73.1431 10.9105C73.1296 10.7943 73.0769 10.3406 73.1876 10.3608C73.4544 10.4071 73.2318 9.78005 73.1926 9.67747C73.1795 9.64107 73.1189 9.59308 73.0764 9.57323C73.0116 9.51331 72.9616 9.54275 72.9173 9.56885C72.8821 9.5896 72.8504 9.60824 72.8178 9.57819C72.7479 9.49203 72.7422 9.36388 72.737 9.24658C72.7355 9.21297 72.734 9.18025 72.7311 9.14966C72.7209 9.08358 72.6985 9.02532 72.6765 8.96794C72.6488 8.89602 72.6217 8.82547 72.6198 8.74264C72.6192 8.71599 72.5591 8.63269 72.4889 8.53527C72.3716 8.37262 72.2258 8.17061 72.2811 8.12715C72.304 8.11411 72.4455 8.11661 72.5943 8.11924C72.7854 8.12261 72.9886 8.1262 72.9684 8.09736C72.9296 8.04081 72.9099 7.98465 72.8913 7.9317C72.8566 7.83286 72.8259 7.74522 72.682 7.68703C72.6083 7.65669 72.5476 7.59999 72.4869 7.54337C72.4319 7.49194 72.3768 7.44057 72.3122 7.40907C72.2467 7.37763 71.9702 7.17412 72.2042 7.15923C72.358 7.1493 72.1731 6.91932 72.1044 6.89781C72.0698 6.88684 72.0507 6.92391 72.0344 6.95541C72.0115 6.9999 71.9942 7.03327 71.9473 6.90443C71.9293 6.86803 71.6004 6.45273 71.5922 6.49244C71.5866 6.52415 71.6039 6.56186 71.6218 6.60084C71.6403 6.64119 71.6594 6.68291 71.6544 6.72077C71.6323 6.90539 71.3916 6.61172 71.3508 6.56189C71.3462 6.55635 71.3441 6.55383 71.3451 6.55532C71.3268 6.53509 71.2896 6.50323 71.2474 6.46711C71.1654 6.39687 71.0646 6.31054 71.0473 6.26246C71.0509 6.27349 71.1031 6.18187 71.1305 6.13367C71.1401 6.11682 71.1467 6.10528 71.1471 6.10528C71.1995 6.03579 71.1455 5.95802 71.0849 5.89515C71.0579 5.86779 71.0243 5.8492 70.9918 5.83123C70.9339 5.7992 70.8796 5.76914 70.8722 5.69495C70.8719 5.69097 70.8674 5.68011 70.8613 5.66561C70.8398 5.61376 70.799 5.51532 70.8591 5.51791C70.8975 5.52089 70.9867 5.58247 71.0681 5.63866C71.1221 5.67595 71.1727 5.71087 71.2028 5.72473C71.3293 5.78306 71.355 5.82937 71.3845 5.88244C71.4027 5.91517 71.4223 5.95048 71.4678 5.99277C71.5115 6.02407 71.5618 6.05705 71.6149 6.09187C71.7666 6.19137 71.9413 6.3059 72.0504 6.4395C72.0733 6.48086 72.3727 6.78695 72.3842 6.67114C72.3875 6.63143 72.2795 6.32533 72.2353 6.31044C72.2353 6.31044 72.0389 6.0606 72.034 6.03909C72.0357 6.04737 71.7231 5.67344 71.8 5.68667C71.9195 5.70818 72.3466 6.02586 72.3204 6.1483C72.3101 6.19449 72.3578 6.23317 72.4052 6.27167C72.441 6.30074 72.4767 6.3297 72.4873 6.36173C72.4938 6.38324 72.7786 6.64301 72.8178 6.66121C72.8604 6.68106 73.0076 6.81839 73.0404 6.85975C73.0603 6.87377 73.079 6.87847 73.0957 6.88269C73.1282 6.89092 73.1534 6.89728 73.1664 6.9673C73.1746 7.01528 73.2515 7.1857 73.276 7.21879C73.3379 7.30134 73.3829 7.42305 73.4214 7.52707C73.4276 7.54399 73.4337 7.56044 73.4396 7.57618C73.4825 7.69321 73.4762 7.81935 73.47 7.94347C73.4674 7.99482 73.4649 8.04583 73.4658 8.09571C73.4749 8.11983 73.4541 8.14645 73.4321 8.17475C73.4103 8.20274 73.3873 8.23237 73.3905 8.26282C73.3957 8.30622 73.3989 8.35301 73.402 8.3992C73.4058 8.45514 73.4096 8.51021 73.4167 8.55733C73.4221 8.59361 73.4539 8.65423 73.4873 8.718C73.5346 8.8084 73.5852 8.90512 73.5689 8.94781C73.522 9.04623 73.5343 9.06434 73.5694 9.11617C73.5821 9.13491 73.5978 9.15807 73.6147 9.19103C73.6356 9.2325 73.6249 9.26199 73.6133 9.29402C73.6012 9.32715 73.5882 9.36301 73.6082 9.4177C73.5169 9.42675 73.525 9.45363 73.5336 9.48235C73.5408 9.50613 73.5484 9.53117 73.5002 9.54841C73.4742 9.55197 73.4531 9.55314 73.4345 9.55416C73.384 9.55695 73.3522 9.55871 73.2924 9.60467C73.2629 9.62617 73.6327 10.1656 73.6998 9.64438C73.7178 9.50374 73.8684 9.36641 74.0107 9.3085C74.042 9.29506 74.0726 9.31109 74.0995 9.32512C74.1388 9.34564 74.1699 9.36189 74.1825 9.27541C74.1845 9.25876 74.173 9.22736 74.1609 9.19461C74.143 9.14598 74.1241 9.09435 74.1465 9.08348C74.1909 9.06724 74.2533 9.2605 74.3098 9.4354C74.3511 9.5635 74.3893 9.68174 74.4149 9.70063C74.5638 9.80487 74.6669 9.97694 74.6865 10.1589C74.6957 10.2497 74.7724 10.3625 74.8503 10.4768C74.9525 10.6272 75.0568 10.7803 75.0122 10.8903C74.9565 11.0276 74.9778 11.4313 74.9925 11.5835C75.0015 11.6429 75.0142 11.6981 75.0268 11.7527C75.0486 11.8472 75.07 11.94 75.0711 12.0501C75.0711 12.0822 75.0637 12.1299 75.0556 12.182ZM71.6305 18.687C71.6224 18.7072 71.6157 18.7241 71.6135 18.7345C71.6115 18.7462 71.6101 18.7599 71.6086 18.7745C71.6015 18.845 71.5922 18.9368 71.5055 18.9231L71.5137 18.9066C71.5071 18.9049 71.4957 18.9066 71.4891 18.9082C71.4881 18.9123 71.4852 18.9164 71.4832 18.9193C71.4819 18.9211 71.4809 18.9225 71.4809 18.9231C71.4815 18.9188 71.4821 18.9144 71.4827 18.9098C71.4876 18.8724 71.4935 18.828 71.476 18.7941C71.4593 18.7626 71.4276 18.7488 71.3964 18.7353C71.385 18.7303 71.3737 18.7254 71.3631 18.7196C71.3239 18.6998 71.314 18.6849 71.3386 18.6485C71.3411 18.6447 71.3437 18.6406 71.3465 18.6362C71.3661 18.6059 71.3934 18.5635 71.422 18.5475C71.4411 18.5379 71.4619 18.5403 71.4832 18.5428C71.5021 18.545 71.5213 18.5472 71.5398 18.5409C71.5519 18.5376 71.5636 18.5273 71.5755 18.5169C71.5928 18.5018 71.6105 18.4864 71.6298 18.4913C71.7008 18.5105 71.658 18.618 71.6305 18.687ZM72.9324 16.6961C72.8964 16.7093 72.8424 16.7143 72.8391 16.6647C72.8358 16.6647 72.8309 16.6647 72.8276 16.663C72.8293 16.6597 72.8309 16.658 72.8326 16.6547L72.8244 16.6647C72.7933 16.6498 72.7393 16.6216 72.7262 16.5886C72.7141 16.5597 72.7315 16.5442 72.7507 16.5272C72.7601 16.5188 72.7699 16.5101 72.7769 16.4992C72.7853 16.4871 72.7896 16.4741 72.7937 16.4621C72.8022 16.4365 72.8093 16.4154 72.8506 16.4165C72.8592 16.417 72.8653 16.4181 72.8705 16.419C72.881 16.4209 72.8876 16.422 72.9029 16.4165C72.9185 16.412 72.9357 16.4013 72.9518 16.3913C72.9593 16.3866 72.9665 16.3821 72.9733 16.3784C72.9864 16.433 73.0027 16.4661 73.0289 16.5124C73.0551 16.5571 73.0371 16.5952 73.0076 16.6332C73.0056 16.6356 73.0036 16.6379 73.0016 16.6403C72.9823 16.6632 72.962 16.6871 72.9324 16.6961ZM67.1477 20.0043C67.0655 20.0655 66.9823 20.1275 66.9319 20.217C66.8734 20.3206 66.8645 20.4366 66.8556 20.5525C66.8457 20.6829 66.8357 20.813 66.7552 20.9251C66.7068 20.9933 66.649 21.0487 66.5922 21.1031C66.4972 21.1941 66.4051 21.2824 66.3641 21.4232L66.3634 21.4256C66.3031 21.6315 66.2487 21.8174 66.0368 21.9195C65.793 22.0354 65.5099 22.0701 65.2432 22.0966C65.212 22.0994 65.1806 22.102 65.1491 22.1046C64.927 22.1227 64.7024 22.1411 64.5118 22.2686C64.3089 22.4043 64.1092 22.5201 63.8556 22.5201C63.795 22.5201 63.7361 22.5168 63.6756 22.5119C63.649 22.5318 63.6273 22.5564 63.6056 22.5809C63.586 22.6031 63.5664 22.6254 63.5431 22.6442C63.4684 22.7046 63.3843 22.6617 63.3072 22.6224C63.283 22.61 63.2594 22.598 63.2371 22.5896C63.2518 22.6194 63.2551 22.6492 63.2469 22.6806C63.2258 22.6726 63.2042 22.6769 63.1827 22.6811C63.1557 22.6864 63.1291 22.6917 63.1045 22.6724C63.0908 22.6625 63.0791 22.6503 63.0674 22.6381C63.0456 22.6154 63.024 22.5928 62.99 22.5863C62.9441 22.5783 62.9048 22.5813 62.8674 22.5843C62.8048 22.5892 62.7473 22.5936 62.6725 22.545C62.5408 22.4595 62.4062 22.4485 62.2603 22.4366C62.214 22.4328 62.1666 22.4289 62.1178 22.4225C61.9083 22.3944 61.7005 22.3481 61.496 22.2885C61.1295 22.1843 60.7335 22.0668 60.3996 21.8798C60.2442 21.7938 60.0838 21.678 60.0282 21.5042C60.017 21.471 60.016 21.433 60.015 21.3952C60.0139 21.356 60.0129 21.3171 60.0004 21.2842C59.9888 21.2549 59.8959 21.2372 59.827 21.2241C59.7987 21.2187 59.7744 21.2141 59.7615 21.2097C59.7379 21.2019 59.7068 21.197 59.6741 21.1918C59.5752 21.176 59.4611 21.1578 59.4931 21.0509C59.5156 20.9737 59.5975 20.9768 59.6699 20.9796C59.6922 20.9805 59.7136 20.9813 59.732 20.9797C59.8858 20.9665 59.8711 20.8093 59.7778 20.7283C59.7509 20.7042 59.7135 20.6846 59.6755 20.6647C59.5959 20.6231 59.5138 20.5801 59.5193 20.4917C59.5212 20.4663 59.5259 20.4356 59.531 20.4022C59.5526 20.2615 59.5816 20.0728 59.4375 20.03C59.4206 20.025 59.4038 20.0204 59.3873 20.0158C59.2721 19.9839 59.1681 19.9551 59.1266 19.8364C59.1142 19.7998 59.0919 19.769 59.0692 19.7377C59.0468 19.7069 59.0242 19.6757 59.0104 19.6379C58.9809 19.5634 58.8958 19.4923 58.8222 19.4625C58.8037 19.4547 58.7733 19.453 58.7411 19.4512C58.685 19.4481 58.6236 19.4447 58.6111 19.4079C58.5964 19.3632 58.5817 19.3053 58.5833 19.259C58.5898 19.1546 58.6846 19.2253 58.766 19.2861C58.8085 19.3177 58.8473 19.3467 58.868 19.3467C58.994 19.3434 59.1069 19.1879 59.0202 19.082C59.0328 19.0759 59.0489 19.0727 59.0655 19.0695C59.0982 19.0632 59.1326 19.0565 59.1446 19.0257C59.1305 19.023 59.1113 19.0255 59.091 19.0282C59.0502 19.0336 59.005 19.0396 58.9875 19.0042C58.9757 18.9811 58.9805 18.9539 58.9853 18.9268C58.9912 18.8938 58.997 18.8609 58.9728 18.8354C58.948 18.8083 58.9109 18.8187 58.8746 18.8288C58.8533 18.8347 58.8322 18.8406 58.814 18.8388C58.7772 18.8356 58.8005 18.8099 58.8223 18.7858C58.8354 18.7713 58.848 18.7575 58.8468 18.7494C58.8016 18.7483 58.7614 18.7736 58.7225 18.7982C58.7021 18.811 58.6821 18.8236 58.6619 18.8321C58.6348 18.8445 58.607 18.8545 58.5792 18.8644C58.5514 18.8743 58.5236 18.8843 58.4966 18.8967C58.4557 18.8682 58.4985 18.8287 58.5259 18.8034C58.5303 18.7994 58.5343 18.7956 58.5375 18.7924C58.5819 18.7505 58.5636 18.7047 58.5452 18.6585C58.5426 18.6518 58.54 18.6452 58.5375 18.6385C58.6553 18.6468 58.6586 18.5624 58.5899 18.4913C58.5338 18.4346 58.5285 18.3875 58.5226 18.3349C58.5191 18.3031 58.5153 18.2692 58.4999 18.2299C58.4524 18.1091 58.3771 18.1736 58.3346 18.2481C58.2836 18.3354 58.2332 18.2976 58.1937 18.2679C58.171 18.2508 58.1519 18.2365 58.1382 18.2497C58.1026 18.1467 58.0239 18.0922 57.9368 18.0318L57.9337 18.0297C57.8844 17.9971 57.8611 17.9484 57.8375 17.8991C57.8227 17.8682 57.8079 17.837 57.7864 17.8096C57.7563 17.7717 57.7166 17.7445 57.677 17.7173C57.6283 17.684 57.5798 17.6507 57.5491 17.5978C57.53 17.5648 57.5148 17.5295 57.4997 17.4944C57.4746 17.4363 57.4496 17.3782 57.4068 17.3298C57.4001 17.3223 57.3865 17.3096 57.369 17.2935C57.2788 17.2102 57.0879 17.0339 57.2497 16.9923C57.2874 16.9821 57.3243 16.9923 57.3609 17.0025C57.3958 17.0122 57.4306 17.0218 57.4657 17.0138C57.541 16.9972 57.5639 16.9095 57.5704 16.8467C57.5852 16.8649 57.6024 16.8719 57.6193 16.8788C57.636 16.8856 57.6523 16.8922 57.6653 16.9095C57.6847 16.9384 57.72 16.9503 57.7535 16.9617C57.768 16.9666 57.7822 16.9714 57.7946 16.9774C57.8051 16.9475 57.7945 16.9065 57.7841 16.8663C57.7767 16.8374 57.7694 16.809 57.77 16.7854C57.77 16.772 57.7643 16.753 57.7586 16.7339C57.7509 16.7085 57.7432 16.6829 57.7488 16.6696C57.77 16.6167 57.8699 16.572 57.9206 16.5555C57.9702 16.5392 58.0275 16.5663 58.0763 16.5893C58.0871 16.5944 58.0974 16.5993 58.1071 16.6034C58.1597 16.626 58.2169 16.6141 58.2712 16.6027L58.2757 16.6018C58.3035 16.5952 58.3329 16.5919 58.3624 16.5902C58.3689 16.5654 58.382 16.5422 58.4017 16.524C58.4442 16.481 58.4933 16.4992 58.5391 16.5224C58.6275 16.5637 58.6995 16.3883 58.7158 16.3155C58.7371 16.2229 58.7469 16.0492 58.7208 15.9565C58.717 15.9428 58.7133 15.9304 58.7099 15.9189C58.6867 15.8406 58.6778 15.8108 58.7649 15.7646C58.7828 15.7562 58.7903 15.7374 58.798 15.7178C58.7995 15.7141 58.801 15.7104 58.8026 15.7067C58.7191 15.5561 58.6749 15.3923 58.76 15.2517C58.7809 15.2166 58.8094 15.1827 58.8377 15.149C58.9028 15.0715 58.967 14.9952 58.9351 14.9075L59.1691 14.9274C59.2918 14.7685 59.4735 14.6577 59.6698 14.6246C59.7844 14.4972 59.9676 14.3615 60.1051 14.4641C60.1234 14.4778 60.139 14.495 60.1545 14.5121C60.1763 14.5363 60.1982 14.5604 60.2278 14.575C60.2672 14.5935 60.3118 14.5908 60.3557 14.5882C60.3666 14.5875 60.3775 14.5869 60.3882 14.5865C60.578 14.5816 60.7662 14.7057 60.8365 14.8844C60.8136 14.9125 60.7911 14.9406 60.7686 14.9687C60.7461 14.9969 60.7236 15.025 60.7007 15.0531C60.7564 15.2599 61.0771 15.3344 61.2015 15.1607C61.2325 15.1182 61.2526 15.0657 61.2725 15.0141C61.306 14.9269 61.3385 14.8423 61.4207 14.8132C61.4862 14.79 61.5614 14.8132 61.6334 14.838L61.6367 14.8347C61.6384 14.8347 61.6384 14.8397 61.6384 14.8397C61.6989 14.8595 61.7594 14.8794 61.8085 14.8777C61.8151 14.867 61.8188 14.8595 61.8226 14.8517C61.8265 14.8438 61.8306 14.8355 61.838 14.8231C61.8371 14.824 61.8413 14.8305 61.846 14.8376C61.8501 14.8439 61.8545 14.8507 61.856 14.8546C61.8613 14.8519 61.8667 14.8503 61.8721 14.8487C61.8833 14.8453 61.8941 14.8421 61.9018 14.8298C61.9291 14.7921 61.9286 14.7442 61.9281 14.6957C61.9277 14.6569 61.9273 14.6178 61.9411 14.5832C61.9705 14.5104 62.0507 14.5121 62.1194 14.5419C62.1669 14.4459 62.2127 14.3532 62.2749 14.2209C62.306 14.153 62.2798 14.4955 62.2323 14.8347C62.2346 14.8362 62.2351 14.8388 62.2357 14.8415C62.2363 14.8446 62.237 14.8478 62.2405 14.8496C62.2782 14.8612 62.3158 14.8298 62.342 14.7983C62.363 14.7726 62.3821 14.745 62.4013 14.7173C62.4389 14.6632 62.4765 14.6089 62.5285 14.5683C62.5809 14.527 62.6496 14.5204 62.7118 14.5352C62.717 14.5272 62.7223 14.5188 62.7275 14.5106C62.7501 14.4747 62.7718 14.4403 62.7838 14.4376C62.8026 14.4333 62.8204 14.4283 62.8378 14.4235C62.9006 14.4059 62.9567 14.3902 63.026 14.4161C63.0585 14.429 63.0885 14.4474 63.1185 14.4658C63.158 14.4899 63.1973 14.514 63.242 14.5253C63.2546 14.5285 63.2699 14.5308 63.2863 14.5333C63.3377 14.5411 63.3992 14.5505 63.4203 14.5932C63.4379 14.6314 63.4665 14.6381 63.5072 14.6476C63.5159 14.6496 63.5251 14.6518 63.5349 14.6544C63.5394 14.6557 63.5448 14.6568 63.5507 14.658C63.5746 14.6629 63.6056 14.6691 63.6069 14.6957C63.6036 14.7139 63.5938 14.7172 63.5758 14.7057C63.5806 14.7422 63.6165 14.751 63.6495 14.759C63.6613 14.7618 63.6727 14.7646 63.6821 14.7685C63.739 14.7924 63.7876 14.8281 63.8359 14.8635C63.8446 14.87 63.8534 14.8764 63.8621 14.8827C63.9528 14.9488 64.0207 15.039 64.0879 15.1284C64.1031 15.1487 64.1183 15.1689 64.1338 15.1888C64.1359 15.1916 64.1386 15.1951 64.1419 15.1993C64.1721 15.2376 64.2445 15.3299 64.209 15.3642C64.1944 15.3789 64.17 15.3832 64.146 15.3873C64.1297 15.3901 64.1136 15.3929 64.101 15.3989C64.0891 15.4044 64.0758 15.4101 64.062 15.4161C64.0172 15.4356 63.9663 15.4576 63.9325 15.4817C63.9127 15.4953 63.8983 15.5135 63.884 15.5315C63.8688 15.5508 63.8538 15.5698 63.8327 15.5826C63.7486 15.6326 63.6767 15.5494 63.6204 15.4843C63.6022 15.4633 63.5857 15.4441 63.5709 15.432C63.5277 15.3962 63.5169 15.3452 63.5066 15.2969C63.4975 15.2538 63.4889 15.2129 63.458 15.1871C63.3834 15.1223 63.2897 15.0827 63.1977 15.0438C63.1604 15.028 63.1235 15.0124 63.0882 14.9952C63.0708 14.9867 63.053 14.9787 63.0352 14.9706C62.9841 14.9476 62.9326 14.9245 62.8902 14.8877C62.885 14.8831 62.8799 14.8785 62.8748 14.8739C62.8408 14.843 62.8062 14.8117 62.7592 14.8016C62.7592 14.8016 62.7576 14.8033 62.7576 14.8049C62.7356 14.886 62.8117 14.9319 62.8769 14.9713C62.8942 14.9817 62.9108 14.9917 62.9245 15.0018C62.9863 15.0465 63.0121 15.1088 63.0387 15.1729C63.0466 15.1919 63.0546 15.2112 63.0636 15.2302C63.1035 15.3137 63.1657 15.3847 63.2264 15.454C63.2355 15.4644 63.2445 15.4747 63.2534 15.485C63.2638 15.496 63.2752 15.5061 63.2867 15.5162C63.3096 15.5364 63.3325 15.5567 63.3467 15.5842C63.3555 15.6021 63.3567 15.621 63.3579 15.6397C63.3594 15.6625 63.3609 15.685 63.3761 15.705C63.2831 15.7417 63.1987 15.617 63.1301 15.5155C63.0997 15.4706 63.0725 15.4303 63.0489 15.4105C63.0178 15.3824 62.954 15.3493 62.9114 15.3658C62.9081 15.3723 62.9044 15.3791 62.9007 15.3861C62.8768 15.4304 62.849 15.4818 62.8787 15.5147C62.8963 15.5336 62.9014 15.559 62.9066 15.5844C62.9096 15.5992 62.9126 15.6139 62.918 15.6273C62.9293 15.6558 62.9492 15.686 62.9679 15.7144C62.9763 15.7272 62.9845 15.7396 62.9916 15.7513C63.0055 15.7729 63.0247 15.7882 63.044 15.8035C63.0632 15.8188 63.0824 15.8341 63.0963 15.8556C63.1069 15.873 63.1141 15.8917 63.1212 15.9101C63.1262 15.923 63.1311 15.9359 63.1372 15.9482C63.1618 15.9995 63.2321 16.0872 63.2992 16.0492C63.3292 16.0323 63.3424 15.9671 63.3548 15.9058C63.3728 15.8167 63.3891 15.7359 63.4531 15.8241C63.4702 15.8481 63.4837 15.9024 63.499 15.9636C63.5334 16.1014 63.5765 16.2742 63.6887 16.2146C63.7202 16.1981 63.739 16.1807 63.7542 16.1665C63.7848 16.138 63.8015 16.1225 63.8801 16.1534C63.902 16.1612 63.9255 16.1504 63.9476 16.1403C63.9819 16.1246 64.0125 16.1106 64.0274 16.1699C64.0432 16.2264 64.0563 16.2319 64.0893 16.2458C64.1008 16.2506 64.1148 16.2565 64.1321 16.2659C64.1816 16.2925 64.1814 16.3561 64.1812 16.4049C64.1812 16.4077 64.1812 16.4105 64.1812 16.4132C64.1812 16.4744 64.1845 16.5472 64.2598 16.5604C64.3106 16.5679 64.3135 16.6143 64.3162 16.6565C64.3171 16.6701 64.3179 16.6832 64.3203 16.6944C64.3443 16.8038 64.4389 16.8015 64.5268 16.7992C64.601 16.7974 64.6705 16.7956 64.6885 16.8616C64.6895 16.8655 64.6905 16.8694 64.6914 16.8733C64.6997 16.9072 64.7076 16.9394 64.7458 16.9542C64.7527 16.957 64.7604 16.9592 64.7681 16.9614C64.7875 16.9668 64.8072 16.9724 64.8178 16.989C64.8289 17.0043 64.8371 17.018 64.8444 17.0304C64.8671 17.0687 64.8818 17.0935 64.9536 17.1097C65.0714 17.1379 65.2579 17.1048 65.3463 17.0187C65.3627 17.0035 65.3748 16.9794 65.3871 16.9549C65.4042 16.9209 65.4215 16.8863 65.451 16.8748C65.5099 16.85 65.5787 16.9476 65.5918 16.989C65.5974 17.005 65.602 17.0205 65.6064 17.0354C65.6225 17.0899 65.6364 17.137 65.6916 17.1759C65.7619 17.2239 65.8257 17.2702 65.8634 17.348C65.91 17.4439 65.8754 17.527 65.8413 17.6092C65.8094 17.6857 65.7779 17.7614 65.8127 17.846C65.829 17.8857 65.8585 17.9205 65.8896 17.9486L65.8888 17.9507C65.882 17.9695 65.869 18.0055 65.8879 18.0214C65.9109 18.0414 65.9362 18.03 65.9599 18.0193C65.9851 18.0079 66.0085 17.9974 66.0254 18.0264C66.1005 18.1617 65.9647 18.2348 65.8588 18.2918C65.8378 18.3031 65.818 18.3138 65.8012 18.3242C65.7061 18.3836 65.7281 18.5215 65.7447 18.6254C65.7475 18.6431 65.7502 18.6598 65.7521 18.6749C65.794 18.6725 65.8321 18.6528 65.8706 18.6328C65.9118 18.6114 65.9535 18.5898 66.0008 18.5889C66.1334 18.5889 66.0287 18.7726 65.9812 18.8123C65.8781 18.8967 65.6981 18.9182 65.5754 18.8603C65.5697 18.8578 65.5634 18.8546 65.5565 18.8512C65.5176 18.8317 65.4635 18.8047 65.4412 18.8553C65.435 18.869 65.4272 18.8824 65.4193 18.8958C65.3941 18.939 65.3691 18.9818 65.4003 19.0323C65.4305 19.0833 65.4845 19.1035 65.538 19.1235C65.6061 19.149 65.6734 19.1743 65.6899 19.2623C65.6983 19.308 65.6735 19.3468 65.6512 19.3818C65.621 19.4292 65.5953 19.4696 65.6621 19.5105C65.7348 19.5546 65.7723 19.6106 65.8142 19.6732C65.8242 19.6881 65.8344 19.7034 65.8454 19.719C65.8799 19.7684 65.9285 19.7476 65.9745 19.7278C66.0224 19.7073 66.0675 19.688 66.0908 19.7504C66.0748 19.6942 66.1278 19.6936 66.1723 19.6932C66.1867 19.693 66.2003 19.6929 66.2103 19.6908C66.2676 19.6809 66.3117 19.6296 66.3281 19.5767C66.3533 19.4976 66.2776 19.4522 66.214 19.414C66.199 19.4051 66.1848 19.3966 66.1727 19.3881C66.1187 19.35 66.1285 19.3235 66.1727 19.2822C66.1554 19.2385 66.1224 19.2097 66.0891 19.1806C66.0656 19.16 66.042 19.1394 66.0237 19.1134C65.9681 19.0323 66.0057 18.9016 66.0876 18.8503C66.1682 18.7987 66.2464 18.8547 66.3231 18.9097C66.3694 18.9429 66.4151 18.9756 66.4606 18.9843C66.5032 18.9926 66.5474 18.995 66.5915 18.9975C66.6895 19.003 66.7869 19.0085 66.8648 19.077C66.9056 19.1117 66.9384 19.1522 66.971 19.1926C67.021 19.2545 67.0707 19.3159 67.1479 19.355C67.1566 19.3593 67.1653 19.3634 67.1738 19.3674C67.2203 19.3891 67.2626 19.4088 67.2723 19.4675C67.279 19.5129 67.3091 19.5205 67.3434 19.5292C67.3679 19.5354 67.3945 19.5421 67.4163 19.5634C67.4288 19.5755 67.4372 19.5899 67.4454 19.6041C67.4597 19.6288 67.4736 19.6526 67.5079 19.6611C67.4163 19.7736 67.3132 19.8778 67.197 19.9672C67.1808 19.9797 67.1643 19.992 67.1477 20.0043ZM57.1024 17.1147C57.1433 17.1461 57.163 17.1792 57.1711 17.2322C57.1782 17.2878 57.1913 17.3213 57.2095 17.3676C57.2124 17.375 57.2154 17.3828 57.2186 17.391C57.235 17.4324 57.2382 17.525 57.1761 17.5399C57.1404 17.5473 57.1215 17.5208 57.1027 17.4942C57.0921 17.4793 57.0816 17.4644 57.0681 17.4555C57.0298 17.4304 56.9853 17.4324 56.9428 17.4343C56.8764 17.4373 56.8148 17.44 56.7899 17.3381C56.7851 17.3194 56.7825 17.3025 56.7799 17.2866C56.7737 17.2475 56.7684 17.2142 56.7359 17.1743C56.7305 17.1676 56.7251 17.1613 56.7198 17.1553C56.6898 17.1205 56.6655 17.0924 56.6933 17.0402C56.7424 16.9492 56.8995 16.9046 56.9617 17.0038C57.006 16.999 57.0265 17.0337 57.0472 17.0688C57.0617 17.0933 57.0763 17.118 57.0991 17.1296C57.0991 17.1241 57.1003 17.1209 57.1016 17.1171C57.1019 17.1164 57.1021 17.1156 57.1024 17.1147ZM57.1024 17.1147C57.1035 17.1129 57.1046 17.1112 57.1056 17.1095C57.1094 17.1034 57.1129 17.0976 57.1155 17.0899L57.0877 17.1031C57.0926 17.1064 57.0975 17.1097 57.1024 17.1147ZM58.4148 19.1448C58.4442 19.1432 58.4884 19.1746 58.4786 19.2028L58.4655 19.216C58.4786 19.221 58.4884 19.2259 58.4917 19.2408C58.4594 19.2442 58.4521 19.2736 58.4451 19.302C58.4418 19.3153 58.4385 19.3284 58.4328 19.3384C58.3575 19.3384 58.3215 19.2607 58.3542 19.2028C58.364 19.1829 58.3886 19.1465 58.4148 19.1448ZM72.3961 19.4785C72.3994 19.4594 72.4025 19.4413 72.4202 19.4245C72.4504 19.3958 72.5014 19.3892 72.5517 19.3827C72.5885 19.3779 72.6249 19.3732 72.6526 19.3599C72.6678 19.3529 72.6846 19.3338 72.7021 19.3138C72.7297 19.2824 72.7594 19.2486 72.7884 19.2557C72.7049 19.5171 72.5446 19.7024 72.3547 19.8993C72.3104 19.945 72.2669 19.9916 72.2234 20.0383C72.0825 20.1896 71.9415 20.341 71.7689 20.4586C71.7267 20.4873 71.6847 20.5164 71.6426 20.5455C71.4547 20.6755 71.2663 20.8059 71.0604 20.9086C70.9088 20.9847 70.7801 21.0887 70.6508 21.1931C70.5666 21.2612 70.4822 21.3294 70.3911 21.3901C69.8806 21.7309 69.3406 22.0668 68.7532 22.2653C68.6735 22.2926 68.5936 22.3212 68.5134 22.3498C68.2971 22.4269 68.0789 22.5048 67.8581 22.5615C67.7903 22.5786 67.7218 22.5942 67.6531 22.6098C67.6222 22.6168 67.5912 22.6238 67.5603 22.631C67.5548 22.6323 67.5424 22.6362 67.5269 22.6412C67.4825 22.6554 67.412 22.6781 67.3999 22.6707C67.3901 22.6492 67.2052 22.6889 67.1774 22.7038C67.0743 22.7567 66.9794 22.7799 66.8648 22.7799C66.8396 22.7799 66.8138 22.778 66.7879 22.776C66.718 22.7708 66.6475 22.7655 66.5866 22.7981C66.5572 22.8147 66.4165 22.8461 66.4623 22.7634C66.4816 22.7282 66.5789 22.7371 66.6379 22.7425C66.6538 22.744 66.667 22.7452 66.675 22.7452C66.7528 22.7438 66.8258 22.7173 66.8982 22.6912C66.9111 22.6865 66.9239 22.6818 66.9368 22.6773C66.9861 22.661 67.034 22.6436 67.0818 22.6263C67.1404 22.6051 67.1988 22.5839 67.2592 22.5648C67.2725 22.5608 67.2856 22.5572 67.2985 22.5537C67.344 22.5411 67.3865 22.5294 67.4261 22.5036C67.4791 22.4688 67.5357 22.4591 67.5922 22.4494C67.6299 22.4429 67.6676 22.4364 67.7043 22.4225C67.7266 22.4142 67.7459 22.3972 67.7656 22.3798C67.8009 22.3488 67.8374 22.3167 67.8941 22.3315C67.9098 22.3356 67.9228 22.3408 67.9353 22.3458C67.9579 22.3547 67.9786 22.363 68.0103 22.363C68.0552 22.3618 68.0555 22.3533 68.0563 22.3321C68.0567 22.3233 68.0571 22.3121 68.061 22.2984C68.0774 22.2356 68.1281 22.2256 68.1543 22.2769C68.1781 22.3229 68.2375 22.2859 68.2869 22.2551C68.3086 22.2415 68.3284 22.2292 68.3424 22.2256C68.3723 22.2186 68.3875 22.202 68.4025 22.1855C68.4229 22.1632 68.4431 22.141 68.4995 22.1429C68.549 22.1457 68.5889 22.1232 68.6296 22.1003C68.6601 22.0831 68.6911 22.0656 68.727 22.0585C68.7386 22.0558 68.7555 22.0541 68.7742 22.0521C68.8239 22.0471 68.8871 22.0406 68.9037 22.0105C68.7908 22.0138 68.6795 22.0304 68.5732 22.0734C68.5373 22.0878 68.5022 22.1042 68.467 22.1207C68.3929 22.1553 68.3187 22.1901 68.2377 22.2058C68.1861 22.215 68.1335 22.2174 68.0808 22.2199C68.0198 22.2227 67.9587 22.2256 67.899 22.2389C67.8335 22.2531 67.7723 22.2793 67.7113 22.3055C67.6732 22.3218 67.6352 22.338 67.5963 22.3514C67.5079 22.3828 67.395 22.406 67.3066 22.3613C67.2085 22.3084 67.3017 22.2339 67.3688 22.2174C67.3975 22.2108 67.4283 22.2078 67.4594 22.2049C67.5225 22.1988 67.5868 22.1927 67.6372 22.1561C67.6943 22.1156 67.7135 22.0441 67.7307 21.9805C67.7317 21.9767 67.7327 21.9729 67.7337 21.9692C67.6944 21.9725 67.2788 22.0039 67.4081 21.8881C67.4599 21.8401 67.5382 21.8241 67.6086 21.8097C67.6183 21.8077 67.6279 21.8057 67.6372 21.8037C67.666 21.7976 67.6944 21.7887 67.723 21.7799C67.7786 21.7626 67.8346 21.7453 67.8941 21.7475C67.9328 21.7492 67.9665 21.7601 67.9986 21.7705C68.0588 21.79 68.1133 21.8076 68.1837 21.759C68.2073 21.7432 68.2293 21.7241 68.2514 21.705C68.2891 21.6723 68.3271 21.6395 68.3735 21.6217C68.4061 21.6082 68.4421 21.6124 68.4778 21.6165C68.5209 21.6215 68.5635 21.6265 68.5993 21.6002C68.6216 21.5835 68.6369 21.5626 68.6519 21.542C68.6756 21.5097 68.6986 21.4783 68.7466 21.4662C68.7654 21.4614 68.7879 21.459 68.8116 21.4564C68.8871 21.4481 68.9739 21.4386 68.9839 21.3504C68.9892 21.3117 68.9373 21.271 68.8909 21.2345C68.8657 21.2147 68.8421 21.1962 68.8301 21.1799C68.7875 21.1204 68.7319 21.0426 68.6812 20.9897C68.6688 20.9772 68.6476 20.9677 68.6258 20.9579C68.5867 20.9404 68.5455 20.922 68.5486 20.8838C68.5551 20.8104 68.6457 20.7983 68.7148 20.789C68.733 20.7865 68.7497 20.7843 68.763 20.7812C68.7931 20.7737 68.821 20.7635 68.8482 20.7536C68.9112 20.7305 68.9706 20.7088 69.0461 20.7249C69.1393 20.7431 69.2097 20.7564 69.2932 20.7018C69.3045 20.6944 69.3157 20.6869 69.3267 20.6796C69.3875 20.6391 69.4456 20.6003 69.519 20.5793C69.5024 20.6122 69.4914 20.6473 69.4803 20.6825C69.4652 20.7307 69.4501 20.7788 69.4208 20.8209C69.3973 20.8544 69.3654 20.8813 69.3334 20.9083C69.3052 20.9321 69.2768 20.9561 69.2539 20.9847C69.1148 21.1584 69.3881 21.2577 69.4208 21.127C69.4257 21.1063 69.4259 21.0872 69.4261 21.0697C69.4266 21.0283 69.427 20.9954 69.4879 20.9698C69.5021 20.964 69.5185 20.9599 69.5351 20.9557C69.5799 20.9445 69.6259 20.9329 69.6319 20.8871C69.6433 20.8077 69.7382 20.7547 69.8151 20.7448C69.8495 20.7398 69.8854 20.7245 69.9214 20.7092C69.9693 20.6887 70.0174 20.6682 70.0622 20.672C70.0589 20.6751 70.0547 20.6787 70.05 20.6826C70.0275 20.7015 69.9952 20.7287 70.0033 20.7547C70.0174 20.7447 70.0528 20.732 70.0936 20.7173C70.1811 20.6859 70.2938 20.6453 70.2782 20.6025C70.2537 20.5413 70.2897 20.5148 70.3453 20.4917C70.3601 20.4853 70.3742 20.4731 70.3884 20.4609C70.4073 20.4446 70.4262 20.4283 70.4468 20.4255C70.4531 20.4406 70.4578 20.4565 70.4623 20.4719C70.4776 20.5239 70.4914 20.5711 70.5646 20.5711C70.6366 20.5711 70.7086 20.538 70.7642 20.495C70.7941 20.4739 70.8125 20.4468 70.8306 20.4202C70.8549 20.3842 70.8787 20.3492 70.9295 20.3312C71.0064 20.3047 71.0669 20.2716 71.1373 20.2319C71.1596 20.2195 71.181 20.2019 71.2027 20.1842C71.2416 20.1523 71.2815 20.1197 71.3288 20.1144C71.3648 20.1111 71.4531 20.1061 71.4777 20.1409C71.5076 20.1849 71.4053 20.2574 71.3511 20.2959C71.3401 20.3037 71.331 20.3101 71.3255 20.3146L71.3246 20.3154C71.2894 20.3441 71.1936 20.4226 71.2649 20.4668C71.3074 20.4915 71.3649 20.4621 71.4107 20.4387C71.4232 20.4323 71.4348 20.4264 71.4449 20.4222C71.4582 20.4163 71.4718 20.4107 71.4855 20.4051C71.5408 20.3824 71.597 20.3594 71.6364 20.313C71.6539 20.2927 71.6667 20.2698 71.6793 20.2471C71.6997 20.2104 71.7197 20.1743 71.7591 20.1508C71.8393 20.1028 71.8868 20.0548 71.9342 19.9738C71.9471 19.9525 71.9541 19.9303 71.961 19.9084C71.9708 19.8775 71.9804 19.847 72.0062 19.8199C72.0318 19.7912 72.0365 19.7608 72.0414 19.7297C72.0449 19.7071 72.0485 19.6841 72.0602 19.6611C72.0996 19.591 72.13 19.6465 72.1523 19.6872C72.1568 19.6955 72.1611 19.7032 72.1649 19.709C72.1947 19.699 72.213 19.672 72.2316 19.6444C72.2469 19.6219 72.2623 19.5991 72.2844 19.585C72.2933 19.5793 72.3044 19.574 72.3159 19.5684C72.3448 19.5547 72.377 19.5393 72.3875 19.5122C72.3922 19.5007 72.3942 19.4894 72.3961 19.4785ZM70.9164 19.0356C71.0179 18.9744 71.0669 19.0803 71.0097 19.1581C70.9655 19.216 70.8559 19.259 70.7871 19.2408C70.7305 19.2257 70.6899 19.2522 70.6463 19.2807C70.6231 19.2958 70.599 19.3115 70.5711 19.3219C70.5433 19.2689 70.5973 19.2011 70.6579 19.2028C70.6726 19.163 70.7446 19.1035 70.7888 19.1134C70.8 19.1164 70.8076 19.1226 70.8142 19.1281C70.8259 19.1376 70.8344 19.1446 70.8542 19.1266C70.8673 19.1149 70.8736 19.0998 70.8799 19.0849C70.8877 19.0662 70.8955 19.0476 70.9164 19.0356Z" fill="context-fill"/>
<path d="M96.3095 2.19611C96.2455 2.22054 96.1841 2.24482 96.1256 2.26857C95.6665 2.45496 95.2452 2.66838 94.914 2.85804H94.0907C92.4392 2.85804 91.0198 3.83997 90.1735 4.54107C89.3028 5.26251 88.5594 6.09651 88.0814 6.71921C87.5002 7.30294 86.5326 8.46178 86.081 9.05761C85.9832 9.18127 85.8728 9.33106 85.7759 9.4627L85.7511 9.49629C85.1487 10.3138 83.9024 12.0051 81.5398 14.0917C81.5163 14.1025 81.4807 14.1174 81.4326 14.1336C81.2953 14.18 81.072 14.2318 80.763 14.2318L80.7473 14.2316L80.7494 14.232L80.763 14.2345C80.7926 14.2406 80.8615 14.2588 80.9517 14.3116C81.0969 14.3966 81.215 14.5236 81.296 14.6682L79.2529 15.4566C79.0871 14.6636 79 13.8419 79 13C79 6.37258 84.3977 1 91.0562 1C92.9393 1 94.7217 1.42975 96.3095 2.19611Z" fill="context-fill"/>
<path d="M100.919 17.3664L101.729 18.5858C99.7103 22.3998 95.6883 25 91.0562 25C89.5032 25 88.0188 24.7077 86.6555 24.1755C90.9643 23.762 93.8217 21.717 94.945 20.2891L95.9083 19.0644C96.293 18.835 96.7028 18.6038 97.1206 18.3861C97.7621 18.0517 98.3807 17.771 98.9227 17.5786C99.4978 17.3745 99.839 17.3236 99.9735 17.3236C100.4 17.3236 100.707 17.3427 100.919 17.3664Z" fill="context-fill"/>
<path d="M102.304 11.9146C102.497 11.8364 102.827 11.6397 103 11.3553C102.648 8.80264 101.49 6.50581 99.7899 4.72766C99.6815 4.72329 99.5769 4.72643 99.4802 4.73491C99.4802 4.64624 99.5192 4.57431 99.5827 4.51631C99.4136 4.34793 99.2395 4.18452 99.0606 4.02633C98.8706 4.00989 98.6693 4 98.4609 4C97.533 4 96.3168 4.62563 95.8247 4.93845C95.3629 5.232 94.0477 6.47614 93.5517 7.24498C93.5517 6.17764 94.45 5.37563 94.8991 5.10804H94.0907C92.4785 5.10804 90.5488 7.1744 89.7854 8.20757C89.3946 8.56586 88.3394 9.81038 87.8705 10.4326C87.797 10.5243 87.7012 10.6543 87.5799 10.8188C86.9275 11.7042 85.5375 13.5905 82.9122 15.8871C82.6371 16.0996 81.8964 16.4818 80.763 16.4818C79.9405 16.4818 79.5129 16.1058 79.3212 15.7632C79.8372 17.9426 80.9502 19.8927 82.479 21.433C83.2029 21.787 84.0632 22 85.0808 22C89.5986 22 92.3528 19.9347 93.1651 18.902C93.0343 18.934 92.7386 18.9653 92.6027 18.8342C92.4668 18.703 92.5461 18.5986 92.6027 18.5628C94.079 17.4284 97.9208 15.0736 99.9735 15.0736C102.026 15.0736 102.359 15.4535 102.456 15.6005C102.456 13.3663 99.8864 12.8907 98.6015 12.9322C98.6015 12.1543 100.921 11.6432 102.081 11.4849L102.103 11.4819L102.138 11.4767C102.235 11.4624 102.296 11.4533 102.349 11.4849C102.497 11.5743 102.394 11.8128 102.304 11.9146Z" fill="context-fill"/>
<path d="M115.5 8C115.224 8 115 8.22386 115 8.5V20.5C115 20.7761 115.224 21 115.5 21H118.5C118.776 21 119 20.7761 119 20.5V8.5C119 8.22386 118.776 8 118.5 8H115.5Z" fill="context-fill"/>
<path fill-rule="evenodd" clip-rule="evenodd" d="M105 4C105 2.34315 106.343 1 108 1H126C127.657 1 129 2.34315 129 4V22C129 23.6569 127.657 25 126 25H108C106.343 25 105 23.6569 105 22V4ZM110 5C110 5.55228 109.552 6 109 6C108.448 6 108 5.55228 108 5C108 4.44772 108.448 4 109 4C109.552 4 110 4.44772 110 5ZM126 5C126 5.55228 125.552 6 125 6C124.448 6 124 5.55228 124 5C124 4.44772 124.448 4 125 4C125.552 4 126 4.44772 126 5ZM125 22C125.552 22 126 21.5523 126 21C126 20.4477 125.552 20 125 20C124.448 20 124 20.4477 124 21C124 21.5523 124.448 22 125 22ZM110 21C110 21.5523 109.552 22 109 22C108.448 22 108 21.5523 108 21C108 20.4477 108.448 20 109 20C109.552 20 110 20.4477 110 21ZM120.5 5C121.328 5 122 5.67157 122 6.5V16C122 16.5523 121.552 17 121 17C120.448 17 120 17.4477 120 18V20.5C120 21.3284 119.328 22 118.5 22H115.5C114.672 22 114 21.3284 114 20.5V18C114 17.4477 113.552 17 113 17C112.448 17 112 16.5523 112 16V6.5C112 5.67157 112.672 5 113.5 5H120.5Z" fill="context-fill"/>
<path d="M136.48 5.10511L144.466 13L136.48 21.0528C136.328 21.1952 136.207 21.3666 136.125 21.5566C136.042 21.7466 136 21.9513 136 22.1581C136 22.3649 136.042 22.5695 136.125 22.7596C136.207 22.9496 136.328 23.121 136.48 23.2634L137.756 24.5265C137.9 24.6762 138.074 24.7953 138.266 24.8767C138.458 24.958 138.664 25 138.873 25C139.082 25 139.289 24.958 139.481 24.8767C139.673 24.7953 139.846 24.6762 139.99 24.5265L150.521 14.1053C150.673 13.9627 150.793 13.7912 150.875 13.6012C150.958 13.4112 151 13.2067 151 13C151 12.7933 150.958 12.5888 150.875 12.3988C150.793 12.2088 150.673 12.0373 150.521 11.8947L139.99 1.47346C139.846 1.32384 139.673 1.20473 139.481 1.12335C139.289 1.04196 139.082 1 138.873 1C138.664 1 138.458 1.04196 138.266 1.12335C138.074 1.20473 137.9 1.32384 137.756 1.47346L136.48 2.89454C136.329 3.03713 136.208 3.20862 136.126 3.39861C136.044 3.5886 136.001 3.79314 136.001 3.99982C136.001 4.20651 136.044 4.41104 136.126 4.60103C136.208 4.79102 136.329 4.96251 136.48 5.10511Z" fill="context-fill"/>
<path d="M176.895 5.47989L169.704 12.7536C169.315 13.1467 168.681 13.1499 168.289 12.7606L160.947 5.47989C160.805 5.32829 160.633 5.20756 160.443 5.12505C160.253 5.04255 160.049 5 159.842 5C159.635 5 159.43 5.04255 159.24 5.12505C159.05 5.20756 158.879 5.32829 158.737 5.47989L157.473 6.75641C157.324 6.90051 157.205 7.07381 157.123 7.2658C157.042 7.4578 157 7.66449 157 7.87336C157 8.08222 157.042 8.28892 157.123 8.48091C157.205 8.67291 157.324 8.8462 157.473 8.99031L167.895 19.5215C168.037 19.6727 168.209 19.7931 168.399 19.8754C168.589 19.9576 168.793 20 169 20C169.207 20 169.411 19.9576 169.601 19.8754C169.791 19.7931 169.963 19.6727 170.105 19.5215L180.527 8.99031C180.676 8.8462 180.795 8.67291 180.877 8.48091C180.958 8.28892 181 8.08222 181 7.87336C181 7.66449 180.958 7.4578 180.877 7.2658C180.795 7.07381 180.676 6.90051 180.527 6.75641L179.105 5.47989C178.963 5.3287 178.791 5.20833 178.601 5.12609C178.411 5.04385 178.207 5.00144 178 5.00144C177.793 5.00144 177.589 5.04385 177.399 5.12609C177.209 5.20833 177.037 5.3287 176.895 5.47989Z" fill="context-fill"/>
</svg>
