<svg width="404" height="69" viewBox="0 0 404 69" fill="none" xmlns="http://www.w3.org/2000/svg">
<g clip-path="url(#clip0_669_124)">
<g filter="url(#filter0_di_669_124)">
<path d="M17.8916 47.7249C21.1446 47.7249 24.1854 46.4881 27.0849 44.0145L30.7622 49.8347C26.5898 53.3267 22.2054 55 17.1137 55C6.71818 55 0 47.4339 0 35.7209C0 29.0278 1.34364 24.5899 4.52593 20.9524C7.49607 17.5331 11.1027 15.9325 15.9115 15.9325C20.0838 15.9325 24.044 17.3876 26.3777 19.8611C29.7014 23.3532 31.1865 28.373 31.1865 36.1574C31.1865 36.9577 31.1865 37.2487 31.1865 38.4127H10.2541V38.7037C10.2541 44.4511 13.0121 47.7249 17.8916 47.7249ZM10.3955 31.1376V31.2831H21.3567V30.8466C21.3567 28.082 21.0739 26.627 20.2253 25.2447C19.3059 23.7897 17.9623 23.0622 16.0529 23.0622C12.4463 23.0622 10.3955 25.9722 10.3955 31.1376Z" fill="white"/>
<path d="M56.4327 17.2421C57.7764 17.9696 58.4128 18.4788 59.9686 19.8611L55.3719 26.2632C53.4626 24.4444 51.4118 23.3532 49.6438 23.3532C45.4008 23.3532 43.4914 27.1362 43.4914 35.8664C43.4914 40.7407 44.0571 43.6508 45.33 45.2513C46.3201 46.5608 47.9466 47.3611 49.5731 47.3611C51.7653 47.3611 53.7454 46.4153 56.0791 44.3056L56.6449 43.7963L60.9586 49.6892C59.5443 51.1442 58.9078 51.6534 57.6349 52.4537C55.0891 53.9815 52.2604 54.7817 48.7952 54.7817C38.824 54.7817 33.0252 47.6521 33.0252 35.5754C33.0252 26.9907 36.2075 21.3161 40.4505 18.3333C42.8549 16.6601 46.3908 15.5688 49.4317 15.5688C51.8361 15.5688 54.3819 16.2235 56.4327 17.2421Z" fill="white"/>
<path d="M62.494 10.84C62.494 7.34788 62.2111 3.85582 61.7868 2.32804L71.4751 0C71.8994 2.03704 72.1116 5.5291 72.1116 9.09391V16.5146C72.1116 17.6786 71.9702 19.2064 71.9702 19.6429C74.4453 17.2421 78.5469 15.6415 82.2242 15.6415C86.6794 15.6415 90.4982 17.8241 91.6297 20.9524C92.3368 23.0622 92.549 23.6442 92.549 27.8638V53.9087H83.285V28.8823C83.285 25.172 82.2949 23.7897 79.6077 23.7897C77.274 23.7897 74.2331 25.2447 72.1116 27.209V53.9087H62.494V10.84Z" fill="white"/>
<path d="M114.239 47.7249C117.492 47.7249 120.533 46.4881 123.432 44.0145L127.109 49.8347C122.937 53.3267 118.553 55 113.461 55C103.065 55 96.3473 47.4339 96.3473 35.7209C96.3473 29.0278 97.6909 24.5899 100.873 20.9524C103.843 17.5331 107.45 15.9325 112.259 15.9325C116.431 15.9325 120.391 17.3876 122.725 19.8611C126.049 23.3532 127.534 28.373 127.534 36.1574C127.534 36.9577 127.534 37.2487 127.534 38.4127H106.601V38.7037C106.601 44.4511 109.359 47.7249 114.239 47.7249ZM106.743 31.1376V31.2831H117.704V30.8466C117.704 28.082 117.421 26.627 116.573 25.2447C115.653 23.7897 114.31 23.0622 112.4 23.0622C108.794 23.0622 106.743 25.9722 106.743 31.1376Z" fill="white"/>
<path d="M130.716 2.32804L140.404 0.0727547C140.758 2.10979 140.899 4.51058 140.899 9.74868V38.7765C140.899 45.1786 140.97 46.0516 141.536 47.0701C141.889 47.7249 142.667 48.0886 143.445 48.0886C143.799 48.0886 144.011 48.0886 144.506 47.9431L146.133 53.7632C144.506 54.418 142.526 54.7817 140.475 54.7817C136.444 54.7817 133.191 52.8175 132.06 49.6892C131.353 47.7976 131.211 46.6336 131.211 41.3228V13.5318C131.211 8.65741 131.07 5.6746 130.716 2.32804Z" fill="white"/>
<path d="M144.97 35.4299C144.97 23.7169 151.476 15.9325 161.235 15.9325C166.397 15.9325 170.428 17.7513 173.54 21.5344C176.439 25.0265 177.712 29.1005 177.712 35.1389C177.712 41.541 176.298 45.9061 173.186 49.5437C170.428 52.7447 166.821 54.709 161.235 54.709C151.405 54.709 144.97 47.1429 144.97 35.4299ZM165.478 25.0992C164.558 23.8624 163.073 23.1349 161.376 23.1349C159.113 23.1349 157.274 24.59 156.497 26.918C155.86 28.8823 155.507 31.5013 155.507 35.2116C155.507 39.504 155.931 42.705 156.709 44.5966C157.557 46.6336 159.679 47.6521 161.518 47.6521C165.619 47.6521 167.387 43.869 167.387 35.0661C167.387 30.0463 166.751 26.7725 165.478 25.0992Z" fill="white"/>
<path d="M181.43 26.918C181.43 23.7169 181.006 20.6614 180.157 18.1878L188.573 15.7143C189.421 17.2421 189.916 18.8426 189.916 20.3704C192.108 18.7698 192.533 18.4788 194.089 17.6058C195.998 16.5873 198.473 16.0053 200.595 16.0053C204.625 16.0053 208.161 18.1878 209.293 21.3889C209.788 22.7712 210 24.3717 210 26.6997V53.9087H200.665V29.6825C200.665 25.463 199.958 24.2262 197.483 24.2262C195.574 24.2262 193.098 25.5357 190.906 27.5728V53.9087H181.43V26.918Z" fill="white"/>
</g>
<g filter="url(#filter1_d_669_124)">
<path d="M248.482 53.8392H242.638V28.9164C242.638 26.4019 242.342 24.6024 241.75 23.5177C240.961 21.9893 239.457 21.2251 237.237 21.2251C235.61 21.2251 233.76 21.7921 231.689 22.926C229.815 23.9121 228.261 25.0707 227.028 26.4019V53.8392H221.406V26.4019C221.406 22.6549 220.937 19.746 220 17.6752L225.622 16.1222C226.51 18.045 226.954 19.9678 226.954 21.8907C230.752 18.0943 234.623 16.1961 238.569 16.1961C240.492 16.1961 242.292 16.6892 243.969 17.6752C245.646 18.612 246.855 19.9185 247.594 21.5949C248.186 22.926 248.482 24.3558 248.482 25.8842V53.8392Z" fill="white"/>
<path d="M264.693 5.62058C264.693 6.90247 264.249 7.98714 263.362 8.8746C262.523 9.71276 261.463 10.1318 260.181 10.1318C258.948 10.1318 257.887 9.71276 257 8.8746C256.112 7.98714 255.668 6.92712 255.668 5.69454C255.668 4.41265 256.087 3.32797 256.926 2.44051C257.813 1.55305 258.898 1.10932 260.181 1.10932C261.463 1.10932 262.523 1.55305 263.362 2.44051C264.249 3.27867 264.693 4.33869 264.693 5.62058ZM263.214 53.8392H257.073V17.1576L263.214 16.1961V53.8392Z" fill="white"/>
<path d="M303.904 20.2637C301.833 21.7428 299.761 22.4823 297.69 22.4823C296.802 22.4823 295.964 22.3344 295.175 22.0386C296.654 23.8628 297.394 25.9582 297.394 28.3248C297.394 31.7267 296.309 34.537 294.139 36.7556C291.969 38.9743 289.207 40.0836 285.853 40.0836H285.039L284.226 40.3794C280.329 41.8092 278.381 43.1404 278.381 44.373C278.381 45.5563 279.368 46.1479 281.34 46.1479H287.259C291.204 46.1479 294.164 46.8382 296.136 48.2187C298.849 50.0922 300.205 52.6806 300.205 55.9839C300.205 63.7245 295.323 67.5949 285.557 67.5949C274.904 67.5949 269.578 64.4641 269.578 58.2026C269.578 57.0193 269.824 55.7128 270.318 54.283L276.384 53.7653L276.088 54.3569C275.595 55.343 275.348 56.2551 275.348 57.0933C275.348 61.0868 278.554 63.0836 284.965 63.0836C290.933 63.0836 293.917 60.9389 293.917 56.6495C293.917 54.1844 292.931 52.5327 290.958 51.6945C289.626 51.1029 287.53 50.8071 284.67 50.8071C284.028 50.8071 283.067 50.8317 281.784 50.881C280.551 50.9303 279.614 50.955 278.973 50.955C274.337 50.955 272.019 49.1801 272.019 45.6302C272.019 42.9185 274.09 40.8725 278.233 39.492L278.677 39.3441C276.261 38.5552 274.263 37.1994 272.685 35.2765C271.156 33.3537 270.392 31.1597 270.392 28.6945C270.392 24.8489 271.723 21.7921 274.386 19.5241C276.902 17.3548 280.107 16.2701 284.004 16.2701C285.878 16.2701 287.653 16.5413 289.33 17.0836L291.846 17.8971C292.783 18.1929 293.917 18.3408 295.249 18.3408C297.024 18.3408 298.726 17.7985 300.353 16.7138L303.904 20.2637ZM290.662 28.3987C290.662 23.567 288.393 21.1511 283.856 21.1511C279.22 21.1511 276.902 23.6409 276.902 28.6206C276.902 33.403 279.269 35.7942 284.004 35.7942C288.442 35.7942 290.662 33.329 290.662 28.3987Z" fill="white"/>
<path d="M334.057 53.8392H328.36V28.3987C328.36 26.0815 327.99 24.4051 327.25 23.3698C326.363 22.0879 324.834 21.4469 322.664 21.4469C318.866 21.4469 315.29 23.5177 311.937 27.6592V53.8392H306.166V8.43087C306.166 5.76849 305.846 3.32797 305.205 1.10932L310.975 0C311.616 2.36656 311.937 5.2015 311.937 8.50482V17.0836C311.937 18.5134 311.863 20.1897 311.715 22.1125C312.75 21.1265 313.983 20.1651 315.414 19.2283C318.422 17.2562 321.283 16.2701 323.995 16.2701C326.511 16.2701 328.656 16.8864 330.432 18.119C332.355 19.4995 333.489 21.373 333.835 23.7396C333.983 24.7256 334.057 25.9582 334.057 27.4373V53.8392Z" fill="white"/>
<path d="M358.185 16.9357L356.41 21.4469H348.642V45.1125C348.642 47.0354 348.938 48.3912 349.53 49.1801C350.22 50.1168 351.503 50.5852 353.377 50.5852C354.856 50.5852 356.089 50.3387 357.076 49.8457L357.889 53.5434C356.015 54.5295 353.845 55.0225 351.379 55.0225C345.806 55.0225 343.02 52.2369 343.02 46.6656V21.4469H338.211V16.9357H343.02V16.492C343.02 15.851 343.192 13.2872 343.537 8.80064L343.611 7.83923L349.604 6.50804C349.111 10.4523 348.864 13.9282 348.864 16.9357H358.185Z" fill="white"/>
<path d="M372.483 53.7653C371.299 54.3076 370.066 54.5788 368.784 54.5788C364.691 54.5788 362.644 52.3108 362.644 47.7749V11.463C362.644 6.6806 362.299 3.27867 361.608 1.25724L367.6 0.073954C368.192 1.79957 368.488 5.59593 368.488 11.463V46.4437C368.488 47.7256 368.562 48.5638 368.71 48.9582C369.006 49.7471 369.623 50.1415 370.56 50.1415C370.708 50.1415 370.954 50.0922 371.299 49.9936L372.483 53.7653Z" fill="white"/>
<path d="M404 17.0836L391.35 55.1704C390.117 58.9668 388.736 61.851 387.207 63.8232C385.185 66.5348 382.595 68.2605 379.439 69L377.737 65.0804C381.732 64.3408 384.568 60.5691 386.245 53.7653L383.878 54.135C383.187 50.4373 381.954 46.0247 380.179 40.8971L372.263 17.8232L377.959 15.9003L385.505 39.7878C386.196 42.0064 386.935 45.0632 387.725 48.9582H387.872L390.166 41.1929L397.416 17.0836H404Z" fill="white"/>
</g>
</g>
<defs>
<filter id="filter0_di_669_124" x="-1" y="0" width="212" height="57" filterUnits="userSpaceOnUse" color-interpolation-filters="sRGB">
<feFlood flood-opacity="0" result="BackgroundImageFix"/>
<feColorMatrix in="SourceAlpha" type="matrix" values="0 0 0 0 0 0 0 0 0 0 0 0 0 0 0 0 0 0 127 0" result="hardAlpha"/>
<feOffset dy="1"/>
<feGaussianBlur stdDeviation="0.5"/>
<feComposite in2="hardAlpha" operator="out"/>
<feColorMatrix type="matrix" values="0 0 0 0 0 0 0 0 0 0 0 0 0 0 0 0 0 0 0.5 0"/>
<feBlend mode="normal" in2="BackgroundImageFix" result="effect1_dropShadow_669_124"/>
<feBlend mode="normal" in="SourceGraphic" in2="effect1_dropShadow_669_124" result="shape"/>
<feColorMatrix in="SourceAlpha" type="matrix" values="0 0 0 0 0 0 0 0 0 0 0 0 0 0 0 0 0 0 127 0" result="hardAlpha"/>
<feOffset dy="1"/>
<feComposite in2="hardAlpha" operator="arithmetic" k2="-1" k3="1"/>
<feColorMatrix type="matrix" values="0 0 0 0 1 0 0 0 0 1 0 0 0 0 1 0 0 0 0.5 0"/>
<feBlend mode="normal" in2="shape" result="effect2_innerShadow_669_124"/>
</filter>
<filter id="filter1_d_669_124" x="219" y="0" width="186" height="71" filterUnits="userSpaceOnUse" color-interpolation-filters="sRGB">
<feFlood flood-opacity="0" result="BackgroundImageFix"/>
<feColorMatrix in="SourceAlpha" type="matrix" values="0 0 0 0 0 0 0 0 0 0 0 0 0 0 0 0 0 0 127 0" result="hardAlpha"/>
<feOffset dy="1"/>
<feGaussianBlur stdDeviation="0.5"/>
<feComposite in2="hardAlpha" operator="out"/>
<feColorMatrix type="matrix" values="0 0 0 0 0 0 0 0 0 0 0 0 0 0 0 0 0 0 0.5 0"/>
<feBlend mode="normal" in2="BackgroundImageFix" result="effect1_dropShadow_669_124"/>
<feBlend mode="normal" in="SourceGraphic" in2="effect1_dropShadow_669_124" result="shape"/>
</filter>
<clipPath id="clip0_669_124">
<rect width="404" height="69" fill="white"/>
</clipPath>
</defs>
</svg>
