<svg width="24" height="24" viewBox="0 0 24 24" fill="none" xmlns="http://www.w3.org/2000/svg">
<path fill-rule="evenodd" clip-rule="evenodd" d="M14.2564 3.01708C14.2572 3.03471 14.4276 3.1352 14.6351 3.24042C16.0664 3.96618 17.1882 5.58047 17.6893 7.63548C17.7546 7.90333 17.833 8.31037 17.8635 8.53997C17.9215 8.97684 17.9394 9.84349 17.8904 9.84349C17.8748 9.84349 17.8356 9.72763 17.8033 9.58604C17.613 8.75291 17.0657 7.69546 16.5234 7.11326C16.2395 6.80838 16.1624 6.77206 16.2477 6.98318C16.4931 7.59061 16.7237 8.41089 16.8298 9.05327C16.8889 9.41098 16.9087 9.68009 16.9097 10.1397C16.9114 10.8483 16.8538 11.2491 16.6652 11.8416C16.1614 13.424 14.8894 14.5599 13.1703 14.9622C12.8861 15.0288 12.7147 15.0424 12.1587 15.0428C11.583 15.0433 11.4458 15.0319 11.1779 14.9612C10.5908 14.8061 10.1028 14.5509 9.72786 14.2027L9.58694 14.0718L9.74548 14.1036C10.1457 14.1838 10.901 14.1064 11.3853 13.9356C11.7321 13.8132 11.9885 13.6751 12.4176 13.3796C12.8844 13.0582 13.0903 12.9646 13.4265 12.9211C13.6525 12.8919 13.7208 12.8679 13.7733 12.7997C13.9132 12.6182 13.7445 12.2691 13.4 12.0273C13.1151 11.8274 12.8661 11.7544 12.4758 11.7567C12.1862 11.7584 12.1085 11.7764 11.5774 11.9653C10.74 12.2632 10.3652 12.3026 9.80082 12.1523C9.17365 11.9852 8.68614 11.451 8.62889 10.8682C8.57738 10.3438 8.89551 10.0384 9.38532 10.1419C9.72247 10.2132 9.71719 10.2149 9.79128 10.0101C9.84592 9.85911 9.8548 9.76355 9.8394 9.49174C9.82901 9.30845 9.81115 9.12517 9.7997 9.08444C9.78289 9.02472 9.82978 8.97096 10.042 8.80674C10.1867 8.69474 10.4985 8.48646 10.735 8.34391C11.4427 7.91718 11.6972 7.60941 11.6996 7.17757C11.7008 6.97659 11.6989 6.97296 11.5598 6.89987C11.439 6.83637 11.3384 6.82467 10.8552 6.81764C10.2216 6.80846 9.94456 6.76565 9.71141 6.64091C9.51461 6.53561 9.41787 6.42919 9.32888 6.22025C9.26603 6.07259 9.26423 6.04093 9.30774 5.84502C9.44472 5.2279 9.84764 4.64573 10.3421 4.35056C10.5308 4.23788 10.4822 4.21537 10.0509 4.21571C9.30309 4.2163 8.52443 4.58205 8.10762 5.12841C8.03241 5.22705 7.96875 5.31166 7.96618 5.31643C7.96364 5.32125 7.82786 5.30044 7.66446 5.27022C7.30808 5.20428 6.63088 5.19861 6.28499 5.25863L6.03447 5.30214L5.81509 5.05876C5.41139 4.61093 5.1503 4.03068 5.10629 3.4835L5.0842 3.20906L4.99278 3.32966C4.69065 3.7281 4.58119 3.90213 4.42403 4.23396C4.17967 4.74985 4.10442 5.08402 4.10368 5.65667L4.10308 6.11672L3.9078 6.52591C3.51375 7.35167 3.24195 8.21991 3.08176 9.16468C3.012 9.57586 3.00101 9.76699 3.00002 10.584C2.99932 11.1871 3.01566 11.6419 3.04529 11.8429C3.35581 13.9486 4.17801 15.7013 5.55287 17.1885C6.95517 18.7053 8.60546 19.6031 10.5734 19.9199C10.9609 19.9823 11.229 19.9994 11.8241 20C13.4519 20.0015 14.7955 19.6869 16.1398 18.9896C17.0319 18.5268 17.7087 18.0211 18.3951 17.3043C19.7414 15.8986 20.577 14.17 20.9197 12.0814C20.9877 11.667 20.9985 11.4646 20.9999 10.584C21.0016 9.52739 20.983 9.30194 20.8253 8.47313C20.4581 6.54175 19.5778 4.87182 18.5584 4.17238C18.2258 3.94423 18.1599 3.94145 18.3204 4.16242C18.6151 4.56805 18.9562 5.39871 19.1023 6.06678C19.1969 6.49895 19.2564 7.30391 19.1817 7.14055C18.7952 6.29542 18.6248 5.99309 18.2489 5.48598C17.4173 4.36392 16.1323 3.44189 14.9419 3.11305C14.6103 3.02145 14.2543 2.97161 14.2564 3.01708Z" fill="#FBFBFB"/>
</svg>
