<svg width="24" height="24" viewBox="0 0 24 24" fill="none" xmlns="http://www.w3.org/2000/svg">
<g clip-path="url(#clip0_261_95)">
<path d="M8.25 3.9H8.24205L8.2342 3.90126C7.50884 4.01731 6.06667 4.73496 6.06667 6.66667C6.06667 7.57042 5.71882 8.12405 5.29289 8.45431C4.86236 8.78813 4.34353 8.9 4 8.9C3.39249 8.9 2.9 9.39249 2.9 10V19C2.9 20.1598 3.8402 21.1 5 21.1H19C20.1598 21.1 21.1 20.1598 21.1 19V10C21.1 9.39249 20.6075 8.9 20 8.9C19.6565 8.9 19.1376 8.78813 18.7071 8.45431C18.2812 8.12405 17.9333 7.57042 17.9333 6.66667C17.9333 4.73496 16.4912 4.01731 15.7658 3.90126L15.7579 3.9H15.75H8.25Z" fill="#FBFBFB" stroke="black" stroke-width="0.2"/>
</g>
<defs>
<clipPath id="clip0_261_95">
<rect width="18" height="18" fill="white" transform="translate(3 3)"/>
</clipPath>
</defs>
</svg>
