<svg width="24" height="24" viewBox="0 0 24 24" fill="none" xmlns="http://www.w3.org/2000/svg">
<path d="M16.7689 3.53543L16.8189 3.44883L16.7323 3.39883L14.1595 1.9134L14.0729 1.8634L14.0229 1.95L12.6637 4.30408C12.4548 4.28595 12.2434 4.27669 12.0299 4.27669C11.7836 4.27669 11.5402 4.289 11.3002 4.31305L9.93592 1.95L9.88592 1.8634L9.79932 1.9134L7.22648 3.39883L7.13987 3.44883L7.18988 3.53543L8.23749 5.34991C7.41308 5.85876 6.69861 6.52858 6.13785 7.31553L4.53543 6.39036L4.44883 6.34036L4.39883 6.42697L2.9134 8.99978L2.8634 9.08638L2.95 9.13638L4.90592 10.2656C4.83614 10.669 4.79979 11.0836 4.79979 11.5068C4.79979 11.9815 4.84555 12.4456 4.93294 12.8949L3.09139 13.3884L2.9948 13.4143L3.02068 13.5109L3.78959 16.3805L3.81547 16.4771L3.91207 16.4512L6.23354 15.8291C6.79638 16.5827 7.50274 17.2228 8.31216 17.709L7.18988 19.6529L7.13988 19.7395L7.22648 19.7895L9.79932 21.2749L9.88592 21.3249L9.93592 21.2383L11.396 18.7094C11.6049 18.7276 11.8163 18.7368 12.0299 18.7368C12.2106 18.7368 12.3898 18.7302 12.5673 18.7171L14.0229 21.2383L14.0729 21.3249L14.1595 21.2749L16.7323 19.7895L16.8189 19.7395L16.7689 19.6529L15.6723 17.7536C16.5084 17.265 17.2376 16.6135 17.8162 15.8425L20.0879 16.4512L20.1845 16.4771L20.2104 16.3805L20.9793 13.5109L21.0052 13.4143L20.9086 13.3884L19.1238 12.9102C19.2131 12.4561 19.2599 11.9868 19.2599 11.5068C19.2599 11.0727 19.2217 10.6474 19.1483 10.2343L21.05 9.13638L21.1366 9.08638L21.0866 8.99978L19.6012 6.42697L19.5512 6.34036L19.4646 6.39036L17.9044 7.29114C17.3293 6.49114 16.5949 5.81348 15.7475 5.30449L16.7689 3.53543ZM14.9007 11.5068C14.9007 13.0923 13.6154 14.3776 12.0299 14.3776C10.4443 14.3776 9.159 13.0923 9.159 11.5068C9.159 9.9212 10.4443 8.6359 12.0299 8.6359C13.6154 8.6359 14.9007 9.9212 14.9007 11.5068Z" fill="#FBFBFB" stroke="black" stroke-width="0.2"/>
</svg>
