<svg width="24" height="24" viewBox="0 0 24 24" fill="none" xmlns="http://www.w3.org/2000/svg">
<path d="M16.0178 3.99051L16.2345 3.90783L16.0256 3.80702C14.8214 3.22585 13.4699 2.9 12.0421 2.9C6.9935 2.9 2.9 6.97377 2.9 12C2.9 12.6384 2.96605 13.2615 3.09176 13.8629L3.11583 13.9781L3.22564 13.9357L4.75798 13.3445L4.86555 13.3029L4.80924 13.2023C4.76711 13.1271 4.71286 13.0569 4.64812 12.997C4.73269 12.9823 4.80216 12.9633 4.85646 12.945C4.89595 12.9316 4.9258 12.9192 4.94647 12.9097L4.95994 12.9035L4.97105 12.8937C6.75065 11.3221 7.6902 10.0472 8.14384 9.43154L8.14384 9.43153L8.1624 9.40634L8.1624 9.40634C8.2354 9.30725 8.31709 9.19638 8.38918 9.10524L8.38919 9.10525L8.39044 9.10361C8.72752 8.6589 9.45025 7.79353 9.8819 7.35996L9.88249 7.36054L9.89035 7.3503C10.2453 6.88791 10.7978 6.26817 11.444 5.73281C12.0755 5.20955 13.1166 4.49353 14.318 4.49353H14.9355H14.9621L14.9852 4.48031C15.2302 4.34001 15.5421 4.18199 15.8818 4.04408C15.9251 4.02651 15.9705 4.00857 16.0178 3.99051ZM20.4029 11.1197L20.5155 11.2786C20.6698 11.216 20.9403 11.0577 21.0855 10.8183L21.1039 10.788L21.0991 10.7528C20.8325 8.81677 19.9541 7.07492 18.6647 5.72663L18.6368 5.69745L18.5964 5.69583C18.5716 5.69483 18.5471 5.69432 18.5229 5.69428L18.582 5.6404L18.5076 5.56637C18.3794 5.43869 18.2474 5.31479 18.1117 5.19484L18.087 5.17297L18.0541 5.17012C17.909 5.15756 17.7551 5.15 17.5957 5.15C17.2285 5.15 16.8123 5.27294 16.4469 5.42128C16.0798 5.57032 15.7542 5.74912 15.5649 5.86944C15.3819 5.98574 15.0423 6.28075 14.7055 6.61403C14.4804 6.83678 14.2515 7.0816 14.067 7.30832C14.1294 7.08841 14.2412 6.88957 14.3722 6.71817C14.5745 6.45349 14.8172 6.26125 14.9755 6.16694L15.2876 5.98103H14.9243H14.318C13.6762 5.98103 12.9885 6.38898 12.401 6.87577C11.813 7.36298 11.3054 7.94597 11.0143 8.33859C10.7092 8.62155 9.92424 9.54843 9.57392 10.0131C9.51764 10.0833 9.44515 10.1817 9.35594 10.3028L9.35444 10.3048L9.35417 10.3052C8.86681 10.9666 7.82995 12.3737 5.87067 14.088C5.6801 14.2341 5.14716 14.5113 4.32226 14.5113C3.74147 14.5113 3.45424 14.2489 3.32814 14.0235L3.14357 14.0954C3.53495 15.7484 4.37906 17.2272 5.53825 18.3952L5.55013 18.4072L5.56529 18.4146C6.12264 18.6871 6.78301 18.85 7.5606 18.85C10.9785 18.85 13.0735 17.2878 13.7024 16.4883L13.8817 16.2604L13.6 16.3294C13.5584 16.3396 13.488 16.35 13.4186 16.3471C13.3452 16.3439 13.2954 16.3268 13.2715 16.3037C13.2541 16.2869 13.2484 16.2756 13.2467 16.271C13.246 16.2692 13.2458 16.2681 13.2458 16.2676C13.2459 16.2672 13.2465 16.2657 13.2484 16.2632C13.2509 16.2601 13.2539 16.2576 13.2555 16.2566L13.2557 16.257L13.263 16.2514C13.8117 15.8298 14.8038 15.1786 15.8502 14.6333C16.3731 14.3607 16.9078 14.1155 17.406 13.9387C17.9057 13.7614 18.3619 13.6552 18.7301 13.6552C19.4953 13.6552 19.9307 13.7262 20.1803 13.8066C20.425 13.8854 20.486 13.9714 20.5088 14.0057L20.6921 14.2816V13.9504C20.6921 13.0637 20.1778 12.5262 19.552 12.2199C18.9832 11.9415 18.3147 11.8488 17.8279 11.8473C17.8623 11.7804 17.9312 11.7084 18.0427 11.6328C18.2085 11.5204 18.4433 11.4175 18.7118 11.3269C19.2475 11.146 19.8932 11.0216 20.3245 10.9628L20.3248 10.9627L20.3411 10.9604L20.3417 10.9604L20.368 10.9565L20.3682 10.9565C20.407 10.9507 20.4286 10.9477 20.4453 10.9477C20.4475 10.9477 20.4493 10.9477 20.4509 10.9478C20.4546 10.948 20.4568 10.9484 20.458 10.9487C20.4586 10.9488 20.459 10.9489 20.4593 10.949C20.4597 10.9492 20.4598 10.9493 20.46 10.9494C20.4601 10.9494 20.4601 10.9494 20.4602 10.9495C20.4619 10.9502 20.4739 10.9556 20.4642 10.9996C20.4543 11.044 20.4267 11.0929 20.4029 11.1197ZM19.5227 15.2195L19.4969 15.1806L19.4505 15.1754C19.2866 15.1571 19.0532 15.1427 18.7301 15.1427C18.6125 15.1427 18.3441 15.1851 17.9086 15.3397C17.4964 15.486 17.028 15.6988 16.5442 15.9509C16.229 16.1152 15.9199 16.2895 15.63 16.4625L15.6141 16.4719L15.6026 16.4865L14.8801 17.405C14.0556 18.4532 11.938 19.9744 8.73208 20.2821L8.70526 20.4748C9.73916 20.8784 10.8648 21.1 12.0421 21.1C15.5546 21.1 18.6044 19.1282 20.1353 16.2361L20.1632 16.1836L20.1303 16.134L19.5227 15.2195Z" fill="#FBFBFB" stroke="black" stroke-width="0.2"/>
</svg>
