<?xml version="1.0" encoding="UTF-8"?>
<!DOCTYPE svg PUBLIC "-//W3C//DTD SVG 1.1//EN" "http://www.w3.org/Graphics/SVG/1.1/DTD/svg11.dtd">

<svg version="1.1" xmlns="http://www.w3.org/2000/svg" xmlns:svg="http://www.w3.org/2000/svg" height="0">

<defs>
	<svg:clipPath id="tab-curve-clip-path-start" clipPathUnits="objectBoundingBox">
		<svg:path d="m 1,0.0625 0.05,0 0,0.938 -1,0 0,-0.028 C 0.32082458,0.95840561 0.4353096,0.81970962 0.48499998,0.5625 0.51819998,0.3905 0.535,0.0659 1,0.0625 z"/>
	</svg:clipPath>

	<svg:clipPath id="tab-curve-clip-path-end" clipPathUnits="objectBoundingBox">
		<svg:path d="m 0,0.0625 -0.05,0 0,0.938 1,0 0,-0.028 C 0.67917542,0.95840561 0.56569036,0.81970962 0.51599998,0.5625 0.48279998,0.3905 0.465,0.0659 0,0.0625 z"/>
	</svg:clipPath>

	<svg:clipPath id="urlbar-back-button-clip-path">
		<svg:path d="M -9,-4 l 0,1 a 15 15 0 0,1 0,30 l 0,1 l 10000,0 l 0,-32 l -10000,0 z"/>
	</svg:clipPath>

	<svg:clipPath id="urlbar-back-button-clip-path-win10">
		<svg:path d="M -6,-2 l 0,1 a 15 15 0 0,1 0,30 l 0,1 l 10000,0 l 0,-32 l -10000,0 z"/>
	</svg:clipPath>
</defs>

</svg>