<svg xmlns="http://www.w3.org/2000/svg" width="16" height="16" viewBox="0 0 16 16">
<path d="M11.5397 0.797405C11.497 0.813696 11.4561 0.829878 11.4171 0.845716C11.111 0.969975 10.8301 1.11225 10.6093 1.23869H10.0605C8.95949 1.23869 8.01317 1.89331 7.44903 2.36072C6.86854 2.84167 6.37295 3.39767 6.05425 3.8128C5.66682 4.20196 5.02175 4.97452 4.72066 5.37174C4.65545 5.45418 4.58189 5.55404 4.51724 5.6418L4.50074 5.66419C4.09915 6.20919 3.26829 7.33676 1.69321 8.72781C1.67751 8.73499 1.65382 8.7449 1.62172 8.75575C1.53023 8.78667 1.38135 8.82118 1.17535 8.82118L1.16485 8.82104L1.16627 8.82131L1.17535 8.82299C1.19504 8.82706 1.24102 8.83921 1.30116 8.87442C1.39795 8.9311 1.47667 9.0157 1.53065 9.11214L0.168569 9.63773C0.0580744 9.10908 0 8.56129 0 8C0 3.58172 3.59848 0 8.03743 0C9.29288 0 10.4811 0.286503 11.5397 0.797405Z" fill="context-fill"/>
<path d="M14.6128 10.9109L15.1528 11.7239C13.8069 14.2665 11.1255 16 8.03743 16C7.00213 16 6.01255 15.8052 5.10367 15.4503C7.97618 15.1747 9.88116 13.8113 10.63 12.8594L11.2722 12.043C11.5286 11.89 11.8019 11.7359 12.0804 11.5907C12.5081 11.3678 12.9205 11.1806 13.2818 11.0524C13.6652 10.9163 13.8927 10.8824 13.9823 10.8824C14.267 10.8824 14.471 10.8951 14.6128 10.9109Z" fill="context-fill"/>
<path d="M15.5359 7.27638C15.6644 7.22425 15.8849 7.09316 16 6.90353C15.7657 5.20176 14.9936 3.67054 13.8599 2.48511C13.7877 2.4822 13.718 2.48429 13.6535 2.48994C13.6535 2.43083 13.6794 2.38288 13.7218 2.34421C13.6091 2.23195 13.493 2.12301 13.3738 2.01755C13.2471 2.00659 13.1129 2 12.9739 2C12.3553 2 11.5445 2.41709 11.2165 2.62563C10.9086 2.82133 10.0318 3.65076 9.70116 4.16332C9.70116 3.45176 10.3 2.91709 10.5994 2.73869H10.0605C8.98568 2.73869 7.69917 4.11626 7.19027 4.80505C6.92974 5.0439 6.2263 5.87358 5.91366 6.28843C5.86466 6.34951 5.8008 6.43617 5.71995 6.54589C5.285 7.13615 4.35836 8.39367 2.60813 9.92476C2.42474 10.0664 1.93094 10.3212 1.17534 10.3212C0.626982 10.3212 0.341958 10.0705 0.214111 9.84211C0.558123 11.2951 1.30013 12.5951 2.31931 13.622C2.80194 13.858 3.3755 14 4.05387 14C7.06575 14 8.90184 12.6231 9.4434 11.9347C9.35618 11.956 9.15908 11.9769 9.06847 11.8894C8.97787 11.802 9.03072 11.7324 9.06847 11.7085C10.0527 10.9523 12.6139 9.38243 13.9823 9.38243C15.3508 9.38243 15.5724 9.63568 15.6375 9.73367C15.6375 8.24422 13.9243 7.92713 13.0677 7.95477C13.0677 7.43618 14.6142 7.09547 15.3875 6.98995L15.402 6.98792L15.4254 6.98449C15.49 6.97491 15.5308 6.96885 15.5658 6.98995C15.6649 7.04951 15.5958 7.20854 15.5359 7.27638Z" fill="context-fill"/>
</svg>
