<!-- This Source Code Form is subject to the terms of the Mozilla Public
   - License, v. 2.0. If a copy of the MPL was not distributed with this
   - file, You can obtain one at http://mozilla.org/MPL/2.0/. -->
<svg xmlns="http://www.w3.org/2000/svg" width="16" height="16" viewBox="0 0 16 16">
	<path fill="context-fill" d="M14.5 9H1.5C1.10218 9 0.720644 8.84196 0.43934 8.56066C0.158035 8.27936 0 7.89782 0 7.5C0 7.10218 0.158035 6.72064 0.43934 6.43934C0.720644 6.15804 1.10218 6 1.5 6H14.5C14.8978 6 15.2794 6.15804 15.5607 6.43934C15.842 6.72064 16 7.10218 16 7.5C16 7.89782 15.842 8.27936 15.5607 8.56066C15.2794 8.84196 14.8978 9 14.5 9ZM14.5 4H1.5C1.10521 3.99036 0.729254 3.82923 0.450012 3.54999C0.170769 3.27075 0.0096395 2.89479 0 2.5C0.0096395 2.10521 0.170769 1.72925 0.450012 1.45001C0.729254 1.17077 1.10521 1.00964 1.5 1H14.5C14.8948 1.00964 15.2707 1.17077 15.55 1.45001C15.8292 1.72925 15.9904 2.10521 16 2.5C15.9904 2.89479 15.8292 3.27075 15.55 3.54999C15.2707 3.82923 14.8948 3.99036 14.5 4ZM1.5 11H14.5C14.8978 11 15.2794 11.158 15.5607 11.4393C15.842 11.7206 16 12.1022 16 12.5C16 12.8978 15.842 13.2794 15.5607 13.5607C15.2794 13.842 14.8978 14 14.5 14H1.5C1.10218 14 0.720644 13.842 0.43934 13.5607C0.158035 13.2794 0 12.8978 0 12.5C0 12.1022 0.158035 11.7206 0.43934 11.4393C0.720644 11.158 1.10218 11 1.5 11Z"/>
</svg>
