<svg width="24" height="24" viewBox="0 0 24 24" fill="none" xmlns="http://www.w3.org/2000/svg">
<path d="M19.5 12L12 5.57143L4.5 12H2L12 3L22 12H19.5ZM18.25 12V21H13.25V14.5714H10.75V21H5.75V12L12 6.85714L18.25 12Z" fill="#F1F1F1"/>
<path d="M19.3373 12.1898L19.4075 12.25H19.5H22H22.6515L22.1672 11.8142L12.1672 2.81418L12 2.66366L11.8328 2.81418L1.83276 11.8142L1.34851 12.25H2H4.5H4.59248L4.6627 12.1898L12 5.9007L19.3373 12.1898ZM18.5 12V11.882L18.4088 11.807L12.1588 6.6641L12 6.53339L11.8412 6.6641L5.59115 11.807L5.5 11.882V12V21V21.25H5.75H10.75H11V21V14.8214H13V21V21.25H13.25H18.25H18.5V21V12Z" stroke="black" stroke-opacity="0.1" stroke-width="0.5"/>
</svg>
