<svg width="18" height="18" viewBox="0 0 18 18" fill="none" xmlns="http://www.w3.org/2000/svg">
<path d="M12.5397 1.7974C12.497 1.8137 12.4561 1.82988 12.4171 1.84572C12.111 1.96998 11.8301 2.11225 11.6093 2.23869H11.0605C9.95949 2.23869 9.01317 2.89331 8.44903 3.36072C7.86854 3.84167 7.37295 4.39767 7.05425 4.8128C6.66682 5.20196 6.02175 5.97452 5.72066 6.37174C5.65545 6.45418 5.58189 6.55404 5.51724 6.6418L5.50074 6.66419C5.09915 7.20919 4.26829 8.33676 2.69321 9.72781C2.67751 9.73499 2.65382 9.7449 2.62172 9.75575C2.53023 9.78667 2.38135 9.82118 2.17535 9.82118L2.16485 9.82104L2.16627 9.82131L2.17535 9.82299C2.19504 9.82706 2.24102 9.83921 2.30116 9.87442C2.39795 9.9311 2.47667 10.0157 2.53065 10.1121L1.16857 10.6377C1.05807 10.1091 1 9.56129 1 9C1 4.58172 4.59848 1 9.03743 1C10.2929 1 11.4811 1.2865 12.5397 1.7974Z" fill="context-fill"/>
<path d="M15.6128 11.9109L16.1528 12.7239C14.8069 15.2665 12.1255 17 9.03743 17C8.00213 17 7.01255 16.8052 6.10367 16.4503C8.97618 16.1747 10.8812 14.8113 11.63 13.8594L12.2722 13.043C12.5286 12.89 12.8019 12.7359 13.0804 12.5907C13.5081 12.3678 13.9205 12.1806 14.2818 12.0524C14.6652 11.9163 14.8927 11.8824 14.9823 11.8824C15.267 11.8824 15.471 11.8951 15.6128 11.9109Z" fill="context-fill"/>
<path d="M16.5359 8.27638C16.6644 8.22425 16.8849 8.09316 17 7.90353C16.7657 6.20176 15.9936 4.67054 14.8599 3.48511C14.7877 3.4822 14.718 3.48429 14.6535 3.48994C14.6535 3.43083 14.6794 3.38288 14.7218 3.34421C14.6091 3.23195 14.493 3.12301 14.3738 3.01755C14.2471 3.00659 14.1129 3 13.9739 3C13.3553 3 12.5445 3.41709 12.2165 3.62563C11.9086 3.82133 11.0318 4.65076 10.7012 5.16332C10.7012 4.45176 11.3 3.91709 11.5994 3.73869H11.0605C9.98568 3.73869 8.69917 5.11626 8.19027 5.80505C7.92974 6.0439 7.2263 6.87358 6.91366 7.28843C6.86466 7.34951 6.8008 7.43617 6.71995 7.54589C6.285 8.13615 5.35836 9.39367 3.60813 10.9248C3.42474 11.0664 2.93094 11.3212 2.17534 11.3212C1.62698 11.3212 1.34196 11.0705 1.21411 10.8421C1.55812 12.2951 2.30013 13.5951 3.31931 14.622C3.80194 14.858 4.3755 15 5.05387 15C8.06575 15 9.90184 13.6231 10.4434 12.9347C10.3562 12.956 10.1591 12.9769 10.0685 12.8894C9.97787 12.802 10.0307 12.7324 10.0685 12.7085C11.0527 11.9523 13.6139 10.3824 14.9823 10.3824C16.3508 10.3824 16.5724 10.6357 16.6375 10.7337C16.6375 9.24422 14.9243 8.92713 14.0677 8.95477C14.0677 8.43618 15.6142 8.09547 16.3875 7.98995L16.402 7.98792L16.4254 7.98449C16.49 7.97491 16.5308 7.96885 16.5658 7.98995C16.6649 8.04951 16.5958 8.20854 16.5359 8.27638Z" fill="context-fill"/>
</svg>
