<svg width="16" height="16" viewBox="0 0 16 16" fill="none" xmlns="http://www.w3.org/2000/svg">
<path d="M8.65477 0.598053C8.62275 0.610272 8.59205 0.622408 8.56279 0.634287C8.33325 0.727481 8.12258 0.83419 7.95698 0.929019H7.54535C6.71962 0.929019 6.00988 1.41999 5.58677 1.77054C5.1514 2.13125 4.77972 2.54826 4.54069 2.8596C4.25011 3.15147 3.76631 3.73089 3.5405 4.0288C3.49159 4.09064 3.43642 4.16553 3.38793 4.23135L3.37556 4.24815C3.07437 4.65689 2.45122 5.50257 1.26991 6.54585C1.25813 6.55124 1.24036 6.55868 1.21629 6.56681C1.14767 6.59001 1.03602 6.61589 0.881509 6.61589L0.873635 6.61578L0.8747 6.61598L0.881509 6.61724C0.89628 6.6203 0.930768 6.62941 0.975868 6.65582C1.04846 6.69832 1.1075 6.76178 1.14798 6.8341L0.126427 7.2283C0.0435558 6.83181 0 6.42097 0 6C0 2.68629 2.69886 0 6.02808 0C6.96966 0 7.86083 0.214877 8.65477 0.598053Z" fill="context-fill"/>
<path d="M11.7577 4.13012C11.4756 3.27351 11.0051 2.50188 10.3949 1.86383C10.3408 1.86165 10.2885 1.86322 10.2401 1.86746C10.2401 1.82312 10.2596 1.78716 10.2914 1.75816C10.2068 1.67396 10.1198 1.59226 10.0303 1.51317C9.93532 1.50494 9.83467 1.5 9.73045 1.5C9.26648 1.5 8.6584 1.81282 8.41236 1.96922C8.18147 2.116 7.52387 2.73807 7.27587 3.12249C7.27587 2.58882 7.725 2.18781 7.94956 2.05402H7.54535C6.73926 2.05402 5.77438 3.0872 5.3927 3.60379C5.1973 3.78293 4.66972 4.40519 4.43524 4.71632C4.39849 4.76213 4.3506 4.82713 4.28996 4.90942C3.96375 5.35211 3.26877 6.29526 1.9561 7.44357C1.81855 7.5498 1.44821 7.74089 0.881508 7.74089C0.470237 7.74089 0.256468 7.55291 0.160584 7.38158C0.418592 8.4713 0.975096 9.44633 1.73948 10.2165C2.10146 10.3935 2.53162 10.5 3.0404 10.5C5.29932 10.5 6.67638 9.46734 7.08255 8.951C7.01713 8.96702 6.86931 8.98266 6.80136 8.91708C6.7334 8.85151 6.77304 8.79931 6.80136 8.78141C7.1993 8.47561 7.94103 7.99247 8.70101 7.61208C8.74795 7.2301 8.84835 6.85582 8.9999 6.50038C9.21288 6.00085 9.52265 5.54843 9.91136 5.16922C10.3001 4.79 10.76 4.49149 11.2646 4.29091C11.4258 4.22687 11.5905 4.17321 11.7577 4.13012Z" fill="context-fill"/>
<path d="M13.6071 8.7055L15.614 6.77577C15.8586 7.22654 15.991 7.7296 16 8.24236C15.9966 8.65338 15.9118 9.05966 15.7506 9.43777C15.5894 9.81587 15.3549 10.1583 15.0607 10.4453C14.7665 10.7324 14.4184 10.9583 14.0364 11.1102C13.6544 11.262 13.2462 11.3367 12.8352 11.3299C12.4621 11.3355 12.0926 11.2563 11.7545 11.0984L7.12313 15.6525C6.8815 15.8759 6.56452 16 6.23545 16C5.90637 16 5.58939 15.8759 5.34776 15.6525C5.12419 15.411 5 15.094 5 14.7648C5 14.4357 5.12419 14.1187 5.34776 13.8772L9.90198 9.32301C9.74393 8.93068 9.66522 8.51092 9.67041 8.08799C9.67382 7.67697 9.75857 7.27069 9.91978 6.89258C10.081 6.51448 10.3155 6.17204 10.6097 5.885C10.9039 5.59797 11.252 5.37202 11.634 5.2202C12.016 5.06838 12.4242 4.99368 12.8352 5.00042C13.348 5.0094 13.851 5.14179 14.3018 5.38636L12.3721 7.31609C12.2857 7.40215 12.2172 7.5044 12.1704 7.61699C12.1237 7.72958 12.0996 7.85029 12.0996 7.9722C12.0996 8.09411 12.1237 8.21482 12.1704 8.32741C12.2172 8.44 12.2857 8.54226 12.3721 8.62831C12.8352 9.24582 13.4527 8.78269 13.6071 8.7055ZM6.19685 14.1859C6.05945 14.1859 5.92513 14.2267 5.81089 14.303C5.69665 14.3793 5.6076 14.4878 5.55502 14.6148C5.50244 14.7417 5.48868 14.8814 5.51549 15.0162C5.54229 15.1509 5.60846 15.2747 5.70562 15.3719C5.80277 15.469 5.92656 15.5352 6.06132 15.562C6.19608 15.5888 6.33576 15.575 6.46271 15.5225C6.58965 15.4699 6.69815 15.3808 6.77448 15.2666C6.85082 15.1523 6.89156 15.018 6.89156 14.8806C6.89156 14.6964 6.81837 14.5197 6.68809 14.3894C6.5578 14.2591 6.3811 14.1859 6.19685 14.1859Z" fill="context-fill"/>
</svg>
