<svg width="16" height="16" viewBox="0 0 16 16" fill="none" xmlns="http://www.w3.org/2000/svg">
<path d="M9.65477 0.598053C9.62275 0.610272 9.59205 0.622408 9.56279 0.634287C9.33325 0.727481 9.12258 0.83419 8.95698 0.929019H8.54535C7.71962 0.929019 7.00988 1.41999 6.58677 1.77054C6.1514 2.13125 5.77972 2.54826 5.54069 2.8596C5.25011 3.15147 4.76631 3.73089 4.5405 4.0288C4.49159 4.09064 4.43642 4.16553 4.38793 4.23135L4.37556 4.24815C4.07437 4.65689 3.45122 5.50257 2.26991 6.54585C2.25813 6.55124 2.24036 6.55868 2.21629 6.56681C2.14767 6.59001 2.03602 6.61589 1.88151 6.61589L1.87364 6.61578L1.8747 6.61598L1.88151 6.61724C1.89628 6.6203 1.93077 6.62941 1.97587 6.65582C2.04846 6.69832 2.1075 6.76178 2.14798 6.8341L1.12643 7.2283C1.04356 6.83181 1 6.42097 1 6C1 2.68629 3.69886 0 7.02808 0C7.96966 0 8.86083 0.214877 9.65477 0.598053Z" fill="context-fill"/>
<path d="M9.72622 7.59951C8.95746 7.98176 8.2037 8.47223 7.80136 8.78141C7.77304 8.79931 7.7334 8.85151 7.80136 8.91708C7.86931 8.98266 8.01713 8.96702 8.08255 8.951C7.67638 9.46734 6.29932 10.5 4.0404 10.5C3.53162 10.5 3.10146 10.3935 2.73948 10.2165C1.9751 9.44633 1.41859 8.4713 1.16058 7.38158C1.25647 7.55291 1.47024 7.74089 1.88151 7.74089C2.44821 7.74089 2.81855 7.5498 2.9561 7.44357C4.26877 6.29526 4.96375 5.35211 5.28996 4.90942C5.3506 4.82713 5.39849 4.76213 5.43524 4.71632C5.66972 4.40519 6.1973 3.78293 6.3927 3.60379C6.77438 3.0872 7.73926 2.05402 8.54535 2.05402H8.94956C8.725 2.18781 8.27587 2.58882 8.27587 3.12249C8.52387 2.73807 9.18147 2.116 9.41236 1.96922C9.6584 1.81282 10.2665 1.5 10.7305 1.5C10.8347 1.5 10.9353 1.50494 11.0303 1.51317C11.1198 1.59226 11.2068 1.67396 11.2914 1.75816C11.2596 1.78716 11.2401 1.82312 11.2401 1.86746C11.2885 1.86322 11.3408 1.86165 11.3949 1.86383C12.1261 2.62833 12.6566 3.58458 12.9027 4.64903L12.2044 5.29766C11.601 5.41201 10.8007 5.64302 10.8007 5.96608C10.9753 5.96045 11.1972 5.9739 11.4279 6.01887L9.72622 7.59951Z" fill="context-fill"/>
<path d="M7.75337 11.3201C7.45639 11.3208 7.16764 11.4241 6.93046 11.6146C6.69328 11.805 6.52046 12.0723 6.43795 12.3763C6.43795 12.3837 6.42831 12.3873 6.42625 12.3947C6.17707 13.2272 5.94097 13.9424 5.21545 14.2821L5.19962 14.2909L5.1831 14.2997C5.12822 14.3306 5.08222 14.3769 5.04999 14.4334C5.01775 14.49 5.00048 14.5548 5 14.621C5 14.7182 5.03626 14.8115 5.10081 14.8803C5.16535 14.9491 5.25289 14.9877 5.34417 14.9877C6.5414 15.0763 7.72632 14.6837 8.66543 13.8874C8.66956 13.883 8.67025 13.8779 8.67438 13.8735C8.88252 13.6759 9.02923 13.4153 9.09495 13.1266C9.16068 12.8379 9.14231 12.5347 9.04229 12.2574C8.94227 11.9802 8.76535 11.7419 8.53508 11.5744C8.30482 11.407 8.03215 11.3182 7.75337 11.3201ZM15.8022 4.20994C15.681 4.08152 15.5187 4.00668 15.3479 4.00043C15.1771 3.99417 15.0104 4.05695 14.8812 4.1762L9.35308 9.31092C9.28341 9.3758 9.22699 9.45523 9.18729 9.54429C9.1476 9.63336 9.12549 9.73016 9.12233 9.8287C9.11916 9.92724 9.13502 10.0254 9.16891 10.1172C9.2028 10.2089 9.25401 10.2923 9.31936 10.3621L10.0297 11.1183C10.1564 11.2529 10.3279 11.3286 10.5067 11.3289H10.5295C10.6219 11.3255 10.7128 11.302 10.7964 11.2597C10.88 11.2175 10.9545 11.1574 11.0154 11.0831L15.8338 5.19214C15.9462 5.05457 16.0055 4.87669 15.9996 4.69439C15.9937 4.51209 15.9232 4.33896 15.8022 4.20994Z" fill="context-fill"/>
</svg>
