<svg width="18" height="18" viewBox="0 0 18 18" fill="none" xmlns="http://www.w3.org/2000/svg">
<path d="M9 6C8.44775 6 8 6.44775 8 7V13C8 13.5522 8.44775 14 9 14C9.55225 14 10 13.5522 10 13V7C10 6.44775 9.55225 6 9 6Z" fill="context-fill"/>
<path fill-rule="evenodd" clip-rule="evenodd" d="M1 3C1 1.89551 1.89551 1 3 1H15C16.1045 1 17 1.89551 17 3V15C17 16.1045 16.1045 17 15 17H3C1.89551 17 1 16.1045 1 15V3ZM3.51904 3.85498C3.36768 3.94727 3.18994 4 3 4C2.56055 4 2.18701 3.71631 2.05273 3.32227C2.01855 3.22119 2 3.11279 2 3C2 2.44775 2.44775 2 3 2C3.55225 2 4 2.44775 4 3C4 3.3623 3.80713 3.67969 3.51904 3.85498ZM11 3C11.3013 3 11.5713 3.1333 11.7544 3.34375C11.9072 3.51953 12 3.74902 12 4V11.5C12 11.5376 11.9956 11.5747 11.9878 11.6104C11.9756 11.6646 11.9546 11.7158 11.9263 11.7617C11.9116 11.7861 11.8945 11.8091 11.8755 11.8301L11.8472 11.8599L11.8223 11.8823C11.7549 11.939 11.6724 11.9785 11.5811 11.9937C11.5547 11.998 11.5278 12 11.5 12C11.3491 12 11.2139 12.0669 11.1221 12.1729C11.0459 12.2603 11 12.3745 11 12.5V14C11 14.5522 10.5522 15 10 15H8C7.68115 15 7.39697 14.8506 7.21387 14.6182C7.08008 14.4478 7 14.2334 7 14V12.5C7 12.2236 6.77637 12 6.5 12C6.22363 12 6 11.7764 6 11.5V4C6 3.44775 6.44775 3 7 3H11ZM4 15C4 15.5522 3.55225 16 3 16C2.44775 16 2 15.5522 2 15C2 14.4478 2.44775 14 3 14C3.55225 14 4 14.4478 4 15ZM15 16C15.5522 16 16 15.5522 16 15C16 14.4478 15.5522 14 15 14C14.4478 14 14 14.4478 14 15C14 15.5522 14.4478 16 15 16ZM15 4C15.2837 4 15.54 3.88184 15.7222 3.69189C15.8198 3.58984 15.896 3.46729 15.9438 3.33154C15.98 3.22803 16 3.11621 16 3C16 2.44775 15.5522 2 15 2C14.4478 2 14 2.44775 14 3C14 3.30225 14.1343 3.57324 14.3462 3.75684C14.5215 3.9082 14.75 4 15 4Z" fill="context-fill"/>
</svg>
