<svg width="18" height="18" viewBox="0 0 18 18" fill="none" xmlns="http://www.w3.org/2000/svg">
<path fill-rule="evenodd" clip-rule="evenodd" d="M17 9C17 13.4183 13.4183 17 9 17C4.58172 17 1 13.4183 1 9C1 4.58172 4.58172 1 9 1C13.4183 1 17 4.58172 17 9ZM7.06108 3.13392C7.07962 3.1262 7.10144 3.1251 7.12108 3.1262C7.10996 3.12682 7.10024 3.13134 7.09034 3.13594C7.08275 3.13946 7.07505 3.14304 7.06653 3.14495C7.06108 3.14605 7.05344 3.14605 7.0469 3.14605C7.05126 3.14054 7.05672 3.13613 7.06108 3.13392ZM7.0469 3.14605C7.03102 3.14427 7.01371 3.13816 6.99901 3.13297C6.99554 3.13174 6.99221 3.13056 6.98908 3.12951C6.96759 3.12193 6.95663 3.11018 6.94624 3.09903C6.93395 3.08586 6.92245 3.07353 6.89526 3.06994C6.83403 3.06086 6.86884 3.02018 6.90078 2.98286C6.93086 2.9477 6.9584 2.91552 6.90072 2.91552C6.88231 2.91499 6.86492 2.90139 6.84867 2.88867C6.8312 2.87501 6.81505 2.86238 6.80036 2.86809C6.79421 2.8705 6.78946 2.87368 6.78509 2.87659C6.77549 2.88299 6.76776 2.88815 6.75127 2.88133C6.74807 2.88003 6.74475 2.87845 6.74133 2.87681C6.72723 2.87007 6.71143 2.86252 6.69563 2.8714C6.67177 2.88624 6.65855 2.8827 6.64423 2.87887C6.63301 2.87587 6.62111 2.87269 6.6029 2.87802C6.5905 2.88206 6.58015 2.88907 6.57008 2.8959C6.5527 2.90768 6.53614 2.9189 6.51127 2.91331C6.52775 2.89109 6.54577 2.87043 6.56371 2.84985C6.58852 2.82139 6.61319 2.7931 6.63345 2.76109C6.65636 2.72359 6.68472 2.6894 6.7229 2.66623C6.72869 2.66284 6.73747 2.65945 6.74718 2.6557C6.77221 2.64603 6.80345 2.63395 6.80581 2.61329C6.81126 2.56586 6.78181 2.57027 6.74908 2.58902C6.66399 2.63976 6.57563 2.69381 6.49272 2.74786C6.49032 2.74939 6.48794 2.75091 6.48559 2.75242C6.43873 2.7824 6.40029 2.807 6.34109 2.7986C6.31541 2.79447 6.29786 2.8077 6.28123 2.82022C6.26678 2.83111 6.25303 2.84146 6.23527 2.83941C6.22081 2.78178 5.96885 2.93209 5.8348 3.01206C5.79696 3.03464 5.76851 3.05161 5.75746 3.05671C5.72957 3.06907 5.70048 3.08454 5.6708 3.10033C5.61571 3.12963 5.55858 3.16001 5.50328 3.17363C5.49341 3.17613 5.48047 3.18445 5.4671 3.19306C5.43322 3.21487 5.39652 3.23849 5.39965 3.17363C5.36661 3.16945 5.33983 3.19373 5.31598 3.21535C5.30833 3.22228 5.30099 3.22894 5.29383 3.2343C5.26825 3.25404 5.23975 3.26916 5.21116 3.28433C5.19344 3.29374 5.17568 3.30316 5.15856 3.31372C5.07966 3.36448 5.00445 3.42344 4.9305 3.48142C4.91447 3.49398 4.8985 3.5065 4.88257 3.51888C4.85348 3.54151 4.82439 3.56542 4.79513 3.58948C4.73879 3.63579 4.68181 3.68264 4.62293 3.72184C4.61712 3.72583 4.60834 3.73114 4.59795 3.73742C4.55379 3.76412 4.48065 3.80835 4.4833 3.84317C4.5168 3.84967 4.5843 3.79329 4.65694 3.73261C4.75695 3.64908 4.8667 3.5574 4.91093 3.61043C4.92748 3.62996 4.83399 3.6816 4.79113 3.70528C4.78314 3.7097 4.77691 3.71314 4.77348 3.71522C4.7642 3.72019 4.75411 3.72239 4.74402 3.7246C4.73393 3.7268 4.72384 3.72901 4.71457 3.73397C4.70182 3.74159 4.69153 3.75201 4.68125 3.76242C4.67219 3.77161 4.66313 3.78078 4.65239 3.78802C4.5913 3.82663 4.54002 3.87627 4.4953 3.93142C4.48171 3.94895 4.46973 3.96871 4.45772 3.98854C4.44177 4.01486 4.42576 4.04128 4.40585 4.06268C4.40909 4.03904 4.4077 4.01931 4.40627 3.99907C4.4053 3.98531 4.40431 3.97131 4.40475 3.95568C4.39125 3.96435 4.38012 3.97482 4.36947 3.98485C4.34484 4.00805 4.3227 4.0289 4.2793 4.01966C4.23492 4.00931 4.19789 4.04216 4.16454 4.07174C4.15526 4.07997 4.14627 4.08795 4.13749 4.09467C4.06534 4.1498 4.01126 4.20951 3.9544 4.27227C3.93732 4.29112 3.91999 4.31025 3.90185 4.32961C3.88952 4.34302 3.87693 4.35528 3.86459 4.36729C3.83327 4.39778 3.8036 4.42666 3.78404 4.4686C3.76119 4.51737 3.73112 4.56216 3.70096 4.60709C3.69224 4.62007 3.68351 4.63307 3.67495 4.64619C3.6395 4.69808 3.60148 4.7479 3.56351 4.79765C3.5232 4.85048 3.48294 4.90324 3.44586 4.95835C3.34737 5.10515 3.27132 5.26626 3.19553 5.42682C3.15799 5.50635 3.12052 5.58573 3.08041 5.66319C3.01823 5.78452 2.95823 5.90365 2.93314 6.03932C2.91132 6.15625 2.91023 6.27537 2.91241 6.3945C2.97896 6.34266 2.97568 6.45076 2.95823 6.48275C2.93314 6.53238 2.92332 6.58864 2.91568 6.64379C2.91414 6.65392 2.91256 6.66405 2.91097 6.67418C2.90134 6.73577 2.89168 6.79747 2.89168 6.85998C2.89168 6.89202 2.8864 6.92288 2.88116 6.95346C2.8763 6.98185 2.87148 7.01001 2.87096 7.03868C2.86075 7.03081 2.86484 7.01157 2.86864 6.99362C2.87338 6.97127 2.8777 6.95094 2.8535 6.95705C2.83663 6.96132 2.83215 6.98141 2.82847 6.99796C2.82739 7.00281 2.82638 7.00735 2.82514 7.0111C2.81687 7.03827 2.79514 7.05133 2.77328 7.06447C2.749 7.07907 2.72455 7.09377 2.71823 7.12802C2.71169 7.16773 2.70732 7.1909 2.68114 7.22288C2.66694 7.23951 2.67169 7.24993 2.67749 7.26264C2.68016 7.26848 2.68304 7.27481 2.68441 7.28245C2.68917 7.31022 2.67423 7.34317 2.65978 7.37503C2.64439 7.40896 2.62956 7.44166 2.63969 7.46555C2.64863 7.48737 2.65022 7.51047 2.65179 7.53337C2.65347 7.55794 2.65514 7.58227 2.66587 7.60454C2.66837 7.6096 2.67163 7.61501 2.67503 7.62068C2.68646 7.63971 2.69961 7.66161 2.69205 7.68285C2.65847 7.68917 2.67968 7.74636 2.69604 7.79049C2.70253 7.808 2.70827 7.82346 2.70951 7.83286C2.71605 7.88691 2.76405 8.05678 2.81641 8.08105L2.82072 8.08766C2.88577 8.18748 2.97384 8.32261 3.08695 8.37225C3.14569 8.39759 3.17744 8.35016 3.20763 8.30506C3.2195 8.28734 3.23112 8.26998 3.24404 8.25753C3.30186 8.20018 3.37713 8.16377 3.45349 8.1373C3.45919 8.13525 3.46648 8.13277 3.47496 8.12989C3.56239 8.10018 3.77583 8.02763 3.65749 7.94317C3.62792 7.92172 3.58727 7.90506 3.54537 7.88788C3.44504 7.84675 3.33749 7.80267 3.3575 7.68285C3.37495 7.57916 3.48186 7.49864 3.56804 7.4479C3.68149 7.38172 3.80804 7.37952 3.93567 7.39055C3.94293 7.39133 3.95174 7.39162 3.96117 7.39193C3.99137 7.39292 4.02792 7.39411 4.0404 7.41261C4.04912 7.42474 4.06658 7.43246 4.08076 7.43687C4.10169 7.44302 4.12305 7.44578 4.14456 7.44857C4.1578 7.45028 4.1711 7.452 4.18439 7.45452C4.20114 7.4577 4.21633 7.46449 4.23096 7.47102C4.26205 7.48492 4.2906 7.49768 4.32621 7.47217C4.3281 7.47085 4.32995 7.46956 4.33175 7.4683C4.38689 7.42972 4.39833 7.42171 4.46912 7.43026C4.50389 7.43436 4.53128 7.42227 4.55749 7.4107C4.58061 7.40049 4.60282 7.39068 4.62839 7.39275C4.64584 7.39385 4.66111 7.39716 4.6742 7.40268C4.67966 7.38393 4.6873 7.36738 4.6993 7.36407C4.7149 7.35966 4.7412 7.37942 4.76617 7.39818C4.78486 7.41222 4.80279 7.42569 4.81493 7.42805C4.8793 7.44185 4.88263 7.40277 4.88651 7.35728C4.88697 7.35189 4.88744 7.3464 4.88802 7.34091C4.90349 7.33807 4.91553 7.34561 4.92684 7.35269C4.94184 7.36208 4.95554 7.37066 4.9742 7.35304C4.9736 7.35847 4.97529 7.36556 4.97695 7.37249C4.97831 7.37822 4.97965 7.38384 4.97965 7.38834C4.9862 7.39275 4.99384 7.39275 5.00038 7.38724C5.00365 7.38172 5.00475 7.37621 5.00256 7.36959C5.02002 7.3751 5.02874 7.36297 5.03093 7.34201C5.03702 7.34253 5.04477 7.34113 5.05263 7.33971C5.06166 7.33808 5.07084 7.33642 5.07784 7.3376C5.07939 7.33165 5.08125 7.32539 5.08317 7.31894C5.09334 7.28473 5.10514 7.24503 5.0822 7.21627C5.08506 7.21578 5.08813 7.21509 5.09132 7.21437C5.09542 7.21344 5.09972 7.21247 5.10402 7.21185C5.10402 7.19168 5.11128 7.17757 5.11816 7.1642C5.12407 7.15272 5.12969 7.14178 5.1302 7.12802C5.09551 7.12315 5.05743 7.1243 5.0212 7.1254C5.0164 7.12554 5.01164 7.12569 5.00693 7.12582C5.00985 7.12313 5.01328 7.12004 5.01706 7.11664C5.04425 7.0922 5.08941 7.05159 5.0942 7.02544C5.09962 6.99914 5.08539 6.97801 5.07036 6.9557C5.05513 6.93309 5.03909 6.90927 5.04184 6.87763C5.04838 6.91072 5.08547 6.98683 5.12038 6.99786C5.18182 7.01857 5.18118 6.97516 5.1806 6.93574C5.18044 6.92476 5.18028 6.9141 5.18147 6.90521C5.20111 6.77615 5.31674 6.88315 5.31892 6.95043C5.35274 6.87322 5.43674 6.95926 5.39856 7.02544C5.3921 7.03658 5.38485 7.04237 5.37911 7.04695C5.36836 7.05553 5.3629 7.05989 5.37783 7.08721C5.39419 7.11699 5.41819 7.11809 5.4531 7.11037C5.46183 7.09273 5.46947 7.07287 5.46947 7.05191C5.52947 7.03316 5.56874 7.10486 5.53383 7.14788C5.57856 7.12361 5.62437 7.10045 5.67237 7.08831C5.67144 7.08504 5.6705 7.08177 5.66957 7.0785C5.64212 6.98263 5.61517 6.88848 5.6331 6.78608C5.63352 6.78384 5.63393 6.78157 5.63435 6.77927C5.63823 6.75788 5.64243 6.73474 5.65819 6.7188C5.67139 6.70478 5.66662 6.70248 5.66031 6.69942C5.65619 6.69743 5.65142 6.69511 5.65055 6.68901C5.64616 6.65793 5.66681 6.62636 5.68648 6.59628C5.69613 6.58153 5.70554 6.56713 5.71164 6.55334C5.66037 6.54231 5.70728 6.44083 5.7411 6.42318C5.75791 6.41468 5.78951 6.41638 5.81975 6.418C5.85623 6.41996 5.89074 6.42182 5.89491 6.40553C5.89988 6.40829 5.90478 6.41134 5.90971 6.41439C5.92644 6.42478 5.94341 6.43531 5.96364 6.43531C6.02364 6.43642 6.064 6.43752 6.10546 6.48605C6.10999 6.49161 6.115 6.49864 6.12044 6.50628C6.13986 6.53356 6.16484 6.56864 6.19382 6.57209C6.19344 6.58674 6.19905 6.60004 6.20438 6.61265C6.21429 6.63613 6.22319 6.65723 6.19055 6.68019C6.17674 6.68989 6.16104 6.69535 6.14578 6.70067C6.11764 6.71048 6.09098 6.71976 6.08037 6.75409C6.07743 6.763 6.07299 6.77063 6.06901 6.77748C6.05819 6.79606 6.05074 6.80886 6.08582 6.82579C6.10655 6.83682 6.13273 6.83903 6.15564 6.83903C6.16109 6.87101 6.17746 6.91403 6.21891 6.90852C6.26535 6.90281 6.29086 6.86679 6.3164 6.83072C6.33525 6.80409 6.35412 6.77744 6.38145 6.76292C6.43511 6.73466 6.45698 6.78343 6.47773 6.8297C6.49748 6.87373 6.51621 6.9155 6.56036 6.88646C6.5741 6.87742 6.57919 6.85001 6.5838 6.82516C6.58651 6.81057 6.58905 6.79686 6.59309 6.78829C6.6149 6.73975 6.63999 6.69012 6.67163 6.6471C6.67544 6.64189 6.67935 6.63666 6.68327 6.6314C6.72087 6.58098 6.76053 6.52781 6.74472 6.46289C6.73843 6.43745 6.70482 6.42152 6.67231 6.4061C6.65407 6.39745 6.63617 6.38897 6.62363 6.37906C6.58218 6.34487 6.54181 6.30846 6.51672 6.26103C6.51528 6.25832 6.51389 6.25578 6.51259 6.25339C6.50009 6.23044 6.49499 6.22107 6.51672 6.20809C6.53091 6.20037 6.52654 6.18492 6.52109 6.17389C6.51746 6.16625 6.51297 6.15778 6.50819 6.14876C6.47852 6.09275 6.43776 6.01583 6.52327 5.98638C6.54509 5.97866 6.5909 5.90806 6.59418 5.88049C6.59651 5.86065 6.58505 5.84163 6.57366 5.82272C6.55845 5.79746 6.54336 5.77241 6.56145 5.74592C6.57366 5.72769 6.59578 5.71292 6.61823 5.69792C6.63792 5.68477 6.65787 5.67144 6.67163 5.65547C6.68581 5.63892 6.70218 5.62458 6.72399 5.62017C6.72508 5.60142 6.72945 5.58046 6.74581 5.56833C6.76151 5.55642 6.78269 5.55522 6.80373 5.55403C6.81778 5.55324 6.83176 5.55245 6.84399 5.54847C6.87485 5.53898 6.89498 5.51572 6.91504 5.49255C6.9276 5.47804 6.94014 5.46355 6.95526 5.45251C6.97351 5.43898 6.99311 5.43573 7.01294 5.43245C7.02867 5.42985 7.04454 5.42723 7.05999 5.41942C7.06926 5.415 7.07581 5.40783 7.08235 5.40066C7.0889 5.3935 7.09544 5.38633 7.10472 5.38191C7.15053 5.35985 7.2029 5.39515 7.22362 5.43376C7.22738 5.44085 7.23121 5.44824 7.23514 5.45583C7.28253 5.54731 7.3445 5.66693 7.47344 5.6323C7.53016 5.61686 7.57271 5.57053 7.59016 5.51759C7.60012 5.48671 7.59675 5.4591 7.59332 5.43103C7.59111 5.41297 7.58888 5.39473 7.59016 5.37529C7.59241 5.3298 7.6164 5.29282 7.64047 5.25571C7.66309 5.22084 7.68577 5.18588 7.69052 5.14366C7.64829 5.14437 7.64739 5.12763 7.6462 5.10559C7.64555 5.09347 7.64481 5.07975 7.63707 5.06644C7.62117 5.03867 7.59186 5.04286 7.56342 5.04692C7.54893 5.04899 7.53467 5.05103 7.52253 5.0488C7.55962 4.95945 7.55962 4.92856 7.47235 4.88555C7.45575 4.87739 7.43441 4.85611 7.41317 4.83492C7.38555 4.80737 7.35809 4.77999 7.34144 4.78186C7.3638 4.75103 7.41458 4.7968 7.43552 4.81569C7.43705 4.81707 7.43843 4.81831 7.43962 4.81936C7.4778 4.85576 7.51162 4.87231 7.56507 4.87672C7.5498 4.85356 7.54216 4.81164 7.55198 4.78517C7.55732 4.77198 7.55266 4.75846 7.54765 4.74391C7.54344 4.73169 7.53899 4.71875 7.53998 4.70465C7.57768 4.75297 7.58837 4.8055 7.59924 4.85885C7.60598 4.89197 7.61279 4.9254 7.62616 4.95835C7.63327 4.9766 7.64587 4.9918 7.65859 5.00715C7.67123 5.02241 7.684 5.03782 7.69162 5.05652C7.69714 5.06985 7.70007 5.07935 7.70236 5.08675C7.7082 5.10568 7.70982 5.11091 7.73962 5.13152C7.76471 5.14917 7.77343 5.18006 7.7778 5.20763C7.78253 5.23771 7.79103 5.2411 7.80304 5.24589C7.81042 5.24883 7.81911 5.2523 7.82907 5.26278C7.83399 5.26812 7.84141 5.27196 7.84894 5.27587C7.86478 5.28408 7.88115 5.29256 7.87598 5.31573C7.87351 5.32672 7.8688 5.33681 7.86408 5.34691C7.85839 5.35911 7.85268 5.37134 7.85089 5.38522C7.84107 5.45802 7.98398 5.35875 7.99816 5.34882C8.01165 5.33859 8.02898 5.33201 8.04619 5.32548C8.06794 5.31724 8.08949 5.30906 8.10288 5.29367C8.11512 5.27968 8.12009 5.26255 8.12501 5.24559C8.13018 5.22778 8.13529 5.21016 8.1487 5.1966C8.17007 5.17428 8.19097 5.1764 8.21383 5.17872C8.22599 5.17996 8.2387 5.18125 8.25233 5.17895C8.29316 5.17306 8.3288 5.14351 8.36 5.11763C8.36382 5.11447 8.36756 5.11136 8.37124 5.10836C8.42365 5.0642 8.46219 5.01712 8.50242 4.96796C8.51746 4.94959 8.53273 4.93093 8.54906 4.91202C8.54271 4.91362 8.53265 4.91866 8.52096 4.92451C8.48444 4.9428 8.4321 4.96901 8.42797 4.92305C8.39415 4.92305 8.31561 4.91753 8.30361 4.88003C8.29573 4.85789 8.29628 4.83362 8.29681 4.81064C8.29693 4.805 8.29706 4.79943 8.29706 4.79399C8.29638 4.7753 8.28193 4.77225 8.26533 4.76875C8.2555 4.76668 8.2449 4.76444 8.23597 4.7587C8.21366 4.74434 8.19653 4.72426 8.17944 4.70422C8.15976 4.68116 8.14014 4.65815 8.1127 4.64398C8.03088 4.60096 7.98179 4.53147 7.9327 4.45757C7.9242 4.44467 7.90923 4.42781 7.89263 4.40912C7.85387 4.36547 7.80627 4.31187 7.81161 4.27557C7.81352 4.26059 7.82004 4.2452 7.82657 4.22975C7.83496 4.20992 7.84339 4.19 7.84216 4.17078C7.84166 4.15674 7.83643 4.14566 7.83118 4.13454C7.82488 4.1212 7.81856 4.1078 7.82034 4.08915C7.82153 4.07471 7.80959 4.05633 7.79796 4.03842C7.7776 4.00707 7.75816 3.97714 7.81161 3.97223C7.82608 3.97101 7.83388 3.9607 7.84294 3.94875C7.85027 3.93906 7.85843 3.92829 7.87161 3.92039C7.88313 3.9134 7.88965 3.90669 7.89482 3.90135C7.90437 3.89153 7.90937 3.88638 7.9327 3.89281C7.97761 3.90652 8.01199 3.87099 8.0435 3.83841C8.05256 3.82905 8.06139 3.81993 8.07016 3.81229C8.1113 3.77606 8.08745 3.76146 8.06123 3.7454C8.04435 3.73506 8.02648 3.72411 8.02434 3.7064C8.02166 3.68417 8.01397 3.66488 8.00594 3.64472C7.99763 3.62386 7.98895 3.60206 7.98507 3.57514C7.9807 3.53653 7.9447 3.55197 7.92398 3.5619C7.90403 3.57121 7.88407 3.56415 7.8645 3.55722C7.85625 3.5543 7.84807 3.5514 7.83998 3.54977C7.83026 3.54763 7.8212 3.54004 7.81197 3.5323C7.79736 3.52006 7.78233 3.50746 7.76361 3.51557C7.7547 3.51987 7.74941 3.52667 7.74436 3.53318C7.73643 3.54339 7.72906 3.55289 7.70907 3.55087C7.69656 3.54972 7.68641 3.54287 7.67617 3.53595C7.66677 3.52961 7.65728 3.5232 7.6458 3.52109C7.6276 3.51892 7.62621 3.52632 7.62462 3.53481C7.62296 3.54362 7.62109 3.5536 7.59998 3.55528C7.5904 3.556 7.57388 3.55228 7.55588 3.54822C7.51858 3.53982 7.47491 3.52998 7.47344 3.55528C7.45572 3.52476 7.44432 3.54373 7.43116 3.56561C7.42244 3.58011 7.41296 3.59589 7.40035 3.5994C7.3843 3.60397 7.3678 3.60457 7.35125 3.60517C7.3318 3.60588 7.3123 3.60659 7.29344 3.61374C7.21708 3.64463 7.24217 3.72074 7.31526 3.73287C7.34765 3.73772 7.33914 3.75225 7.32818 3.77095C7.31921 3.78625 7.3086 3.80435 7.31744 3.82222C7.32015 3.82771 7.32258 3.83293 7.32488 3.8379C7.33738 3.86483 7.34629 3.88401 7.37853 3.89612C7.38227 3.89749 7.38604 3.89885 7.38979 3.9002C7.4495 3.92172 7.50815 3.94287 7.48762 4.01966C7.45926 4.12114 7.38835 4.2171 7.28908 4.26343C7.22915 4.29129 7.19662 4.25363 7.16266 4.2143C7.14284 4.19134 7.12253 4.16782 7.09599 4.15644C7.05252 4.13821 7.0039 4.14395 6.95814 4.14935L6.95417 4.14982C6.95026 4.15604 6.96754 4.16515 6.98694 4.17538C7.0054 4.18511 7.02578 4.19586 7.03163 4.20607C7.04418 4.23083 7.02964 4.23951 7.0142 4.24873C7.00281 4.25553 6.99093 4.26262 6.98908 4.27667C6.98744 4.28706 6.9813 4.29636 6.97534 4.30538C6.96548 4.32031 6.95612 4.33449 6.96835 4.35167C6.94763 4.32631 6.90726 4.3605 6.89308 4.37594C6.87235 4.398 6.87672 4.41234 6.88545 4.43992C6.9029 4.49617 6.81781 4.55463 6.76763 4.54802C6.75504 4.54606 6.74264 4.54497 6.73037 4.54389C6.70119 4.54133 6.67278 4.53883 6.64436 4.52485C6.62141 4.51378 6.61318 4.51128 6.60976 4.50578C6.60602 4.49977 6.60803 4.49019 6.6029 4.46198C6.59932 4.44344 6.58772 4.42872 6.57646 4.41445C6.55692 4.38967 6.53842 4.3662 6.56472 4.32631C6.5862 4.29253 6.58448 4.28572 6.57986 4.26742C6.57814 4.26062 6.57602 4.25222 6.57454 4.24027C6.568 4.19394 6.58872 4.18732 6.62581 4.1807C6.65351 4.17541 6.67042 4.13999 6.68606 4.10723C6.69321 4.09225 6.7001 4.07782 6.70763 4.06709C6.71308 4.05937 6.73817 3.99539 6.6989 4.01194C6.68947 4.01623 6.68718 4.02382 6.68488 4.0314C6.68186 4.04137 6.67883 4.05135 6.65963 4.05385C6.64634 4.0563 6.63304 4.05231 6.61956 4.04827C6.6087 4.04501 6.59773 4.04172 6.58654 4.04172C6.57774 4.04172 6.56883 4.0431 6.55994 4.04448C6.54021 4.04754 6.5206 4.05058 6.50254 4.03841C6.50445 4.03616 6.50806 4.03261 6.51263 4.02812C6.53939 4.0018 6.59865 3.94351 6.53527 3.93031C6.52155 3.92723 6.51943 3.93611 6.51711 3.94581C6.51445 3.95694 6.51153 3.96915 6.49054 3.96561C6.4859 3.98908 6.46674 3.99706 6.44728 4.00516C6.43474 4.01039 6.42207 4.01566 6.41309 4.02518C6.4173 4.00767 6.43555 3.992 6.45279 3.97719C6.47576 3.95747 6.49692 3.93929 6.48072 3.92039L6.48329 3.91816C6.54325 3.86606 6.55483 3.856 6.472 3.82663C6.34 3.7803 6.34982 3.64463 6.44036 3.563C6.52327 3.488 6.65963 3.39314 6.74036 3.51778C6.81751 3.63726 6.8693 3.57199 6.93018 3.49527C6.93731 3.48629 6.94456 3.47716 6.95199 3.46814C6.93834 3.4625 6.93951 3.45792 6.94166 3.44954C6.94328 3.44319 6.94547 3.43466 6.94217 3.42181C6.86363 3.4538 6.79381 3.35232 6.84726 3.29166C6.86984 3.26654 6.90072 3.26348 6.93203 3.26037C6.94611 3.25898 6.96027 3.25757 6.97381 3.25415C7.01199 3.24422 7.0469 3.20672 7.06326 3.17142C7.03053 3.18025 7.0349 3.16039 7.0469 3.14605ZM7.07744 4.01745C7.11126 4.01525 7.17126 4.04172 7.14617 4.07371C7.12762 4.09908 7.04035 4.1057 7.02072 4.08143C7.02127 4.08031 7.02183 4.07896 7.02242 4.07754C7.02415 4.07337 7.02619 4.06845 7.02944 4.06599L7.00981 4.07481C6.98035 4.10349 6.93781 4.11562 6.89745 4.11011C6.89785 4.10234 6.8966 4.09306 6.89532 4.08349C6.89315 4.06726 6.89086 4.05021 6.89635 4.03841C6.90195 4.0271 6.91286 4.02044 6.92384 4.01374C6.93212 4.00869 6.94044 4.00361 6.94654 3.9965C6.95707 3.98399 6.96588 3.96896 6.97473 3.95384C6.98695 3.93297 6.99927 3.91194 7.01635 3.89722C7.04908 3.86965 7.11017 3.85972 7.12217 3.91046C7.1301 3.93987 7.1152 3.95875 7.10029 3.97765C7.09059 3.98994 7.08088 4.00224 7.07744 4.01745ZM7.25534 2.79559C7.2201 2.78073 7.18594 2.76632 7.18762 2.72028C7.13933 2.71162 7.11328 2.73951 7.08685 2.76781C7.07626 2.77915 7.06561 2.79055 7.05344 2.7997C6.99454 2.84272 7.02835 2.75999 7.04035 2.74014C7.05563 2.71366 7.08508 2.67506 7.11453 2.66513C7.13358 2.65825 7.1416 2.64409 7.14996 2.62931C7.15501 2.62039 7.16018 2.61125 7.16799 2.60336L7.16035 2.60998C7.13635 2.58681 7.12544 2.53938 7.13635 2.5085C7.14676 2.47869 7.17784 2.47675 7.20604 2.475C7.21332 2.47455 7.22041 2.47411 7.22689 2.4732C7.2625 2.46906 7.29963 2.45499 7.33732 2.44071C7.40011 2.41692 7.46445 2.39254 7.5258 2.41253C7.58004 2.4306 7.62383 2.41923 7.66961 2.40734C7.7021 2.3989 7.73558 2.3902 7.77452 2.39158C7.80826 2.39237 7.84595 2.38803 7.8819 2.38389C7.89594 2.38227 7.90971 2.38068 7.92289 2.37944C7.94545 2.37696 7.96582 2.36957 7.98616 2.36219C8.01104 2.35316 8.03589 2.34415 8.0647 2.34415C8.10179 2.34415 8.18579 2.35076 8.15634 2.40481C8.14106 2.43459 8.12252 2.48644 8.18143 2.48203C8.22276 2.47908 8.25695 2.44629 8.29079 2.41384C8.32036 2.38548 8.34967 2.35738 8.38324 2.34966C8.43233 2.33753 8.40724 2.39158 8.39197 2.40923C8.38652 2.41474 8.3287 2.50409 8.37561 2.48533C8.38651 2.47982 8.39524 2.4721 8.40179 2.46217C8.4153 2.44122 8.43775 2.43606 8.46175 2.43056C8.46681 2.42939 8.47193 2.42822 8.47706 2.42687C8.53379 2.41143 8.58724 2.39378 8.64178 2.37282C8.72495 2.34041 8.76684 2.36226 8.82591 2.39307C8.84122 2.40106 8.85769 2.40965 8.87633 2.41805C8.88474 2.42213 8.9077 2.42349 8.93491 2.42509C8.99588 2.42869 9.07821 2.43354 9.06614 2.4732C9.05597 2.50593 8.99561 2.5236 8.95687 2.53494C8.94991 2.53698 8.94366 2.53881 8.93851 2.54049C8.86217 2.56481 8.86903 2.59622 8.88319 2.66097C8.8838 2.66377 8.88442 2.66662 8.88505 2.66954C8.89573 2.71543 8.86884 2.76587 8.84236 2.81553C8.82556 2.84705 8.80892 2.87825 8.80215 2.9078C8.78687 2.97729 8.71378 3.07436 8.65597 3.11738C8.65246 3.12003 8.64877 3.12285 8.6449 3.12581C8.58136 3.17432 8.4714 3.25828 8.39633 3.2354C8.34942 3.22216 8.30143 3.21003 8.25343 3.1979C8.22806 3.19163 8.20503 3.17741 8.18268 3.16361C8.16176 3.1507 8.14143 3.13815 8.12034 3.13282C8.13485 3.09643 8.15369 3.10345 8.17307 3.11068C8.19011 3.11703 8.20757 3.12354 8.22288 3.10083C8.22615 3.11517 8.25779 3.12841 8.27088 3.11407C8.28092 3.10469 8.27729 3.08315 8.27431 3.0655C8.27309 3.05823 8.27197 3.05161 8.27197 3.04678C8.27088 3.00487 8.34288 2.95413 8.38106 2.94971C8.38577 2.94933 8.39062 2.94905 8.39553 2.94876C8.41901 2.94739 8.44393 2.94594 8.46288 2.93317C8.47948 2.92135 8.49401 2.92321 8.51036 2.9253C8.52301 2.92692 8.53676 2.92867 8.55342 2.92434C8.58069 2.91883 8.68542 2.85926 8.67124 2.82286C8.66209 2.82381 8.65384 2.82443 8.64621 2.825C8.60924 2.82778 8.58685 2.82947 8.54797 2.86147C8.55224 2.84515 8.56911 2.828 8.58581 2.81101C8.60751 2.78896 8.62893 2.76717 8.62215 2.74786C8.60289 2.74843 8.59333 2.76239 8.58371 2.77645C8.5748 2.78946 8.56584 2.80256 8.54906 2.80522C8.52782 2.80868 8.51777 2.78474 8.50837 2.76235C8.5028 2.74909 8.49746 2.73637 8.49015 2.73021C8.44455 2.69249 8.41278 2.7448 8.38086 2.79734C8.35399 2.84158 8.32702 2.88599 8.29161 2.87691C8.27695 2.87321 8.27037 2.8625 8.26395 2.85206C8.25509 2.83764 8.24654 2.82372 8.21743 2.82948C8.15525 2.84162 8.13888 2.88574 8.13452 2.94199C8.13303 2.96379 8.10673 2.98815 8.08218 3.01088C8.0707 3.02151 8.0596 3.03178 8.05161 3.04127C8.01234 3.0887 7.96216 3.07877 7.91634 3.04678C7.89863 3.03484 7.89002 3.01573 7.8815 2.99682C7.87112 2.9738 7.86088 2.95108 7.83452 2.94199C7.78871 2.92545 7.7298 2.93868 7.68834 2.96295C7.66318 2.97733 7.64433 2.9992 7.62574 3.02076C7.60724 3.04221 7.58901 3.06336 7.56507 3.07656C7.53146 3.09314 7.4812 3.0929 7.43839 3.09269C7.42424 3.09263 7.41091 3.09256 7.39926 3.09311C7.39633 3.09323 7.3923 3.09351 7.38746 3.09385C7.34712 3.09669 7.25012 3.1035 7.2618 3.0523C7.2637 3.04342 7.26643 3.03491 7.26904 3.02673C7.27846 2.9973 7.28651 2.97215 7.2498 2.94971L7.24831 2.94875C7.22388 2.93306 7.17834 2.90379 7.20399 2.87029C7.21362 2.85811 7.22816 2.85153 7.24251 2.84503C7.26065 2.83681 7.2785 2.82872 7.2858 2.80963C7.27614 2.80437 7.2657 2.79996 7.25534 2.79559ZM3.75022 11.4696C3.77422 11.4883 3.78404 11.5446 3.77094 11.5666C3.75458 11.5942 3.72076 11.6064 3.70658 11.57C3.66949 11.5358 3.6924 11.421 3.75022 11.4696ZM3.99323 8.22226C3.99742 8.22415 4.00231 8.22637 4.00767 8.23106C4.01625 8.23774 4.01524 8.24361 4.01408 8.25038C4.01332 8.2548 4.01249 8.2596 4.01421 8.26525C4.017 8.27202 4.02293 8.27648 4.02952 8.28144C4.03581 8.28618 4.0427 8.29136 4.04803 8.29945C4.06003 8.31489 4.05349 8.32813 4.04476 8.34578C4.01421 8.3921 3.95312 8.36784 3.91385 8.34578C3.89879 8.34197 3.87968 8.32831 3.8656 8.31826C3.86337 8.31666 3.86125 8.31515 3.85931 8.31379C3.85222 8.30882 3.84403 8.30414 3.83585 8.29945C3.82767 8.29476 3.81949 8.29007 3.8124 8.28511C3.79494 8.2807 3.76985 8.26856 3.77422 8.25202C3.77531 8.24099 3.80367 8.22113 3.81349 8.21782L3.84185 8.2079C3.85215 8.20096 3.85597 8.19227 3.85983 8.18349C3.8621 8.17831 3.86439 8.1731 3.86803 8.16819C3.88222 8.14833 3.89312 8.14944 3.91167 8.15716C3.91318 8.15792 3.91474 8.15892 3.91638 8.15996C3.92185 8.16344 3.92811 8.16742 3.93567 8.16488C3.94342 8.16186 3.94302 8.15885 3.94267 8.15619C3.94238 8.15399 3.94213 8.15204 3.94658 8.15054C3.98139 8.11864 3.97932 8.16902 3.97822 8.19555C3.97896 8.21558 3.98462 8.21836 3.99323 8.22226ZM9.17959 9.09253C9.19596 9.07819 9.23305 9.06496 9.25378 9.06385C9.27691 9.06729 9.28647 9.08018 9.29647 9.09367C9.3025 9.1018 9.3087 9.11016 9.31814 9.1168C9.33777 9.13224 9.36614 9.12562 9.38686 9.10577C9.39014 9.10216 9.39227 9.0988 9.39403 9.09604C9.3987 9.08868 9.40065 9.08561 9.41414 9.09364C9.42373 9.09687 9.43107 9.10427 9.43792 9.11117C9.44276 9.11605 9.44735 9.12068 9.45232 9.12342C9.46582 9.12724 9.48094 9.12241 9.49672 9.11736C9.51282 9.11221 9.52961 9.10684 9.54613 9.11018C9.55805 9.11272 9.56455 9.11817 9.57104 9.1236C9.57584 9.12762 9.58063 9.13163 9.58759 9.13445C9.60613 9.14438 9.60613 9.14438 9.62468 9.13996C9.63777 9.13114 9.65195 9.12783 9.6705 9.13776C9.67536 9.14089 9.6788 9.14493 9.68225 9.14899C9.68731 9.15495 9.69241 9.16095 9.70213 9.16423C9.7183 9.17092 9.7315 9.16859 9.74607 9.16603C9.75312 9.16479 9.76049 9.16349 9.76868 9.16313C9.77965 9.16476 9.78881 9.16813 9.79695 9.17112C9.81631 9.17825 9.82988 9.18324 9.84831 9.15761C9.85063 9.15278 9.85277 9.14799 9.85485 9.14332C9.86749 9.11501 9.87802 9.09143 9.91267 9.09143C9.94431 9.09364 9.96831 9.10798 9.94431 9.13335C9.92904 9.1521 9.91813 9.16975 9.92031 9.19953C9.92686 9.22269 9.94649 9.22269 9.96395 9.20835C9.97045 9.20177 9.97552 9.19338 9.98062 9.18494C9.99091 9.16789 10.0013 9.15064 10.0239 9.14769C10.0402 9.14651 10.0556 9.1538 10.0712 9.16119C10.0848 9.16767 10.0986 9.17423 10.1134 9.17526C10.1185 9.17563 10.1235 9.17551 10.1284 9.17538C10.1384 9.17514 10.1483 9.17489 10.1592 9.17857C10.1718 9.18253 10.1787 9.18763 10.186 9.19305C10.1889 9.19518 10.1918 9.19735 10.1952 9.19953C10.2092 9.20529 10.2215 9.20583 10.233 9.20634C10.2459 9.20691 10.2579 9.20744 10.2705 9.21497C10.2967 9.2344 10.314 9.25991 10.3308 9.28481C10.3426 9.30232 10.3543 9.31952 10.3687 9.3341C10.3782 9.3432 10.39 9.34953 10.4015 9.35572C10.4152 9.36304 10.4285 9.37018 10.4374 9.38153C10.4404 9.38669 10.4427 9.39118 10.4448 9.39526C10.4481 9.40164 10.4509 9.40703 10.4548 9.41241C10.4668 9.41903 10.4788 9.42565 10.4876 9.43889C10.4996 9.45426 10.4963 9.46786 10.4924 9.48403C10.491 9.4899 10.4895 9.49611 10.4887 9.50286C10.4846 9.52245 10.4929 9.53915 10.5029 9.55926C10.5036 9.56067 10.5043 9.56209 10.505 9.56353C10.5225 9.5889 10.5519 9.66611 10.4974 9.66942C10.4832 9.67383 10.4625 9.67383 10.4516 9.67163C10.442 9.67163 10.4397 9.67216 10.4383 9.67127C10.4369 9.67035 10.4364 9.66789 10.4298 9.6617C10.4138 9.65006 10.3979 9.63769 10.3825 9.62577C10.379 9.62301 10.3754 9.62028 10.3719 9.61758C10.3551 9.60261 10.3491 9.58387 10.3428 9.56446C10.339 9.55239 10.335 9.54007 10.3283 9.52823C10.3196 9.51257 10.3031 9.50559 10.2835 9.49728C10.281 9.49623 10.2785 9.49515 10.2759 9.49404C10.2683 9.48757 10.2625 9.48489 10.2552 9.48156C10.2501 9.47921 10.2443 9.47654 10.2367 9.47198C10.225 9.46803 10.2138 9.4686 10.2012 9.46925C10.1962 9.4695 10.191 9.46977 10.1854 9.46977C10.1538 9.46867 10.109 9.43006 10.0916 9.40469C10.0905 9.40275 10.0895 9.40091 10.0886 9.39918C10.0811 9.38521 10.0773 9.37822 10.0589 9.37822C10.051 9.37765 10.0429 9.38085 10.0347 9.38411C10.0268 9.38721 10.0188 9.39035 10.0109 9.39035C9.9946 9.39035 9.97994 9.38678 9.96538 9.38322C9.94377 9.37795 9.92238 9.37273 9.89631 9.37932C9.86585 9.38724 9.83956 9.38393 9.80857 9.38003C9.80071 9.37904 9.79255 9.37801 9.78395 9.37712C9.73922 9.37932 9.69122 9.3716 9.65741 9.34072C9.64911 9.33419 9.64237 9.32649 9.63555 9.31868C9.62622 9.30801 9.61672 9.29716 9.60286 9.28887C9.59325 9.28693 9.58301 9.28606 9.57315 9.28522C9.56064 9.28415 9.54875 9.28314 9.53959 9.28005C9.52915 9.27733 9.51797 9.27479 9.50653 9.27217C9.47613 9.26524 9.44386 9.25788 9.4185 9.24586C9.40064 9.23821 9.3871 9.22532 9.37326 9.21214C9.36513 9.20439 9.35688 9.19654 9.34759 9.1896C9.33265 9.18065 9.31407 9.17397 9.29539 9.16726C9.27725 9.16073 9.25901 9.15418 9.24396 9.14548C9.24212 9.14496 9.2401 9.1444 9.23792 9.1438C9.20775 9.13548 9.14907 9.11928 9.17959 9.09253ZM10.5199 10.358C10.514 10.3622 10.5078 10.3666 10.4996 10.3676C10.497 10.3685 10.4935 10.368 10.4897 10.3675C10.4836 10.3667 10.4766 10.3658 10.4712 10.3699C10.4424 10.3751 10.4436 10.3813 10.446 10.394C10.4472 10.4001 10.4486 10.4077 10.4472 10.4173C10.4467 10.429 10.4405 10.439 10.4344 10.4487C10.4268 10.4609 10.4194 10.4726 10.4243 10.4868C10.4288 10.507 10.4417 10.531 10.4522 10.5506C10.4543 10.5545 10.4563 10.5583 10.4581 10.5618C10.4952 10.6544 10.3687 10.5783 10.3414 10.5552C10.3374 10.5525 10.3335 10.5501 10.3296 10.5476C10.3059 10.5326 10.2852 10.5195 10.2814 10.4901C10.2746 10.4718 10.2736 10.454 10.2725 10.4356C10.272 10.4275 10.2715 10.4192 10.2705 10.4107C10.2669 10.367 10.2744 10.3243 10.2819 10.2816C10.286 10.2585 10.29 10.2354 10.2923 10.2121C10.2931 10.1863 10.2889 10.1654 10.2845 10.1433C10.2827 10.1342 10.2808 10.125 10.2792 10.115C10.2771 10.1088 10.2739 10.1025 10.2709 10.0964C10.2617 10.0779 10.253 10.0605 10.2727 10.0456C10.2863 10.0161 10.2817 9.99892 10.2748 9.97286C10.2734 9.96771 10.2719 9.96222 10.2705 9.95621C10.2607 9.93084 10.2563 9.91761 10.253 9.89003C10.2563 9.84977 10.24 9.8178 10.2229 9.78419C10.2115 9.76164 10.1996 9.73836 10.193 9.71134C10.1865 9.68155 10.2007 9.65177 10.2367 9.66832L10.2629 9.68045C10.2662 9.68577 10.2682 9.69096 10.2699 9.69557C10.2732 9.70434 10.2758 9.71099 10.2858 9.71244C10.2948 9.71656 10.3092 9.71213 10.3238 9.70758C10.3445 9.70118 10.3658 9.69457 10.3741 9.71134C10.3763 9.71732 10.3742 9.72143 10.372 9.72565C10.3698 9.72998 10.3675 9.73442 10.3698 9.74112C10.3748 9.75324 10.3862 9.75889 10.3947 9.76314C10.3955 9.76353 10.3963 9.76391 10.397 9.76428C10.4232 9.77642 10.4461 9.78745 10.4527 9.81723C10.4527 9.81987 10.4524 9.82231 10.4522 9.82472C10.4514 9.83239 10.4506 9.83967 10.4581 9.85142C10.4681 9.86153 10.4781 9.86145 10.4881 9.86137C10.489 9.86136 10.4899 9.86135 10.4908 9.86135C10.498 9.86235 10.5054 9.86284 10.5126 9.86332C10.5372 9.86496 10.5604 9.86651 10.5705 9.88782C10.5838 9.90641 10.5732 9.91382 10.5615 9.92197C10.5531 9.92784 10.5441 9.93409 10.5432 9.94518C10.5416 9.96375 10.5546 9.97759 10.5668 9.99059C10.5713 9.99536 10.5757 10 10.5792 10.0047C10.5934 10.0213 10.613 10.0467 10.6185 10.0698C10.622 10.0864 10.6173 10.0972 10.6125 10.1087C10.6082 10.1186 10.6038 10.1289 10.6043 10.1437C10.6024 10.157 10.6106 10.1677 10.6192 10.1788C10.6299 10.1925 10.641 10.2068 10.6338 10.2276C10.6312 10.2355 10.6274 10.2437 10.6234 10.2522C10.6135 10.273 10.6031 10.2952 10.6108 10.318C10.6157 10.3269 10.626 10.3331 10.636 10.3391C10.6509 10.3481 10.6652 10.3567 10.6599 10.3732C10.6523 10.3908 10.6141 10.3886 10.5945 10.3853C10.5836 10.3853 10.5727 10.3853 10.5618 10.3754C10.5568 10.3708 10.5554 10.365 10.5542 10.3601C10.5525 10.3533 10.5512 10.3481 10.541 10.35C10.5329 10.3488 10.5267 10.3533 10.5199 10.358ZM9.22887 2.41583C9.21402 2.41578 9.19899 2.41572 9.18396 2.41915C9.18396 2.41805 9.18369 2.41667 9.18341 2.41529C9.18314 2.41391 9.18287 2.41253 9.18287 2.41143C9.15996 2.40481 9.13378 2.38496 9.1425 2.35959C9.17087 2.34745 9.34432 2.32098 9.34977 2.36179C9.35277 2.38196 9.30836 2.39936 9.28821 2.40726C9.28632 2.408 9.28464 2.40866 9.28323 2.40923C9.26566 2.41596 9.24741 2.4159 9.22887 2.41583ZM10.0159 9.76853C10.0145 9.77772 10.0131 9.78675 10.0174 9.79627C10.019 9.80438 10.0274 9.81089 10.0355 9.81712C10.0438 9.8236 10.0518 9.82977 10.0512 9.83708C10.0512 9.8437 10.013 9.84701 10.0065 9.84701C9.99845 9.84958 9.99024 9.85115 9.98218 9.85269C9.96949 9.85512 9.95717 9.85748 9.94649 9.86356C9.94042 9.86663 9.93481 9.87041 9.92913 9.87425C9.92257 9.87868 9.91591 9.88317 9.90831 9.88672C9.87094 9.90325 9.88025 9.86865 9.88864 9.83746C9.892 9.82495 9.89522 9.81299 9.89522 9.8051C9.89631 9.79704 9.89451 9.78462 9.8925 9.77073C9.88846 9.74275 9.88355 9.7088 9.89958 9.69259L9.89631 9.67604C9.89631 9.67214 9.89583 9.66832 9.89534 9.66449C9.89404 9.65425 9.89274 9.64396 9.90068 9.63192C9.9027 9.6251 9.91138 9.61997 9.9203 9.61471C9.92581 9.61145 9.93141 9.60814 9.93558 9.60434C9.93971 9.60242 9.94383 9.59937 9.94793 9.59635C9.95792 9.58898 9.96775 9.58172 9.97704 9.59111C9.98467 9.59772 9.98795 9.60876 9.98795 9.61537C9.99776 9.6253 10.0087 9.63633 10.0152 9.64957C10.0185 9.66611 10.0185 9.68707 10.0109 9.70031C10.0087 9.71626 10.0108 9.72459 10.0134 9.735C10.0148 9.74043 10.0163 9.74642 10.0174 9.75436C10.0174 9.75918 10.0167 9.76387 10.0159 9.76853ZM9.16076 11.1688C9.11919 11.1854 9.06601 11.2067 9.03232 11.1905C8.98365 11.1668 9.02471 11.113 9.0542 11.0743C9.06304 11.0628 9.07084 11.0525 9.07487 11.0449C9.09152 11.0119 9.09353 10.9764 9.09555 10.9408C9.09684 10.918 9.09814 10.8952 9.10323 10.8728C9.08989 10.8716 9.08321 10.865 9.0763 10.8583C9.07134 10.8534 9.06625 10.8485 9.05851 10.8453C9.0548 10.8434 9.04796 10.8429 9.04133 10.8425C9.03624 10.8421 9.03128 10.8418 9.02796 10.8408C9.02297 10.8402 9.01799 10.8381 9.013 10.8361C9.00926 10.8345 9.00552 10.833 9.00178 10.832C8.99851 10.8585 8.95596 10.8839 8.95705 10.8464C8.94905 10.8442 8.94202 10.842 8.93499 10.8397C8.93148 10.8386 8.92796 10.8375 8.92433 10.8364C8.92542 10.8144 8.96578 10.7416 8.99305 10.7427L8.98542 10.7361C8.98901 10.7328 8.99263 10.7294 8.99626 10.7261C9.06208 10.6657 9.13438 10.5993 9.22432 10.5805C9.26796 10.5706 9.32141 10.5552 9.35196 10.5199C9.37247 10.4965 9.36623 10.472 9.35982 10.4469C9.35532 10.4292 9.35073 10.4112 9.35523 10.393C9.36658 10.345 9.42285 10.377 9.45382 10.3946C9.45559 10.3956 9.45727 10.3965 9.45886 10.3974C9.50795 10.425 9.55159 10.4438 9.60832 10.4228C9.6224 10.4172 9.63528 10.4108 9.6478 10.4045C9.67989 10.3885 9.70963 10.3736 9.75122 10.3776C9.81121 10.3824 9.82465 10.4132 9.84306 10.4555C9.84574 10.4616 9.84853 10.468 9.85158 10.4746C9.867 10.5077 9.89826 10.5237 9.92826 10.5391C9.97044 10.5608 10.0101 10.5812 9.99995 10.6456C9.93272 10.6825 9.96352 10.7327 9.99366 10.7819C10.0041 10.7989 10.0145 10.8158 10.0207 10.832C10.0304 10.858 10.0308 10.8862 10.0312 10.9142C10.0313 10.9206 10.0314 10.9271 10.0316 10.9335C10.0316 10.9393 10.0321 10.946 10.0326 10.9531C10.0345 10.9772 10.0367 11.0064 10.0207 11.0217C10.0073 11.0345 9.98137 11.038 9.95897 11.0411C9.95035 11.0423 9.94225 11.0434 9.93558 11.0449C9.92296 11.0483 9.9105 11.0529 9.89801 11.0574C9.87813 11.0647 9.85818 11.072 9.8374 11.0747C9.81496 11.0781 9.79442 11.0745 9.77464 11.0711C9.74248 11.0656 9.71232 11.0605 9.67922 11.0857C9.67146 11.0915 9.66447 11.0979 9.65749 11.1043C9.64583 11.115 9.63424 11.1256 9.61922 11.1332C9.59831 11.1433 9.57354 11.1483 9.54985 11.153C9.54265 11.1545 9.53554 11.1559 9.52868 11.1574C9.52518 11.1582 9.52161 11.1591 9.51796 11.16C9.49206 11.1664 9.463 11.1736 9.43814 11.1629C9.42596 11.1577 9.41717 11.148 9.40833 11.1383C9.40055 11.1298 9.39272 11.1212 9.3825 11.1155C9.34275 11.0925 9.2867 11.1172 9.23904 11.1381C9.22262 11.1453 9.2072 11.1521 9.19378 11.1563C9.18432 11.1593 9.17305 11.1638 9.16076 11.1688ZM9.51019 2.73057C9.50126 2.72329 9.49178 2.71556 9.48286 2.70594C9.43705 2.65741 9.40541 2.59123 9.41086 2.52615C9.41255 2.50531 9.40661 2.48579 9.4008 2.46669C9.39154 2.43625 9.38262 2.40689 9.40541 2.37503C9.46323 2.29451 9.66395 2.29782 9.75886 2.33091C9.97158 2.34194 10.181 2.3629 10.3883 2.42136C10.5126 2.45642 10.6292 2.50665 10.7456 2.5568C10.8489 2.60131 10.9521 2.64576 11.0603 2.67947C11.1694 2.71256 11.201 2.77212 11.165 2.87471C11.1347 2.96222 11.2117 2.98898 11.2811 3.01309L11.2828 3.01369C11.345 3.03685 11.4159 3.07877 11.3865 3.15598C11.3617 3.22123 11.2702 3.23609 11.2091 3.24601L11.2065 3.24643C11.129 3.25856 11.0679 3.27511 11.0243 3.3435L11.0208 3.34886C10.9669 3.43109 10.9266 3.49271 10.8476 3.55749C10.8316 3.57091 10.8228 3.59818 10.8142 3.62493C10.7989 3.67293 10.784 3.71927 10.7287 3.68103C10.7241 3.67776 10.7202 3.67481 10.7167 3.67219C10.6978 3.65796 10.6913 3.65304 10.6545 3.65676C10.625 3.66007 10.5945 3.68765 10.5879 3.71191C10.5823 3.71305 10.5764 3.72059 10.5703 3.72847C10.5585 3.74347 10.5459 3.75967 10.5323 3.73508C10.5203 3.74059 10.4548 3.76376 10.4428 3.75824C10.4334 3.75405 10.4249 3.73914 10.4163 3.72409C10.409 3.71141 10.4017 3.69862 10.3938 3.69206C10.3708 3.67337 10.38 3.6506 10.3893 3.6278C10.3981 3.6062 10.4069 3.58456 10.3883 3.56631C10.3599 3.53763 10.325 3.53432 10.2923 3.55418C10.2608 3.57476 10.2403 3.57097 10.2181 3.56685C10.2034 3.56412 10.1879 3.56126 10.1679 3.56521C10.1317 3.57193 10.1331 3.55588 10.135 3.53282C10.1359 3.52184 10.1369 3.50927 10.1341 3.49682C10.1112 3.48579 10.0839 3.488 10.061 3.49461C10.038 3.50128 10.0379 3.50606 10.0379 3.51371C10.0379 3.51618 10.0378 3.51896 10.037 3.52219C10.0279 3.51389 9.9913 3.51021 9.9751 3.50859C9.97194 3.50827 9.96956 3.50803 9.96831 3.50785C9.96619 3.4982 9.97823 3.48543 9.99155 3.47131C10.0056 3.45636 10.0212 3.4399 10.0229 3.42402C10.0229 3.4152 10.0119 3.33247 10.0087 3.32916C9.96722 3.29938 10.0316 3.28173 10.0556 3.30269C10.0698 3.31474 10.0828 3.30887 10.0969 3.30249C10.11 3.29661 10.1239 3.2903 10.1407 3.29717C10.1439 3.28063 10.0785 3.26077 10.0643 3.25856C10.0439 3.25554 10.0236 3.26714 10.0028 3.27895C9.98583 3.28865 9.96856 3.29849 9.95086 3.30048C9.94764 3.30075 9.94185 3.30216 9.93483 3.30386C9.91331 3.30908 9.88025 3.3171 9.87449 3.30379C9.86893 3.29255 9.87518 3.27653 9.87986 3.26452C9.88069 3.26239 9.88147 3.26039 9.88213 3.25856C9.86249 3.24202 9.84068 3.23209 9.81449 3.22989C9.80168 3.22881 9.78876 3.22937 9.7759 3.22993C9.74935 3.23109 9.72312 3.23223 9.69886 3.21885C9.69357 3.2158 9.68855 3.21285 9.68373 3.21003C9.64687 3.18842 9.62178 3.17371 9.5745 3.16591C9.53632 3.15929 9.50359 3.13723 9.49814 3.09862C9.49769 3.0961 9.49718 3.09325 9.49662 3.09014C9.49033 3.05524 9.47803 2.9869 9.48504 2.95854C9.50842 2.95381 9.51114 2.96491 9.51398 2.97658C9.51645 2.98669 9.51902 2.99722 9.53523 2.99825C9.55527 2.99948 9.57261 3.00344 9.59025 3.00747C9.6043 3.01068 9.61854 3.01394 9.6345 3.0159C9.64485 3.01702 9.65683 3.02017 9.66933 3.02345C9.69373 3.02986 9.72012 3.0368 9.74031 3.03024C9.76864 3.02152 9.7855 2.99241 9.79991 2.96752C9.81103 2.94832 9.82069 2.93164 9.83304 2.92876C9.83195 2.91773 9.8254 2.9089 9.81559 2.90228C9.83849 2.89677 9.8614 2.88905 9.87995 2.87581C9.874 2.8726 9.86517 2.87391 9.85659 2.87519C9.84159 2.87741 9.82739 2.87952 9.83086 2.85706C9.83295 2.84491 9.83754 2.83353 9.84211 2.82217C9.84709 2.80981 9.85206 2.79748 9.85377 2.78426C9.85922 2.73242 9.73377 2.73131 9.70322 2.74345C9.67813 2.75227 9.65522 2.76992 9.63995 2.79198C9.62086 2.82006 9.60039 2.81603 9.57194 2.81043C9.56463 2.80899 9.55679 2.80745 9.54832 2.80632C9.55387 2.76619 9.53402 2.75001 9.51019 2.73057ZM13.1024 12.9311L13.1035 12.9322C13.1031 12.9301 13.1027 12.9281 13.1023 12.926C13.0938 12.8839 13.0855 12.8423 13.1395 12.8318C13.1875 12.823 13.2159 12.8506 13.2486 12.8826C13.2857 12.9201 13.2584 12.9653 13.2115 12.9785C13.1855 12.9867 13.1683 12.9777 13.1505 12.9685C13.1369 12.9615 13.123 12.9543 13.1046 12.9543C13.1042 12.9514 13.1043 12.9482 13.1043 12.945C13.1044 12.9397 13.1045 12.9345 13.1024 12.9311ZM14.5836 11.4464C14.5844 11.45 14.5852 11.4537 14.5861 11.4574C14.5908 11.4553 14.5975 11.4545 14.6046 11.4536C14.6154 11.4523 14.6272 11.4509 14.6352 11.4442C14.6853 11.5344 14.5807 11.7167 14.5253 11.8133C14.5204 11.8219 14.5159 11.8298 14.5119 11.8369C14.4995 11.8585 14.485 11.8786 14.4707 11.8986C14.4485 11.9296 14.4265 11.9602 14.4126 11.9957C14.4033 12.0197 14.3989 12.0452 14.3946 12.0704C14.3869 12.116 14.3793 12.1605 14.3428 12.1932C14.3259 12.2078 14.3102 12.2192 14.295 12.2301C14.2692 12.2488 14.245 12.2662 14.2195 12.2969C14.2125 12.305 14.2053 12.3117 14.1985 12.3182C14.1841 12.3316 14.1709 12.3439 14.1628 12.3664C14.1571 12.3828 14.1572 12.3983 14.1573 12.4138C14.1575 12.4337 14.1576 12.4534 14.1453 12.4744C14.1182 12.5207 14.0713 12.5435 14.0252 12.5659C14.0065 12.5751 13.9879 12.5841 13.9708 12.5947C13.9442 12.612 13.923 12.6342 13.9019 12.6563C13.8813 12.6778 13.8608 12.6992 13.8355 12.716C13.8211 12.7257 13.8031 12.7388 13.7826 12.7537C13.6886 12.8222 13.5439 12.9276 13.4668 12.9013C13.4589 12.8472 13.5438 12.7912 13.5913 12.7599C13.596 12.7568 13.6004 12.7539 13.6043 12.7513C13.626 12.7366 13.6396 12.7195 13.6533 12.7023C13.6602 12.6936 13.6671 12.6848 13.6752 12.6763C13.6868 12.6649 13.699 12.6553 13.7112 12.6458C13.7367 12.6256 13.7618 12.6059 13.7788 12.5715C13.7934 12.542 13.7891 12.5021 13.7849 12.4632C13.7797 12.4149 13.7747 12.3681 13.8061 12.3443C13.8307 12.3262 13.8481 12.3314 13.8666 12.3369C13.8808 12.3412 13.8957 12.3456 13.9152 12.3399C13.9402 12.3318 13.9561 12.3143 13.9695 12.2996C13.9707 12.2983 13.9718 12.297 13.973 12.2958C14.0155 12.2329 13.9828 12.1182 13.9043 12.1016C13.925 12.0376 14.0504 11.9295 14.1268 11.9549C14.1252 11.9618 14.1226 11.9692 14.12 11.977C14.1121 12.0001 14.1031 12.0264 14.1137 12.052C14.1715 12.0487 14.2293 11.9671 14.2184 11.9119C14.213 11.8876 14.1846 11.8523 14.1606 11.8413C14.1236 11.8266 14.1108 11.8383 14.0963 11.8513C14.0891 11.8579 14.0814 11.8648 14.0701 11.8689C14.0378 11.8809 14.0036 11.8859 13.9687 11.8909C13.9269 11.897 13.8842 11.9032 13.8432 11.9218C13.833 11.9262 13.8234 11.9305 13.8142 11.9346C13.7578 11.9599 13.7144 11.9794 13.6413 11.9671C13.6348 11.9571 13.6348 11.9472 13.6413 11.9384C13.6502 11.9394 13.6613 11.9375 13.6725 11.9355C13.6847 11.9333 13.6971 11.9311 13.7068 11.9329C13.7103 11.8992 13.7624 11.8762 13.802 11.8587C13.8117 11.8544 13.8206 11.8505 13.8279 11.8468C13.8369 11.8416 13.8509 11.8345 13.8633 11.8281C13.8719 11.8237 13.8797 11.8197 13.8846 11.817C13.8914 11.8126 13.9001 11.8056 13.909 11.7985C13.92 11.7896 13.9313 11.7805 13.9392 11.7762C13.9564 11.7654 13.9778 11.7472 14.0012 11.7273C14.0518 11.6843 14.1118 11.6332 14.1595 11.6317C14.1813 11.6913 14.2152 11.7354 14.2861 11.7244C14.2902 11.7236 14.2941 11.7229 14.2977 11.7223C14.3232 11.718 14.335 11.716 14.3493 11.6725C14.3602 11.6406 14.3624 11.6097 14.3395 11.5821C14.4145 11.5859 14.4186 11.5524 14.4234 11.5129C14.427 11.4835 14.431 11.4507 14.465 11.4277C14.4884 11.447 14.5077 11.4406 14.5281 11.4337C14.5438 11.4285 14.5601 11.423 14.5795 11.4288C14.5809 11.4349 14.5822 11.4406 14.5836 11.4464ZM15.7037 8.45463C15.6933 8.52179 15.6812 8.59986 15.6999 8.63477C15.7384 8.70609 15.7281 8.79718 15.718 8.88578C15.7113 8.94518 15.7046 9.00346 15.713 9.05393C15.7479 9.2602 15.713 9.58559 15.6268 9.76318C15.5919 10.0511 15.5308 10.361 15.3955 10.6401C15.3874 10.6571 15.3789 10.6751 15.3701 10.6938C15.2778 10.8904 15.1477 11.1676 14.9166 11.1938C14.8782 11.1977 14.8088 11.2541 14.7466 11.3046C14.6852 11.3546 14.6307 11.3989 14.6199 11.3813C14.6106 11.3657 14.6019 11.3493 14.5931 11.3327C14.5586 11.2677 14.5232 11.2008 14.4475 11.1718C14.4068 11.1529 14.408 11.135 14.4091 11.1174C14.4102 11.102 14.4112 11.0868 14.3842 11.0714C14.3445 11.0496 14.3365 11.0022 14.329 10.9576L14.3286 10.9556C14.3002 10.96 14.2719 10.9655 14.2468 10.9798C14.2181 10.9964 14.1956 11.0204 14.1732 11.0443C14.154 11.0648 14.1347 11.0854 14.1115 11.1012C14.0788 11.0879 14.0232 11.0637 14.0275 11.0217C14.0181 11.0303 14.0085 11.0409 13.9988 11.0516C13.9638 11.0901 13.9278 11.1297 13.8944 11.0813C13.8703 11.0462 13.8749 11.0016 13.8792 10.9588C13.8812 10.9397 13.8831 10.921 13.8824 10.9037C13.8803 10.8486 13.8279 10.7658 13.7701 10.8353C13.7297 10.8839 13.7013 10.8905 13.6381 10.9026C13.6139 10.9077 13.5919 10.9174 13.5701 10.9271C13.5399 10.9405 13.5099 10.9538 13.4744 10.9545C13.3542 10.9572 13.3418 11.0024 13.3207 11.0799C13.3163 11.0959 13.3115 11.1134 13.3054 11.1321C13.2869 11.1861 13.237 11.2132 13.1865 11.2406C13.1474 11.2618 13.1081 11.2832 13.0828 11.3174C13.0775 11.3245 13.0703 11.3362 13.0616 11.3503C13.0206 11.4167 12.9471 11.5359 12.8832 11.4795C12.8464 11.4469 12.8871 11.383 12.9265 11.3212C12.9537 11.2785 12.9803 11.2368 12.9803 11.2071C12.9803 11.1721 12.9636 11.1455 12.9467 11.1187C12.9343 11.099 12.9219 11.0793 12.9159 11.0559C12.9129 11.0449 12.9117 11.0343 12.9106 11.0244C12.9077 10.9987 12.9053 10.9773 12.8723 10.9622C12.8995 10.9092 12.9312 10.8265 12.9039 10.768C12.869 10.6908 12.7425 10.7603 12.7119 10.8067C12.7078 10.8124 12.7029 10.82 12.6974 10.8288C12.6613 10.8852 12.5966 10.9865 12.5352 10.9081C12.5287 10.9008 12.5264 10.8926 12.5244 10.8854C12.521 10.8731 12.5183 10.8633 12.497 10.864C12.4741 10.864 12.4577 10.8784 12.4468 10.896C12.3977 10.8806 12.4163 10.8353 12.4348 10.8022C12.4569 10.7626 12.471 10.721 12.485 10.6796C12.5049 10.621 12.5246 10.5628 12.5668 10.511C12.6019 10.4675 12.6457 10.432 12.6895 10.3966C12.741 10.355 12.7926 10.3133 12.8297 10.2584C12.8537 10.2231 12.8952 10.1559 12.8614 10.115C12.8562 10.1089 12.8494 10.1042 12.8427 10.0995C12.8325 10.0923 12.8223 10.0851 12.8177 10.0731C12.8119 10.0593 12.8134 10.0444 12.8149 10.0296C12.8159 10.0196 12.8169 10.0097 12.8155 10.0003C12.7905 10.0103 12.7621 10.0213 12.7337 10.0125C12.7324 10.0019 12.7322 9.9911 12.7319 9.98029C12.7315 9.96409 12.7311 9.94782 12.7272 9.93195C12.7159 9.93635 12.7044 9.94381 12.6926 9.95147C12.6689 9.96684 12.6439 9.98306 12.617 9.97717C12.5973 9.97318 12.5889 9.97832 12.5795 9.98407C12.5708 9.98945 12.5612 9.99535 12.5406 9.99482C12.5574 9.96867 12.571 9.94086 12.5847 9.91304C12.6005 9.881 12.6162 9.84895 12.6366 9.81944C12.6451 9.80657 12.6549 9.79437 12.6648 9.78213C12.6802 9.76288 12.6958 9.74351 12.7065 9.72127C12.7296 9.67318 12.7133 9.6306 12.6968 9.58776C12.6838 9.55395 12.6707 9.51998 12.677 9.48301C12.6923 9.38815 12.7981 9.36498 12.881 9.37381C12.9127 9.37718 12.9458 9.39039 12.9793 9.40375C13.0335 9.42535 13.0887 9.44736 13.1406 9.42896C13.2192 9.40249 13.2432 9.29329 13.2203 9.22269C13.2093 9.18985 13.1853 9.1669 13.1615 9.14425C13.1287 9.11288 13.0965 9.08208 13.1003 9.02635C13.1016 9.00417 13.1067 8.98285 13.1119 8.96171C13.1198 8.92923 13.1276 8.89718 13.121 8.8631C13.1163 8.83882 13.1075 8.81581 13.0987 8.7927C13.0911 8.77278 13.0835 8.75278 13.0784 8.73184C13.0621 8.66355 13.0956 8.62631 13.1313 8.58669C13.1527 8.56295 13.1749 8.53836 13.1875 8.50572C13.191 8.49658 13.194 8.48475 13.1973 8.47203C13.2107 8.42024 13.2279 8.35379 13.2901 8.39541C13.3252 8.4191 13.335 8.45863 13.3449 8.4987C13.3543 8.53701 13.3639 8.5758 13.3959 8.60168C13.4723 8.66566 13.5759 8.62374 13.6533 8.58403C13.666 8.57755 13.6799 8.57107 13.6943 8.56433C13.7537 8.53666 13.8223 8.50467 13.8486 8.45057C13.8668 8.41425 13.8644 8.37568 13.862 8.33871C13.8585 8.28247 13.8552 8.22993 13.925 8.19466C13.9305 8.192 13.9369 8.18878 13.9441 8.18518C13.9997 8.15746 14.0992 8.10772 14.1475 8.12627C14.1796 8.13827 14.1983 8.16561 14.2171 8.193C14.2276 8.20842 14.2382 8.22386 14.2512 8.23658C14.2653 8.18914 14.285 8.14502 14.3155 8.10752C14.3318 8.08718 14.3498 8.06834 14.3675 8.04976C14.4208 7.99381 14.4718 7.94022 14.4693 7.85493C14.4879 7.76533 14.4756 7.73821 14.4581 7.69978C14.449 7.67954 14.4383 7.65616 14.4301 7.61887C14.4297 7.61591 14.4293 7.6119 14.4287 7.60697C14.4197 7.52952 14.3846 7.22705 14.4584 7.24053C14.6362 7.27142 14.4879 6.85337 14.4617 6.78498C14.453 6.76071 14.4126 6.72872 14.3842 6.71549C14.3411 6.67554 14.3078 6.69517 14.2782 6.71257C14.2547 6.7264 14.2336 6.73882 14.2119 6.7188C14.1653 6.66135 14.1615 6.57592 14.158 6.49772C14.157 6.47531 14.156 6.4535 14.1541 6.43311C14.1473 6.38906 14.1324 6.35022 14.1176 6.31196C14.0992 6.26401 14.0811 6.21698 14.0799 6.16176C14.0795 6.14399 14.0394 6.08846 13.9926 6.02352C13.9144 5.91508 13.8172 5.78041 13.8541 5.75143C13.8694 5.74274 13.9637 5.74441 14.0629 5.74616C14.1903 5.74841 14.3257 5.7508 14.3122 5.73158C14.2864 5.69387 14.2732 5.65643 14.2609 5.62114C14.2377 5.55524 14.2172 5.49681 14.1213 5.45802C14.0722 5.43779 14.0317 5.4 13.9913 5.36225C13.9546 5.32796 13.9179 5.29371 13.8748 5.27271C13.8312 5.25175 13.6468 5.11608 13.8028 5.10615C13.9053 5.09953 13.7821 4.94621 13.7363 4.93187C13.7132 4.92456 13.7004 4.94927 13.6896 4.97027C13.6743 4.99993 13.6628 5.02218 13.6315 4.93629C13.6195 4.91202 13.4003 4.63516 13.3948 4.66163C13.3911 4.68277 13.4026 4.70791 13.4145 4.7339C13.4268 4.76079 13.4396 4.7886 13.4363 4.81385C13.4215 4.93693 13.2611 4.74114 13.2338 4.70793C13.2308 4.70423 13.2294 4.70255 13.2301 4.70354C13.2179 4.69006 13.1931 4.66882 13.1649 4.64474C13.1103 4.59791 13.0431 4.54036 13.0315 4.50831C13.034 4.51566 13.0687 4.45458 13.087 4.42245C13.0934 4.41121 13.0978 4.40352 13.0981 4.40352C13.133 4.35719 13.097 4.30535 13.0566 4.26343C13.0386 4.24519 13.0162 4.2328 12.9945 4.22082C12.9559 4.19947 12.9197 4.17943 12.9148 4.12996C12.9146 4.12731 12.9116 4.12007 12.9076 4.11041C12.8932 4.07584 12.866 4.01022 12.9061 4.01194C12.9317 4.01393 12.9911 4.05498 13.0454 4.09244C13.0814 4.1173 13.1152 4.14058 13.1352 4.14982C13.2195 4.18871 13.2367 4.21958 13.2563 4.25496C13.2684 4.27678 13.2815 4.30032 13.3119 4.32851C13.341 4.34938 13.3745 4.37137 13.4099 4.39458C13.5111 4.46091 13.6275 4.53727 13.7003 4.62633C13.7155 4.65391 13.9152 4.85797 13.9228 4.78076C13.925 4.75428 13.853 4.55022 13.8235 4.5403C13.8235 4.5403 13.6926 4.37374 13.6893 4.3594C13.6904 4.36491 13.4821 4.11562 13.5334 4.12445C13.613 4.13879 13.8977 4.35057 13.8803 4.4322C13.8734 4.46299 13.9052 4.48878 13.9368 4.51445C13.9607 4.53382 13.9845 4.55314 13.9915 4.57449C13.9959 4.58883 14.1857 4.76201 14.2119 4.77414C14.2403 4.78738 14.3384 4.87893 14.3602 4.9065C14.3735 4.91584 14.386 4.91898 14.3971 4.92179C14.4188 4.92728 14.4356 4.93152 14.4442 4.9782C14.4497 5.01019 14.501 5.1238 14.5173 5.14586C14.5586 5.20089 14.5886 5.28203 14.6142 5.35138C14.6184 5.36266 14.6225 5.37363 14.6264 5.38412C14.655 5.46214 14.6508 5.54623 14.6466 5.62898C14.6449 5.66321 14.6432 5.69722 14.6439 5.73047C14.6499 5.74655 14.6361 5.7643 14.6214 5.78316C14.6069 5.80183 14.5915 5.82158 14.5937 5.84188C14.5972 5.87081 14.5993 5.90201 14.6014 5.9328C14.6039 5.97009 14.6064 6.0068 14.6112 6.03822C14.6148 6.0624 14.6359 6.10282 14.6582 6.14534C14.6897 6.2056 14.7235 6.27008 14.7126 6.29854C14.6814 6.36415 14.6895 6.37623 14.7129 6.41078C14.7214 6.42328 14.7319 6.43871 14.7432 6.46068C14.7571 6.48833 14.75 6.50799 14.7422 6.52934C14.7342 6.55143 14.7255 6.57534 14.7388 6.6118C14.6779 6.61783 14.6833 6.63575 14.6891 6.6549C14.6939 6.67075 14.6989 6.68745 14.6668 6.69894C14.6495 6.70132 14.6354 6.70209 14.623 6.70278C14.5893 6.70463 14.5681 6.70581 14.5282 6.73644C14.5086 6.75078 14.7552 7.11037 14.7999 6.76292C14.8119 6.66916 14.9122 6.57761 15.0071 6.539C15.028 6.53004 15.0484 6.54073 15.0663 6.55008C15.0925 6.56376 15.1133 6.57459 15.1217 6.51694C15.123 6.50584 15.1153 6.48491 15.1073 6.46307C15.0954 6.43065 15.0827 6.39624 15.0977 6.38899C15.1273 6.37816 15.1689 6.507 15.2065 6.6236C15.2341 6.709 15.2595 6.78783 15.2766 6.80042C15.3759 6.86991 15.4446 6.98463 15.4577 7.10596C15.4638 7.16649 15.515 7.24164 15.5668 7.31789C15.635 7.4181 15.7045 7.52021 15.6748 7.5935C15.6377 7.68506 15.6519 7.9542 15.6617 8.05568C15.6677 8.09528 15.6762 8.13207 15.6846 8.16849C15.6991 8.23148 15.7134 8.29335 15.714 8.36673C15.714 8.38815 15.7091 8.41994 15.7037 8.45463ZM13.4203 12.7913C13.415 12.8048 13.4105 12.816 13.409 12.823C13.4077 12.8308 13.4067 12.8399 13.4058 12.8497C13.401 12.8967 13.3948 12.9579 13.337 12.9488L13.3424 12.9377C13.3381 12.9366 13.3304 12.9377 13.3261 12.9388C13.3254 12.9415 13.3235 12.9443 13.3221 12.9462C13.3213 12.9474 13.3206 12.9483 13.3206 12.9488C13.321 12.9459 13.3214 12.9429 13.3218 12.9399C13.3251 12.915 13.329 12.8853 13.3174 12.8627C13.3062 12.8417 13.2851 12.8326 13.2643 12.8235C13.2567 12.8202 13.2491 12.8169 13.2421 12.8131C13.2159 12.7998 13.2094 12.7899 13.2257 12.7657C13.2274 12.7631 13.2291 12.7604 13.231 12.7575C13.2441 12.7373 13.2623 12.709 13.2814 12.6984C13.294 12.692 13.308 12.6936 13.3221 12.6952C13.3347 12.6966 13.3476 12.6981 13.3599 12.694C13.3679 12.6917 13.3757 12.6849 13.3837 12.6779C13.3952 12.6679 13.407 12.6576 13.4199 12.6609C13.4672 12.6737 13.4386 12.7453 13.4203 12.7913ZM14.2882 11.4641C14.2642 11.4729 14.2282 11.4762 14.2261 11.4431C14.2239 11.4431 14.2206 11.4431 14.2184 11.442C14.2195 11.4398 14.2206 11.4387 14.2217 11.4365L14.2162 11.4431C14.1955 11.4332 14.1595 11.4144 14.1508 11.3924C14.1427 11.3731 14.1543 11.3628 14.1671 11.3515C14.1734 11.3459 14.1799 11.3401 14.1846 11.3328C14.1902 11.3247 14.1931 11.3161 14.1958 11.3081C14.2015 11.291 14.2062 11.2769 14.2337 11.2777C14.2394 11.278 14.2435 11.2787 14.247 11.2793C14.254 11.2806 14.2584 11.2814 14.2686 11.2777C14.279 11.2746 14.2905 11.2675 14.3012 11.2609C14.3062 11.2577 14.311 11.2547 14.3155 11.2523C14.3242 11.2887 14.3352 11.3107 14.3526 11.3416C14.3701 11.3714 14.3581 11.3968 14.3384 11.4221C14.3371 11.4237 14.3358 11.4253 14.3344 11.4269C14.3215 11.4421 14.308 11.4581 14.2882 11.4641ZM10.4318 13.6696C10.377 13.7103 10.3215 13.7517 10.2879 13.8113C10.2489 13.8804 10.243 13.9577 10.2371 14.035C10.2305 14.1219 10.2238 14.2087 10.1701 14.2834C10.1379 14.3289 10.0993 14.3658 10.0614 14.4021C9.99815 14.4627 9.9367 14.5216 9.9094 14.6154L9.90892 14.6171C9.86875 14.7543 9.83248 14.8782 9.69122 14.9464C9.52868 15.0236 9.33996 15.0467 9.16214 15.0644C9.1413 15.0663 9.12037 15.068 9.0994 15.0697C8.9513 15.0818 8.80161 15.0941 8.67451 15.1791C8.53924 15.2695 8.40615 15.3468 8.23706 15.3468C8.1967 15.3468 8.15743 15.3446 8.11706 15.3412C8.09931 15.3546 8.08487 15.3709 8.07041 15.3873C8.05734 15.4021 8.04425 15.4169 8.0287 15.4295C7.97893 15.4697 7.92285 15.4411 7.87149 15.4149C7.85531 15.4067 7.8396 15.3986 7.82471 15.3931C7.83452 15.4129 7.8367 15.4328 7.83125 15.4538C7.81722 15.4484 7.80277 15.4512 7.78846 15.4541C7.77049 15.4576 7.75274 15.4611 7.73634 15.4482C7.7272 15.4417 7.71938 15.4335 7.7116 15.4254C7.69709 15.4102 7.68269 15.3952 7.65998 15.3909C7.62938 15.3855 7.6032 15.3876 7.57826 15.3895C7.53651 15.3928 7.4982 15.3958 7.44835 15.3633C7.36053 15.3063 7.27083 15.299 7.1735 15.291C7.14267 15.2885 7.11108 15.2859 7.07853 15.2817C6.9389 15.2629 6.80036 15.232 6.66399 15.1923C6.41963 15.1228 6.15564 15.0445 5.9331 14.9199C5.82946 14.8625 5.72255 14.7853 5.68546 14.6695C5.67798 14.6473 5.67731 14.622 5.67664 14.5968C5.67595 14.5707 5.67526 14.5447 5.66692 14.5228C5.65919 14.5033 5.59727 14.4915 5.55134 14.4827C5.53244 14.4791 5.51624 14.476 5.50765 14.4732C5.49192 14.4679 5.47121 14.4646 5.44939 14.4612C5.38344 14.4507 5.30743 14.4385 5.32874 14.3673C5.34376 14.3158 5.39835 14.3179 5.44663 14.3198C5.46146 14.3203 5.4757 14.3209 5.48801 14.3198C5.59056 14.311 5.58074 14.2062 5.51856 14.1522C5.50057 14.1361 5.47564 14.1231 5.45031 14.1098C5.39728 14.0821 5.3425 14.0534 5.3462 13.9944C5.34745 13.9775 5.35059 13.957 5.35402 13.9348C5.36842 13.841 5.38774 13.7152 5.29165 13.6867C5.2804 13.6834 5.26921 13.6803 5.25817 13.6772C5.18139 13.6559 5.11204 13.6367 5.08438 13.5576C5.07613 13.5332 5.06124 13.5126 5.04612 13.4918C5.03123 13.4713 5.01613 13.4504 5.00693 13.4253C4.98729 13.3756 4.93056 13.3282 4.88147 13.3083C4.86915 13.3031 4.84884 13.302 4.82738 13.3008C4.78998 13.2987 4.74907 13.2965 4.74075 13.2719C4.73093 13.2422 4.72111 13.2036 4.7222 13.1727C4.72651 13.1031 4.78973 13.1502 4.84401 13.1907C4.87231 13.2118 4.89819 13.2311 4.91202 13.2311C4.99602 13.2289 5.07129 13.1252 5.01347 13.0546C5.02188 13.0506 5.03263 13.0485 5.04364 13.0464C5.06549 13.0421 5.0884 13.0377 5.09638 13.0171C5.08697 13.0153 5.0742 13.017 5.06069 13.0188C5.03349 13.0224 5.00332 13.0264 4.99165 13.0028C4.98379 12.9874 4.987 12.9693 4.99021 12.9512C4.99412 12.9292 4.99802 12.9073 4.98184 12.8903C4.96535 12.8722 4.94063 12.8791 4.91642 12.8859C4.90219 12.8898 4.88813 12.8937 4.87602 12.8925C4.85146 12.8904 4.86701 12.8733 4.88157 12.8572C4.89029 12.8475 4.89866 12.8383 4.89784 12.8329C4.86775 12.8322 4.84096 12.8491 4.81498 12.8654C4.8014 12.874 4.78805 12.8824 4.77457 12.8881C4.75657 12.8964 4.73802 12.903 4.71947 12.9096C4.70093 12.9162 4.68238 12.9228 4.66439 12.9311C4.63716 12.9121 4.66569 12.8858 4.6839 12.869C4.68685 12.8662 4.68953 12.8638 4.69166 12.8616C4.72123 12.8336 4.70909 12.8031 4.69682 12.7723C4.69506 12.7679 4.6933 12.7635 4.69166 12.759C4.7702 12.7645 4.77239 12.7083 4.72657 12.6609C4.68919 12.6231 4.68568 12.5917 4.68176 12.5566C4.67938 12.5354 4.67685 12.5128 4.66657 12.4866C4.63493 12.4061 4.58475 12.4491 4.55639 12.4987C4.52239 12.5569 4.48883 12.5317 4.46245 12.5119C4.44736 12.5006 4.43461 12.491 4.42548 12.4998C4.40176 12.4311 4.34928 12.3948 4.29119 12.3545L4.28912 12.3531C4.25628 12.3314 4.24073 12.2989 4.22502 12.2661C4.21516 12.2455 4.20524 12.2247 4.19094 12.2064C4.17086 12.1812 4.1444 12.163 4.11798 12.1449C4.08556 12.1227 4.0532 12.1005 4.03276 12.0652C4.02 12.0432 4.00988 12.0197 3.99977 11.9962C3.98307 11.9575 3.96638 11.9188 3.93785 11.8865C3.93343 11.8815 3.9243 11.8731 3.91267 11.8623C3.85252 11.8068 3.72527 11.6892 3.83313 11.6615C3.85827 11.6547 3.88285 11.6616 3.90729 11.6683C3.93056 11.6748 3.95371 11.6812 3.97712 11.6758C4.0273 11.6648 4.04258 11.6064 4.04694 11.5644C4.05679 11.5766 4.06829 11.5813 4.07951 11.5859C4.09065 11.5904 4.10151 11.5948 4.11021 11.6064C4.12315 11.6256 4.14669 11.6336 4.16901 11.6411C4.17869 11.6444 4.18814 11.6476 4.19639 11.6516C4.20337 11.6317 4.19633 11.6043 4.18942 11.5775C4.18446 11.5583 4.17957 11.5393 4.18003 11.5236C4.18003 11.5146 4.17622 11.502 4.17238 11.4893C4.16727 11.4723 4.16211 11.4552 4.16585 11.4464C4.18003 11.4111 4.24657 11.3813 4.28039 11.3703C4.31348 11.3595 4.35169 11.3775 4.38422 11.3929C4.39138 11.3963 4.39826 11.3995 4.40475 11.4023C4.43979 11.4173 4.47793 11.4094 4.51414 11.4018L4.51712 11.4012C4.53566 11.3968 4.5553 11.3946 4.57493 11.3935C4.5793 11.3769 4.58802 11.3615 4.60111 11.3493C4.62948 11.3207 4.6622 11.3328 4.69275 11.3482C4.75166 11.3758 4.79966 11.2589 4.81057 11.2104C4.82475 11.1486 4.83129 11.0328 4.81384 10.971C4.81134 10.9619 4.80887 10.9536 4.80661 10.946C4.79112 10.8937 4.78522 10.8739 4.84329 10.8431C4.85521 10.8375 4.86019 10.8249 4.86536 10.8119C4.86635 10.8094 4.86734 10.8069 4.86838 10.8044C4.81275 10.7041 4.78329 10.5949 4.84002 10.5011C4.85391 10.4777 4.87291 10.4551 4.89179 10.4327C4.93521 10.381 4.97803 10.3301 4.95675 10.2717L5.11274 10.2849C5.19456 10.179 5.31565 10.1051 5.44656 10.0831C5.52292 9.99813 5.6451 9.90768 5.73673 9.97607C5.74896 9.98523 5.75931 9.99667 5.76965 10.0081C5.78422 10.0242 5.79877 10.0403 5.81855 10.05C5.84478 10.0623 5.87451 10.0606 5.90382 10.0588C5.91108 10.0583 5.91831 10.0579 5.92546 10.0577C6.052 10.0544 6.17746 10.1371 6.22436 10.2562C6.20909 10.275 6.19409 10.2937 6.17909 10.3125C6.16409 10.3312 6.14909 10.35 6.13382 10.3687C6.17091 10.5066 6.38473 10.5563 6.46763 10.4404C6.48831 10.4122 6.50176 10.3772 6.51497 10.3428C6.53731 10.2846 6.55898 10.2282 6.61381 10.2088C6.65745 10.1934 6.70763 10.2088 6.75563 10.2254L6.75781 10.2231C6.7589 10.2231 6.7589 10.2265 6.7589 10.2265C6.79926 10.2397 6.83963 10.2529 6.87235 10.2518C6.87672 10.2447 6.87917 10.2397 6.88176 10.2345C6.88435 10.2292 6.88708 10.2237 6.89199 10.2154C6.89141 10.216 6.89422 10.2203 6.89731 10.2251C6.90003 10.2293 6.90297 10.2338 6.90399 10.2364C6.90752 10.2346 6.91116 10.2335 6.91473 10.2324C6.9222 10.2302 6.92937 10.228 6.93454 10.2198C6.95271 10.1947 6.95238 10.1628 6.95204 10.1305C6.95177 10.1046 6.9515 10.0785 6.96072 10.0555C6.98035 10.007 7.03381 10.0081 7.07962 10.0279C7.11126 9.96394 7.14181 9.90215 7.18326 9.81392C7.20399 9.7687 7.18653 9.99702 7.1549 10.2231C7.1564 10.2242 7.15675 10.2259 7.15712 10.2276C7.15755 10.2297 7.15799 10.2319 7.16035 10.2331C7.18544 10.2408 7.21053 10.2198 7.22799 10.1989C7.242 10.1817 7.25476 10.1633 7.26754 10.1449C7.29258 10.1088 7.31768 10.0726 7.35235 10.0456C7.38726 10.018 7.43307 10.0136 7.47453 10.0235C7.478 10.0181 7.48151 10.0126 7.48499 10.007C7.50008 9.98313 7.51455 9.96021 7.52253 9.95842C7.53504 9.95555 7.54695 9.95222 7.55851 9.94899C7.60037 9.93727 7.63782 9.92679 7.68398 9.94408C7.70565 9.95265 7.72569 9.96493 7.74569 9.97718C7.772 9.99329 7.79823 10.0094 7.82798 10.0169C7.83641 10.019 7.84663 10.0206 7.85754 10.0222C7.89178 10.0274 7.93282 10.0337 7.94689 10.0621C7.95858 10.0876 7.97768 10.092 8.00482 10.0984C8.01059 10.0997 8.01674 10.1012 8.02325 10.1029C8.02625 10.1038 8.02988 10.1045 8.03378 10.1053C8.04977 10.1086 8.07037 10.1128 8.07125 10.1305C8.06906 10.1426 8.06252 10.1448 8.05052 10.1371C8.05373 10.1615 8.07767 10.1673 8.09965 10.1727C8.1075 10.1746 8.11511 10.1764 8.12143 10.179C8.15931 10.1949 8.19171 10.2187 8.22394 10.2424C8.22976 10.2466 8.23558 10.2509 8.24143 10.2551C8.30189 10.2992 8.34713 10.3594 8.39192 10.4189C8.40208 10.4324 8.41222 10.4459 8.42251 10.4592C8.4239 10.461 8.42576 10.4634 8.42794 10.4662C8.44804 10.4918 8.49631 10.5532 8.4727 10.5761C8.46296 10.586 8.44665 10.5888 8.43067 10.5915C8.4198 10.5934 8.40909 10.5953 8.4007 10.5993C8.39271 10.6029 8.38388 10.6068 8.37466 10.6108C8.3448 10.6237 8.31084 10.6384 8.28833 10.6544C8.27515 10.6635 8.26553 10.6757 8.25603 10.6877C8.24588 10.7005 8.23587 10.7132 8.22179 10.7217C8.16574 10.7551 8.11778 10.6996 8.08028 10.6562C8.06815 10.6422 8.05711 10.6294 8.04725 10.6213C8.01845 10.5975 8.01124 10.5634 8.00443 10.5313C7.99834 10.5025 7.99257 10.4753 7.97198 10.4581C7.92226 10.4149 7.85982 10.3885 7.79845 10.3625C7.77363 10.352 7.74899 10.3416 7.72543 10.3301C7.71387 10.3244 7.70202 10.3191 7.69014 10.3138C7.65606 10.2984 7.62175 10.283 7.59344 10.2584C7.59002 10.2554 7.58662 10.2523 7.58321 10.2493C7.56052 10.2287 7.53746 10.2078 7.50616 10.2011C7.50616 10.2011 7.50507 10.2022 7.50507 10.2033C7.49042 10.2573 7.54112 10.2879 7.58457 10.3142C7.59613 10.3212 7.60718 10.3278 7.61634 10.3346C7.65754 10.3643 7.67476 10.4058 7.69248 10.4486C7.69775 10.4613 7.70306 10.4741 7.70907 10.4868C7.73566 10.5425 7.77712 10.5898 7.81763 10.636C7.82366 10.6429 7.82967 10.6498 7.83561 10.6566C7.84252 10.664 7.85016 10.6707 7.8578 10.6775C7.87307 10.691 7.88834 10.7044 7.89779 10.7228C7.90369 10.7347 7.9045 10.7473 7.9053 10.7598C7.90627 10.775 7.90724 10.79 7.91743 10.8033C7.85541 10.8278 7.79916 10.7447 7.7534 10.677C7.73316 10.6471 7.71498 10.6202 7.69925 10.607C7.67853 10.5883 7.63598 10.5662 7.60762 10.5772C7.6054 10.5816 7.60296 10.5861 7.60046 10.5907C7.5845 10.6203 7.566 10.6546 7.5858 10.6765C7.59753 10.6891 7.60097 10.706 7.60439 10.7229C7.60638 10.7328 7.60837 10.7426 7.61198 10.7515C7.61951 10.7705 7.63277 10.7906 7.64528 10.8096C7.65089 10.8181 7.65634 10.8264 7.66107 10.8342C7.67034 10.8486 7.68316 10.8588 7.69598 10.869C7.7088 10.8792 7.72162 10.8894 7.73089 10.9037C7.73793 10.9154 7.74271 10.9278 7.74745 10.94C7.75079 10.9487 7.7541 10.9573 7.75816 10.9655C7.77452 10.9997 7.82143 11.0581 7.86616 11.0328C7.88616 11.0215 7.89494 10.9781 7.90318 10.9372C7.91517 10.8778 7.92604 10.8239 7.9687 10.8828C7.98011 10.8987 7.98915 10.9349 7.99934 10.9757C8.02226 11.0676 8.05102 11.1828 8.12579 11.1431C8.14683 11.1321 8.1593 11.1205 8.16947 11.111C8.18988 11.092 8.201 11.0817 8.25343 11.1023C8.26797 11.1075 8.28369 11.1003 8.29841 11.0935C8.32123 11.0831 8.34166 11.0737 8.35161 11.1133C8.36212 11.1509 8.37084 11.1546 8.39286 11.1639C8.40055 11.1671 8.40986 11.171 8.42142 11.1773C8.45443 11.195 8.45428 11.2374 8.45416 11.2699C8.45416 11.2718 8.45415 11.2736 8.45415 11.2754C8.45415 11.3163 8.45633 11.3648 8.50651 11.3736C8.54037 11.3786 8.54235 11.4095 8.54415 11.4377C8.54473 11.4467 8.54529 11.4555 8.54688 11.463C8.56284 11.5359 8.62591 11.5343 8.68451 11.5328C8.73402 11.5316 8.78034 11.5304 8.79233 11.5744C8.793 11.577 8.79364 11.5796 8.79427 11.5822C8.79981 11.6048 8.80506 11.6262 8.83051 11.6361C8.83517 11.638 8.84027 11.6395 8.84541 11.6409C8.85832 11.6445 8.87148 11.6483 8.87851 11.6593C8.88596 11.6695 8.89139 11.6787 8.89627 11.6869C8.91141 11.7125 8.92121 11.729 8.96905 11.7398C9.0476 11.7586 9.17196 11.7365 9.23087 11.6792C9.24181 11.669 9.24989 11.6529 9.25806 11.6366C9.26945 11.6139 9.281 11.5909 9.30068 11.5832C9.33996 11.5666 9.38577 11.6317 9.3945 11.6593C9.39826 11.67 9.40131 11.6803 9.40425 11.6903C9.41497 11.7266 9.42424 11.758 9.46105 11.7839C9.50795 11.8159 9.5505 11.8468 9.57559 11.8987C9.60665 11.9626 9.58362 12.018 9.56084 12.0728C9.53962 12.1238 9.51862 12.1743 9.54177 12.2307C9.55268 12.2571 9.57232 12.2803 9.59304 12.2991L9.59255 12.3004C9.588 12.313 9.57934 12.337 9.59195 12.3476C9.60728 12.361 9.62415 12.3533 9.63995 12.3462C9.65675 12.3386 9.67234 12.3316 9.68359 12.3509C9.73367 12.4411 9.64314 12.4899 9.57251 12.5279C9.55852 12.5354 9.54532 12.5425 9.53413 12.5495C9.47075 12.589 9.48542 12.681 9.49648 12.7503C9.49836 12.7621 9.50014 12.7732 9.50141 12.7833C9.52933 12.7817 9.55471 12.7685 9.58037 12.7552C9.60784 12.7409 9.63564 12.7265 9.66722 12.7259C9.75559 12.7259 9.68577 12.8484 9.65413 12.8749C9.58541 12.9311 9.46541 12.9454 9.38359 12.9068C9.37983 12.9052 9.37557 12.9031 9.371 12.9008C9.34509 12.8878 9.30897 12.8698 9.29414 12.9035C9.29001 12.9127 9.28477 12.9216 9.27955 12.9306C9.26273 12.9593 9.24605 12.9879 9.26687 13.0216C9.28702 13.0555 9.32299 13.069 9.35865 13.0823C9.40406 13.0994 9.44895 13.1162 9.45995 13.1749C9.46552 13.2053 9.44902 13.2312 9.43415 13.2546C9.41402 13.2861 9.39687 13.3131 9.44141 13.3403C9.48988 13.3697 9.51486 13.4071 9.5428 13.4488C9.54944 13.4588 9.55625 13.4689 9.56359 13.4793C9.58657 13.5123 9.61898 13.4984 9.64966 13.4852C9.68159 13.4715 9.71164 13.4586 9.72722 13.5003C9.71651 13.4628 9.75184 13.4624 9.78153 13.4621C9.79115 13.462 9.80018 13.4619 9.80686 13.4606C9.84504 13.4539 9.87449 13.4198 9.8854 13.3845C9.90219 13.3317 9.8517 13.3015 9.8093 13.276C9.79935 13.2701 9.78985 13.2644 9.78177 13.2587C9.74577 13.2333 9.75231 13.2157 9.78177 13.1881C9.77025 13.159 9.74824 13.1398 9.72606 13.1204C9.71041 13.1067 9.69468 13.0929 9.6825 13.0756C9.64541 13.0216 9.6705 12.9344 9.72504 12.9002C9.77883 12.8658 9.83091 12.9031 9.88209 12.9398C9.91292 12.9619 9.94342 12.9838 9.97376 12.9896C10.0022 12.995 10.0316 12.9967 10.061 12.9983C10.1263 13.002 10.1913 13.0057 10.2432 13.0513C10.2704 13.0744 10.2922 13.1015 10.314 13.1284C10.3474 13.1697 10.3805 13.2106 10.4319 13.2366C10.4377 13.2396 10.4435 13.2423 10.4492 13.2449C10.4802 13.2594 10.5084 13.2725 10.5148 13.3117C10.5193 13.3419 10.5394 13.347 10.5623 13.3528C10.5786 13.3569 10.5963 13.3614 10.6108 13.3756C10.6192 13.3837 10.6248 13.3933 10.6303 13.4027C10.6398 13.4192 10.649 13.4351 10.6719 13.4407C10.6108 13.5157 10.5421 13.5852 10.4647 13.6448C10.4539 13.6531 10.4428 13.6613 10.4318 13.6696ZM3.73495 11.7431C3.76222 11.7641 3.77531 11.7862 3.78076 11.8214C3.78546 11.8585 3.79422 11.8809 3.80632 11.9117C3.80826 11.9167 3.81029 11.9219 3.8124 11.9273C3.82331 11.9549 3.82549 12.0167 3.78404 12.0266C3.76026 12.0316 3.74769 12.0139 3.73512 11.9961C3.72808 11.9862 3.72104 11.9763 3.71204 11.9704C3.68652 11.9536 3.65687 11.9549 3.62856 11.9562C3.58424 11.9582 3.54323 11.96 3.52658 11.892C3.52343 11.8796 3.52164 11.8684 3.51996 11.8577C3.51582 11.8317 3.51229 11.8095 3.49059 11.7828C3.48702 11.7784 3.4834 11.7742 3.4799 11.7702C3.45986 11.747 3.44365 11.7282 3.46222 11.6935C3.49495 11.6328 3.59967 11.603 3.64113 11.6692C3.67068 11.666 3.68435 11.6891 3.69816 11.7125C3.7078 11.7289 3.71752 11.7454 3.73276 11.7531C3.73276 11.7494 3.73351 11.7473 3.73439 11.7448C3.73457 11.7442 3.73476 11.7437 3.73495 11.7431ZM3.73495 11.7431C3.73566 11.7419 3.73637 11.7408 3.73707 11.7397C3.73959 11.7356 3.74197 11.7318 3.74367 11.7266L3.72513 11.7354C3.7284 11.7376 3.73167 11.7398 3.73495 11.7431ZM4.60984 13.0966C4.62948 13.0955 4.65893 13.1164 4.65239 13.1352L4.64366 13.144C4.65239 13.1473 4.65893 13.1506 4.66111 13.1605C4.63959 13.1628 4.63473 13.1824 4.63004 13.2013C4.62784 13.2102 4.62568 13.2189 4.62184 13.2256C4.57166 13.2256 4.54766 13.1738 4.56948 13.1352C4.57602 13.1219 4.59239 13.0977 4.60984 13.0966ZM13.9307 13.319C13.9329 13.3063 13.935 13.2942 13.9468 13.283C13.967 13.2639 14.0009 13.2595 14.0344 13.2551C14.059 13.252 14.0833 13.2488 14.1017 13.24C14.1119 13.2352 14.123 13.2225 14.1347 13.2092C14.1532 13.1882 14.1729 13.1657 14.1923 13.1705C14.1366 13.3447 14.0297 13.4683 13.9032 13.5995C13.8736 13.63 13.8446 13.6611 13.8156 13.6922C13.7217 13.7931 13.6277 13.894 13.5126 13.9724C13.4845 13.9916 13.4564 14.011 13.4284 14.0304C13.3031 14.117 13.1775 14.2039 13.0403 14.2724C12.9392 14.3232 12.8534 14.3925 12.7672 14.4621C12.7111 14.5074 12.6548 14.5529 12.5941 14.5934C12.2537 14.8206 11.8937 15.0445 11.5021 15.1769C11.449 15.1951 11.3957 15.2141 11.3422 15.2332C11.1981 15.2846 11.0526 15.3365 10.9054 15.3743C10.8602 15.3858 10.8145 15.3961 10.7687 15.4065C10.7481 15.4112 10.7275 15.4159 10.7068 15.4207C10.7032 15.4215 10.6949 15.4242 10.6846 15.4275C10.655 15.437 10.608 15.452 10.5999 15.4471C10.5934 15.4328 10.4701 15.4593 10.4516 15.4692C10.3829 15.5045 10.3196 15.5199 10.2432 15.5199C10.2264 15.5199 10.2092 15.5186 10.1919 15.5174C10.1453 15.5139 10.0984 15.5103 10.0578 15.5321C10.0381 15.5431 9.94431 15.5641 9.97486 15.5089C9.98773 15.4855 10.0526 15.4914 10.0919 15.495C10.1026 15.496 10.1113 15.4968 10.1167 15.4968C10.1685 15.4958 10.2172 15.4782 10.2654 15.4608C10.274 15.4577 10.2826 15.4546 10.2912 15.4515C10.3241 15.4406 10.356 15.4291 10.3879 15.4175C10.4269 15.4034 10.4659 15.3893 10.5061 15.3765C10.515 15.3739 10.5237 15.3715 10.5323 15.3691C10.5627 15.3607 10.591 15.3529 10.6174 15.3357C10.6527 15.3126 10.6904 15.3061 10.7281 15.2996C10.7533 15.2953 10.7784 15.2909 10.8028 15.2817C10.8177 15.2761 10.8306 15.2648 10.8438 15.2532C10.8673 15.2325 10.8916 15.2111 10.9294 15.221C10.9399 15.2238 10.9486 15.2272 10.9569 15.2305C10.9719 15.2365 10.9858 15.242 11.0068 15.242C11.0368 15.2412 11.037 15.2355 11.0376 15.2214C11.0378 15.2155 11.0381 15.2081 11.0407 15.199C11.0516 15.157 11.0854 15.1504 11.1028 15.1846C11.1187 15.2152 11.1583 15.1906 11.1912 15.1701C11.2057 15.161 11.219 15.1528 11.2283 15.1504C11.2482 15.1457 11.2583 15.1347 11.2683 15.1237C11.2819 15.1088 11.2954 15.094 11.333 15.0953C11.366 15.0972 11.3926 15.0822 11.4197 15.0669C11.4401 15.0554 11.4608 15.0437 11.4847 15.039C11.4924 15.0372 11.5036 15.036 11.5161 15.0348C11.5493 15.0314 11.5914 15.027 11.6025 15.007C11.5272 15.0092 11.453 15.0203 11.3821 15.0489C11.3582 15.0585 11.3348 15.0695 11.3113 15.0805C11.2619 15.1036 11.2125 15.1267 11.1585 15.1372C11.1241 15.1433 11.089 15.145 11.0538 15.1466C11.0132 15.1485 10.9724 15.1504 10.9327 15.1592C10.889 15.1688 10.8482 15.1862 10.8075 15.2036C10.7821 15.2145 10.7568 15.2254 10.7308 15.2343C10.6719 15.2552 10.5967 15.2707 10.5378 15.2409C10.4723 15.2056 10.5345 15.1559 10.5792 15.1449C10.5983 15.1405 10.6189 15.1386 10.6396 15.1366C10.6816 15.1326 10.7245 15.1285 10.7581 15.1041C10.7962 15.077 10.809 15.0294 10.8204 14.987C10.8211 14.9845 10.8218 14.9819 10.8225 14.9794C10.7963 14.9817 10.5192 15.0026 10.6054 14.9254C10.6399 14.8934 10.6921 14.8827 10.7391 14.8731C10.7456 14.8718 10.7519 14.8705 10.7581 14.8691C10.7773 14.865 10.7963 14.8592 10.8153 14.8533C10.8524 14.8417 10.8897 14.8302 10.9294 14.8316C10.9552 14.8328 10.9777 14.8401 10.9991 14.847C11.0392 14.86 11.0755 14.8717 11.1225 14.8394C11.1382 14.8288 11.1529 14.8161 11.1676 14.8033C11.1927 14.7815 11.2181 14.7596 11.249 14.7478C11.2708 14.7388 11.2948 14.7416 11.3185 14.7443C11.3473 14.7477 11.3757 14.751 11.3996 14.7335C11.4144 14.7223 11.4246 14.7084 11.4346 14.6947C11.4504 14.6731 11.4657 14.6522 11.4977 14.6441C11.5102 14.641 11.5253 14.6393 11.5411 14.6376C11.5914 14.6321 11.6493 14.6257 11.6559 14.5669C11.6595 14.5411 11.6249 14.514 11.5939 14.4897C11.5771 14.4765 11.5614 14.4641 11.5534 14.4533C11.525 14.4136 11.4879 14.3617 11.4541 14.3264C11.4459 14.3181 11.4318 14.3118 11.4172 14.3053C11.3911 14.2936 11.3636 14.2813 11.3657 14.2559C11.3701 14.2069 11.4305 14.1988 11.4766 14.1927C11.4887 14.191 11.4998 14.1895 11.5087 14.1875C11.5287 14.1825 11.5473 14.1757 11.5655 14.169C11.6075 14.1537 11.6471 14.1392 11.6974 14.15C11.7596 14.1621 11.8065 14.1709 11.8621 14.1345C11.8697 14.1296 11.8771 14.1246 11.8845 14.1197C11.925 14.0927 11.9637 14.0669 12.0126 14.0529C12.0016 14.0748 11.9942 14.0982 11.9869 14.1217C11.9768 14.1538 11.9667 14.1859 11.9472 14.2139C11.9315 14.2362 11.9103 14.2542 11.8889 14.2722C11.8701 14.2881 11.8512 14.304 11.8359 14.3231C11.7432 14.439 11.9254 14.5051 11.9472 14.418C11.9504 14.4042 11.9506 14.3915 11.9507 14.3798C11.9511 14.3522 11.9513 14.3303 11.9919 14.3132C12.0014 14.3093 12.0123 14.3066 12.0234 14.3038C12.0533 14.2963 12.0839 14.2886 12.0879 14.2581C12.0956 14.2051 12.1588 14.1698 12.2101 14.1632C12.233 14.1599 12.2569 14.1497 12.2809 14.1394C12.3129 14.1258 12.3449 14.1121 12.3748 14.1147C12.3726 14.1167 12.3698 14.1191 12.3667 14.1217C12.3517 14.1343 12.3301 14.1524 12.3355 14.1698C12.3449 14.1631 12.3685 14.1547 12.3958 14.1449C12.454 14.1239 12.5292 14.0969 12.5188 14.0683C12.5025 14.0275 12.5265 14.0099 12.5635 13.9944C12.5734 13.9902 12.5828 13.9821 12.5923 13.9739C12.6048 13.9631 12.6175 13.9522 12.6312 13.9503C12.6354 13.9604 12.6385 13.971 12.6416 13.9813C12.6517 14.0159 12.661 14.0474 12.7097 14.0474C12.7577 14.0474 12.8057 14.0253 12.8428 13.9966C12.8628 13.9826 12.875 13.9645 12.887 13.9468C12.9033 13.9228 12.9191 13.8995 12.953 13.8874C13.0043 13.8698 13.0446 13.8477 13.0915 13.8213C13.1064 13.813 13.1206 13.8013 13.1351 13.7895C13.1611 13.7682 13.1876 13.7465 13.2192 13.7429C13.2432 13.7407 13.3021 13.7374 13.3184 13.7606C13.3384 13.7899 13.2702 13.8383 13.2341 13.8639C13.2267 13.8691 13.2207 13.8734 13.217 13.8764L13.2164 13.8769C13.1929 13.8961 13.129 13.9484 13.1766 13.9779C13.2049 13.9944 13.2433 13.9747 13.2738 13.9592C13.2821 13.9549 13.2898 13.9509 13.2966 13.9481C13.3055 13.9442 13.3145 13.9405 13.3236 13.9367C13.3605 13.9216 13.398 13.9063 13.4243 13.8753C13.4359 13.8618 13.4444 13.8465 13.4529 13.8314C13.4664 13.8069 13.4798 13.7829 13.5061 13.7672C13.5595 13.7352 13.5912 13.7032 13.6228 13.6492C13.6314 13.635 13.6361 13.6202 13.6407 13.6056C13.6472 13.585 13.6536 13.5647 13.6708 13.5466C13.6878 13.5274 13.691 13.5072 13.6942 13.4865C13.6966 13.4714 13.699 13.456 13.7068 13.4407C13.7331 13.394 13.7533 13.431 13.7682 13.4581C13.7712 13.4637 13.774 13.4688 13.7766 13.4727C13.7964 13.466 13.8086 13.448 13.8211 13.4296C13.8312 13.4146 13.8415 13.3994 13.8563 13.39C13.8622 13.3862 13.8696 13.3827 13.8773 13.379C13.8965 13.3698 13.918 13.3595 13.925 13.3414C13.9282 13.3338 13.9295 13.3263 13.9307 13.319ZM12.9443 13.0238C13.0119 12.9829 13.0446 13.0535 13.0064 13.1054C12.977 13.144 12.9039 13.1727 12.8581 13.1605C12.8203 13.1505 12.7933 13.1681 12.7642 13.1871C12.7487 13.1972 12.7326 13.2077 12.7141 13.2146C12.6955 13.1793 12.7315 13.1341 12.7719 13.1352C12.7817 13.1087 12.8297 13.069 12.8592 13.0756C12.8667 13.0776 12.8717 13.0818 12.8761 13.0854C12.8839 13.0917 12.8896 13.0964 12.9028 13.0844C12.9115 13.0766 12.9157 13.0665 12.9199 13.0566C12.9251 13.0441 12.9303 13.0317 12.9443 13.0238Z" fill="context-fill"/>
</svg>
