<svg width="18" height="18" viewBox="0 0 18 18" fill="none" xmlns="http://www.w3.org/2000/svg">
<path d="M12.9508 15.76L12.2441 13.981C12.5975 13.7439 12.8331 13.5067 13.1864 13.2695C13.422 13.0323 13.6576 12.6765 13.8932 12.4393L15.6601 13.1509C16.0135 13.2695 16.2491 13.1509 16.4847 12.7951L16.9558 11.7277C17.0736 11.3719 16.9558 11.1347 16.6024 10.8975L14.7177 10.186C14.8355 9.43953 14.8355 8.67906 14.7177 7.93263L16.4847 7.22106C16.5642 7.1929 16.6371 7.14842 16.6987 7.09042C16.7603 7.03242 16.8093 6.96217 16.8425 6.88413C16.8757 6.80608 16.8925 6.72194 16.8917 6.63704C16.8909 6.55213 16.8727 6.46831 16.838 6.39088L16.3669 5.32352C16.3389 5.24341 16.2947 5.17002 16.2371 5.10801C16.1795 5.04599 16.1097 4.9967 16.0322 4.96325C15.9547 4.9298 15.8711 4.91293 15.7868 4.9137C15.7025 4.91447 15.6192 4.93287 15.5423 4.96773L13.7754 5.67931C13.6122 5.34764 13.3692 5.06228 13.0686 4.84913C12.833 4.61194 12.4797 4.37475 12.2441 4.13755L12.9508 2.35861C13.0686 2.00282 12.9508 1.76563 12.5975 1.52844L11.5373 1.05405C11.1839 0.935456 10.9484 1.05405 10.7128 1.40984L10.1238 3.18878C9.38242 3.07018 8.62709 3.07018 7.88572 3.18878L7.17895 1.40984C7.15099 1.32973 7.10681 1.25635 7.0492 1.19433C6.9916 1.13232 6.92182 1.08302 6.84431 1.04958C6.76679 1.01613 6.68322 0.999255 6.59889 1.00003C6.51455 1.0008 6.4313 1.01919 6.3544 1.05405L5.29426 1.52844C5.15055 1.60593 5.0373 1.73032 4.97308 1.88118C4.90887 2.03204 4.89751 2.2004 4.94088 2.35861L5.64764 4.13755C5.31822 4.30191 5.03479 4.54651 4.82308 4.84913C4.55894 5.09986 4.32203 5.37815 4.11632 5.67931L2.34942 4.84913C1.99604 4.73054 1.76045 4.84913 1.52486 5.20492L1.17148 6.27229C1.10935 6.41675 1.09888 6.57842 1.14183 6.72979C1.18478 6.88115 1.27852 7.01285 1.40707 7.10246L3.17397 7.81404C3.05617 8.56047 3.05617 9.32094 3.17397 10.0674L1.40707 10.7789C1.3275 10.8071 1.25461 10.8516 1.19302 10.9096C1.13142 10.9676 1.08246 11.0378 1.04924 11.1159C1.01602 11.1939 0.99926 11.2781 1.00003 11.363C1.00079 11.4479 1.01906 11.5317 1.05369 11.6091L1.52486 12.6765C1.55282 12.7566 1.59701 12.83 1.65461 12.892C1.71222 12.954 1.78199 13.0033 1.85951 13.0367C1.93703 13.0702 2.0206 13.0871 2.10493 13.0863C2.18926 13.0855 2.27252 13.0671 2.34942 13.0323L4.11632 12.3207C4.27957 12.6524 4.52251 12.9377 4.82308 13.1509C5.05867 13.3881 5.41205 13.6253 5.64764 13.8624L4.94088 15.6414C4.82308 15.9972 4.94088 16.2344 5.29426 16.4716L6.3544 16.9459C6.70778 17.0645 6.94337 16.9459 7.17895 16.5902L7.76792 14.8112C8.5093 14.9298 9.26463 14.9298 10.006 14.8112L10.7128 16.5902C10.7407 16.6703 10.7849 16.7437 10.8425 16.8057C10.9001 16.8677 10.9699 16.917 11.0474 16.9504C11.1249 16.9839 11.2085 17.0007 11.2928 17C11.3772 16.9992 11.4604 16.9808 11.5373 16.9459L12.5975 16.4716C12.8331 16.353 13.0686 15.9972 12.9508 15.76ZM7.06116 10.8975C6.80749 10.6497 6.60529 10.3536 6.46634 10.0264C6.32739 9.69921 6.25446 9.34745 6.25179 8.9916C6.24912 8.63575 6.31676 8.28293 6.45079 7.95364C6.58481 7.62436 6.78254 7.3252 7.03247 7.07357C7.28239 6.82194 7.57953 6.62287 7.90658 6.48793C8.23364 6.35299 8.58408 6.28488 8.93752 6.28757C9.29096 6.29026 9.64034 6.36369 9.96533 6.50359C10.2903 6.64349 10.5844 6.84706 10.8306 7.10246C11.318 7.60828 11.5883 8.28685 11.583 8.9916C11.5777 9.69636 11.2973 10.3707 10.8023 10.8691C10.3073 11.3674 9.6375 11.6498 8.93752 11.6551C8.23753 11.6604 7.56356 11.3883 7.06116 10.8975Z" fill="context-fill"/>
</svg>
