<svg width="18" height="18" viewBox="0 0 18 18" fill="none" xmlns="http://www.w3.org/2000/svg">
<path d="M13.5193 6.38982L16.4384 3.58294C16.7942 4.2386 16.9867 4.97032 16.9998 5.71617C16.9948 6.31401 16.8716 6.90496 16.6371 7.45493C16.4026 8.0049 16.0616 8.503 15.6336 8.92051C15.2057 9.33801 14.6993 9.66666 14.1437 9.88749C13.5881 10.1083 12.9943 10.217 12.3965 10.2072C11.8538 10.2153 11.3164 10.1001 10.8247 9.87035L4.08815 16.4946C3.7367 16.8195 3.27564 17 2.79699 17C2.31834 17 1.85728 16.8195 1.50583 16.4946C1.18064 16.1432 1 15.6821 1 15.2034C1 14.7247 1.18064 14.2636 1.50583 13.9123L8.13006 7.28802C7.90018 6.71736 7.78569 6.10679 7.79323 5.49162C7.79819 4.89377 7.92147 4.30282 8.15595 3.75285C8.39043 3.20288 8.73148 2.70478 9.15942 2.28727C9.58737 1.86977 10.0937 1.54112 10.6493 1.32029C11.2049 1.09946 11.7987 0.990807 12.3965 1.00061C13.1424 1.01368 13.8741 1.20624 14.5297 1.56198L11.7229 4.36886C11.5973 4.49403 11.4976 4.64277 11.4296 4.80653C11.3616 4.9703 11.3266 5.14588 11.3266 5.3232C11.3266 5.50053 11.3616 5.67611 11.4296 5.83987C11.4976 6.00364 11.5973 6.15237 11.7229 6.27754C12.3965 7.17574 13.2947 6.50209 13.5193 6.38982ZM2.74085 14.3614C2.541 14.3614 2.34563 14.4206 2.17946 14.5316C2.01329 14.6427 1.88377 14.8005 1.80729 14.9851C1.73081 15.1698 1.7108 15.3729 1.74979 15.569C1.78878 15.765 1.88502 15.945 2.02634 16.0863C2.16766 16.2277 2.3477 16.3239 2.54372 16.3629C2.73973 16.4019 2.9429 16.3819 3.12754 16.3054C3.31219 16.2289 3.47 16.0994 3.58103 15.9332C3.69207 15.767 3.75133 15.5717 3.75133 15.3718C3.75133 15.1038 3.64487 14.8468 3.45537 14.6573C3.26587 14.4678 3.00885 14.3614 2.74085 14.3614Z" fill="context-fill"/>
</svg>
