<svg width="49" height="17" viewBox="0 0 49 17" fill="none" xmlns="http://www.w3.org/2000/svg">
<g filter="url(#filter0_dd_484_7)">
<path fill-rule="evenodd" clip-rule="evenodd" d="M14.8278 6.5C14.8278 8.98535 12.813 11 10.3278 11C9.46863 11 8.66565 10.7593 7.98279 10.3416L3.45447 14.8696L2 13.415L6.51843 8.89673C6.08093 8.20288 5.82776 7.38086 5.82776 6.5C5.82776 4.01465 7.84253 2 10.3278 2C12.813 2 14.8278 4.01465 14.8278 6.5ZM13.3278 6.5C13.3278 8.15674 11.9846 9.5 10.3278 9.5C8.6709 9.5 7.32776 8.15674 7.32776 6.5C7.32776 4.84326 8.6709 3.5 10.3278 3.5C11.9846 3.5 13.3278 4.84326 13.3278 6.5Z" fill="url(#paint0_linear_484_7)"/>
</g>
<g filter="url(#filter1_dd_484_7)">
<path fill-rule="evenodd" clip-rule="evenodd" d="M30.8278 6.5C30.8278 8.98535 28.813 11 26.3278 11C25.4686 11 24.6656 10.7593 23.9828 10.3416L19.4545 14.8696L18 13.415L22.5184 8.89673C22.0809 8.20288 21.8278 7.38086 21.8278 6.5C21.8278 4.01465 23.8425 2 26.3278 2C28.813 2 30.8278 4.01465 30.8278 6.5ZM29.3278 6.5C29.3278 8.15674 27.9846 9.5 26.3278 9.5C24.6709 9.5 23.3278 8.15674 23.3278 6.5C23.3278 4.84326 24.6709 3.5 26.3278 3.5C27.9846 3.5 29.3278 4.84326 29.3278 6.5Z" fill="url(#paint1_linear_484_7)"/>
</g>
<g filter="url(#filter2_dd_484_7)">
<path fill-rule="evenodd" clip-rule="evenodd" d="M46.8278 6.5C46.8278 8.98535 44.813 11 42.3278 11C41.4686 11 40.6656 10.7593 39.9828 10.3416L35.4545 14.8696L34 13.415L38.5184 8.89673C38.0809 8.20288 37.8278 7.38086 37.8278 6.5C37.8278 4.01465 39.8425 2 42.3278 2C44.813 2 46.8278 4.01465 46.8278 6.5ZM45.3278 6.5C45.3278 8.15674 43.9846 9.5 42.3278 9.5C40.6709 9.5 39.3278 8.15674 39.3278 6.5C39.3278 4.84326 40.6709 3.5 42.3278 3.5C43.9846 3.5 45.3278 4.84326 45.3278 6.5Z" fill="url(#paint2_linear_484_7)"/>
</g>
<defs>
<filter id="filter0_dd_484_7" x="0.5" y="0.5" width="15.8278" height="15.8696" filterUnits="userSpaceOnUse" color-interpolation-filters="sRGB">
<feFlood flood-opacity="0" result="BackgroundImageFix"/>
<feColorMatrix in="SourceAlpha" type="matrix" values="0 0 0 0 0 0 0 0 0 0 0 0 0 0 0 0 0 0 127 0" result="hardAlpha"/>
<feOffset/>
<feGaussianBlur stdDeviation="0.75"/>
<feComposite in2="hardAlpha" operator="out"/>
<feColorMatrix type="matrix" values="0 0 0 0 1 0 0 0 0 1 0 0 0 0 1 0 0 0 1 0"/>
<feBlend mode="normal" in2="BackgroundImageFix" result="effect1_dropShadow_484_7"/>
<feColorMatrix in="SourceAlpha" type="matrix" values="0 0 0 0 0 0 0 0 0 0 0 0 0 0 0 0 0 0 127 0" result="hardAlpha"/>
<feOffset/>
<feGaussianBlur stdDeviation="0.75"/>
<feComposite in2="hardAlpha" operator="out"/>
<feColorMatrix type="matrix" values="0 0 0 0 1 0 0 0 0 1 0 0 0 0 1 0 0 0 1 0"/>
<feBlend mode="normal" in2="effect1_dropShadow_484_7" result="effect2_dropShadow_484_7"/>
<feBlend mode="normal" in="SourceGraphic" in2="effect2_dropShadow_484_7" result="shape"/>
</filter>
<filter id="filter1_dd_484_7" x="16.5" y="0.5" width="15.8278" height="15.8696" filterUnits="userSpaceOnUse" color-interpolation-filters="sRGB">
<feFlood flood-opacity="0" result="BackgroundImageFix"/>
<feColorMatrix in="SourceAlpha" type="matrix" values="0 0 0 0 0 0 0 0 0 0 0 0 0 0 0 0 0 0 127 0" result="hardAlpha"/>
<feOffset/>
<feGaussianBlur stdDeviation="0.75"/>
<feComposite in2="hardAlpha" operator="out"/>
<feColorMatrix type="matrix" values="0 0 0 0 1 0 0 0 0 1 0 0 0 0 1 0 0 0 1 0"/>
<feBlend mode="normal" in2="BackgroundImageFix" result="effect1_dropShadow_484_7"/>
<feColorMatrix in="SourceAlpha" type="matrix" values="0 0 0 0 0 0 0 0 0 0 0 0 0 0 0 0 0 0 127 0" result="hardAlpha"/>
<feOffset/>
<feGaussianBlur stdDeviation="0.75"/>
<feComposite in2="hardAlpha" operator="out"/>
<feColorMatrix type="matrix" values="0 0 0 0 1 0 0 0 0 1 0 0 0 0 1 0 0 0 1 0"/>
<feBlend mode="normal" in2="effect1_dropShadow_484_7" result="effect2_dropShadow_484_7"/>
<feBlend mode="normal" in="SourceGraphic" in2="effect2_dropShadow_484_7" result="shape"/>
</filter>
<filter id="filter2_dd_484_7" x="32.5" y="0.5" width="15.8278" height="15.8696" filterUnits="userSpaceOnUse" color-interpolation-filters="sRGB">
<feFlood flood-opacity="0" result="BackgroundImageFix"/>
<feColorMatrix in="SourceAlpha" type="matrix" values="0 0 0 0 0 0 0 0 0 0 0 0 0 0 0 0 0 0 127 0" result="hardAlpha"/>
<feOffset/>
<feGaussianBlur stdDeviation="0.75"/>
<feComposite in2="hardAlpha" operator="out"/>
<feColorMatrix type="matrix" values="0 0 0 0 1 0 0 0 0 1 0 0 0 0 1 0 0 0 1 0"/>
<feBlend mode="normal" in2="BackgroundImageFix" result="effect1_dropShadow_484_7"/>
<feColorMatrix in="SourceAlpha" type="matrix" values="0 0 0 0 0 0 0 0 0 0 0 0 0 0 0 0 0 0 127 0" result="hardAlpha"/>
<feOffset/>
<feGaussianBlur stdDeviation="0.75"/>
<feComposite in2="hardAlpha" operator="out"/>
<feColorMatrix type="matrix" values="0 0 0 0 1 0 0 0 0 1 0 0 0 0 1 0 0 0 1 0"/>
<feBlend mode="normal" in2="effect1_dropShadow_484_7" result="effect2_dropShadow_484_7"/>
<feBlend mode="normal" in="SourceGraphic" in2="effect2_dropShadow_484_7" result="shape"/>
</filter>
<linearGradient id="paint0_linear_484_7" x1="8.41388" y1="2" x2="8.41388" y2="14.8696" gradientUnits="userSpaceOnUse">
<stop stop-color="#3B87BD"/>
<stop offset="1" stop-color="#2F5D93"/>
</linearGradient>
<linearGradient id="paint1_linear_484_7" x1="24.4139" y1="2" x2="24.4139" y2="14.8696" gradientUnits="userSpaceOnUse">
<stop stop-color="#246DAB"/>
<stop offset="1" stop-color="#1B427A"/>
</linearGradient>
<linearGradient id="paint2_linear_484_7" x1="40.4139" y1="2" x2="40.4139" y2="14.8696" gradientUnits="userSpaceOnUse">
<stop stop-color="#014699"/>
<stop offset="1" stop-color="#000558"/>
</linearGradient>
</defs>
</svg>
