<svg width="32" height="32" viewBox="0 0 32 32" fill="none" xmlns="http://www.w3.org/2000/svg">
<g clip-path="url(#clip0_547_63)">
<path d="M29 1H3C1.89543 1 1 1.89543 1 3V29C1 30.1046 1.89543 31 3 31H29C30.1046 31 31 30.1046 31 29V3C31 1.89543 30.1046 1 29 1Z" fill="white"/>
<path d="M3 1H29C29.5304 1 30.0391 1.23179 30.4142 1.64437C30.7893 2.05695 31 2.61652 31 3.2V23H1V3.2C1 2.61652 1.21071 2.05695 1.58579 1.64437C1.96086 1.23179 2.46957 1 3 1Z" fill="#E3E3E3"/>
<path d="M16 20.5C20.6944 20.5 24.5 16.6944 24.5 12C24.5 7.30558 20.6944 3.5 16 3.5C11.3056 3.5 7.5 7.30558 7.5 12C7.5 16.6944 11.3056 20.5 16 20.5Z" fill="#FCFCFC" stroke="#808080" stroke-width="1.15"/>
<path d="M19.3691 10.8743H15.3165L16.7799 9.4108C16.9425 9.19402 17.0215 8.92586 17.0023 8.65556C16.983 8.38526 16.867 8.13096 16.6754 7.93934C16.4838 7.74773 16.2295 7.63166 15.9592 7.61245C15.6888 7.59324 15.4207 7.67218 15.2039 7.83477L11.8267 11.212C11.6204 11.4224 11.5049 11.7053 11.5049 12C11.5049 12.2947 11.6204 12.5776 11.8267 12.788L15.2039 16.1652C15.4207 16.3278 15.6888 16.4068 15.9592 16.3876C16.2295 16.3684 16.4838 16.2523 16.6754 16.0607C16.867 15.8691 16.983 15.6148 17.0023 15.3445C17.0215 15.0742 16.9425 14.806 16.7799 14.5892L15.3165 13.1257H19.3691C19.6677 13.1257 19.954 13.0071 20.1652 12.796C20.3763 12.5849 20.4949 12.2986 20.4949 12C20.4949 11.7014 20.3763 11.4151 20.1652 11.204C19.954 10.9929 19.6677 10.8743 19.3691 10.8743Z" fill="#595959"/>
<path d="M1 22.5H30" stroke="#999999"/>
<path d="M29 1H3C1.89543 1 1 1.89543 1 3V29C1 30.1046 1.89543 31 3 31H29C30.1046 31 31 30.1046 31 29V3C31 1.89543 30.1046 1 29 1Z" stroke="#999999" stroke-width="2"/>
</g>
<defs>
<clipPath id="clip0_547_63">
<rect width="32" height="32" fill="white"/>
</clipPath>
</defs>
</svg>
