<?xml version="1.0" encoding="UTF-8"?>
<!-- This Source Code Form is subject to the terms of the Mozilla Public
   - License, v. 2.0. If a copy of the MPL was not distributed with this
   - file, You can obtain one at http://mozilla.org/MPL/2.0/. -->
<svg xmlns="http://www.w3.org/2000/svg" width="1184" height="32" viewBox="0 0 1184 32" class="fieldtext">
<style>

.fieldtext {
  fill: -moz-fieldtext;
  fill-opacity: .5;
}

@media (-moz-windows-default-theme: 0) {
  /* more opacity for high-contrast themes */
  .fieldtext {
    fill-opacity: .8;
  }
}

.highlighttext {
  fill: highlighttext;
  fill-opacity: 1;
}

.black {
  fill: black;
  fill-opacity: .6;
}

.white {
  fill: white;
  fill-opacity: .7;
}

</style>

<path d="M1055 14.3984C1054.78 14.7619 1054.35 15.0131 1054.1 15.1131C1054.21 14.983 1054.35 14.6782 1054.16 14.5641C1054.09 14.5236 1054.01 14.5352 1053.88 14.5536C1053.86 14.557 1053.84 14.5605 1053.81 14.5641C1052.31 14.7663 1049.3 15.4193 1049.3 16.4133C1050.97 16.3603 1054.3 16.9681 1054.3 19.8229C1054.17 19.635 1053.74 19.1497 1051.08 19.1497C1048.42 19.1497 1043.45 22.1585 1041.54 23.608C1041.46 23.6538 1041.36 23.7872 1041.54 23.9548C1041.71 24.1224 1042.1 24.0824 1042.26 24.0415C1041.21 25.361 1037.65 28 1031.8 28C1030.48 28 1029.36 27.7279 1028.43 27.2755C1026.45 25.3073 1025.01 22.8155 1024.34 20.0307C1024.59 20.4685 1025.14 20.9489 1026.21 20.9489C1027.67 20.9489 1028.63 20.4606 1028.99 20.1891C1032.39 17.2545 1034.19 14.8443 1035.03 13.7129C1035.19 13.5027 1035.31 13.3366 1035.41 13.2195C1036.02 12.4244 1037.38 10.8341 1037.89 10.3763C1038.88 9.05617 1041.38 6.41583 1043.46 6.41583H1044.51C1043.93 6.75775 1042.77 7.78254 1042.77 9.14636C1043.41 8.16395 1045.11 6.57422 1045.71 6.19913C1046.35 5.79942 1047.92 5 1049.12 5C1049.39 5 1049.65 5.01263 1049.9 5.03365C1050.13 5.23578 1050.36 5.44458 1050.57 5.65974C1050.49 5.73385 1050.44 5.82575 1050.44 5.93906C1050.57 5.92822 1050.7 5.92421 1050.84 5.92979C1053.05 8.20186 1054.54 11.1367 1055 14.3984Z"/>
<path d="M1054.11 21.6935L1053.37 20.5923C1053.35 20.5836 1053.32 20.5724 1053.27 20.5595C1052.99 20.4683 1052.36 20.3497 1051.08 20.3497C1050.61 20.3497 1049.95 20.4881 1049.13 20.775C1048.33 21.0558 1047.45 21.4518 1046.58 21.9024C1045.91 22.2474 1045.25 22.6178 1044.64 22.9817L1043.2 24.7895C1041.91 26.4076 1037.99 29.2 1031.8 29.2C1031.34 29.2 1030.91 29.1716 1030.49 29.117C1033.03 30.9319 1036.14 32 1039.5 32C1046.24 32 1051.97 27.6996 1054.11 21.6935Z"/>
<path d="M1024.36 19.8413C1024.12 18.7652 1024 17.6471 1024 16.5C1024 7.93959 1030.94 1 1039.5 1C1042.84 1 1045.93 2.05554 1048.46 3.85111C1047.85 3.94113 1047.25 4.13726 1046.76 4.33574C1046.06 4.61387 1045.45 4.94701 1045.07 5.18257C1045.05 5.19315 1045.04 5.20425 1045.02 5.21582H1043.46C1041.98 5.21582 1040.55 6.1161 1039.5 6.97199C1038.45 7.83419 1037.54 8.85073 1036.99 9.5702C1036.36 10.1727 1035.06 11.7013 1034.47 12.4773C1034.36 12.6121 1034.22 12.7887 1034.08 12.9761L1034.07 12.9995C1033.25 14.0979 1031.52 16.4151 1028.24 19.2504C1028.06 19.3776 1027.36 19.7489 1026.21 19.7489C1025.86 19.7489 1025.67 19.6725 1025.57 19.615C1025.46 19.5559 1025.41 19.4879 1025.38 19.4387L1024.36 19.8413Z"/>
<path d="M1058.08 1C1059.23 1 1060.16 1.92528 1060.16 3.06667V29.9333C1060.16 31.0747 1059.23 32 1058.08 32C1056.93 32 1056 31.0747 1056 29.9333V3.06667C1056 1.92528 1056.93 1 1058.08 1Z"/>
<path d="M1064.32 5.13333C1065.47 5.13333 1066.4 6.05861 1066.4 7.2V29.9333C1066.4 31.0747 1065.47 32 1064.32 32C1063.17 32 1062.24 31.0747 1062.24 29.9333V7.2C1062.24 6.05861 1063.17 5.13333 1064.32 5.13333Z"/>
<path d="M1068.48 5.13333C1068.48 3.99194 1069.41 3.06667 1070.56 3.06667C1071.71 3.06667 1072.64 3.99195 1072.64 5.13333V29.9333C1072.64 31.0747 1071.71 32 1070.56 32C1069.41 32 1068.48 31.0747 1068.48 29.9333V5.13333Z"/>
<path d="M1076.67 3.77352C1077.75 3.38314 1078.95 3.93615 1079.34 5.00871L1087.87 28.3131C1088.27 29.3856 1087.71 30.5716 1086.63 30.962C1085.55 31.3523 1084.36 30.7993 1083.97 29.7268L1075.43 6.42239C1075.04 5.34984 1075.59 4.16389 1076.67 3.77352Z"/>
<path d="M1096.02 1C1094.96 1 1093.94 1.42139 1093.19 2.17147C1092.44 2.92155 1092.02 3.93887 1092.02 4.99964H1096.02V1ZM1108.01 1H1104.01V4.99964H1108.01V1ZM1116 1V4.99964H1120C1120 3.93887 1119.58 2.92155 1118.83 2.17147C1118.08 1.42139 1117.06 1 1116 1ZM1102.01 1H1098.02V4.99964H1102.01V1ZM1114 1H1110.01V4.99964H1114V1ZM1116 10.9991H1120V6.99946H1116V10.9991ZM1116 22.998C1117.06 22.998 1118.08 22.5766 1118.83 21.8266C1119.58 21.0765 1120 20.0592 1120 18.9984H1116V22.998ZM1116 16.9986H1120V12.9989H1116V16.9986ZM1115.12 12.665C1114.51 11.796 1113.59 11.2042 1112.54 11.0197C1111.5 10.8352 1110.42 11.0731 1109.56 11.681L1101.89 17.3425L1097.96 14.5828C1097.99 14.3898 1098.01 14.1948 1098.02 13.9988C1098.02 13.2261 1097.83 12.4643 1097.49 11.7739C1097.14 11.0834 1096.64 10.4834 1096.02 10.0212V6.99946H1092.02V9.09927C1091.29 9.24517 1090.6 9.55364 1090 10.002C1089.4 10.4503 1088.91 11.0271 1088.57 11.6899C1088.22 12.3527 1088.03 13.0846 1088 13.8317C1087.98 14.5789 1088.12 15.3223 1088.42 16.0071C1088.72 16.692 1089.17 17.301 1089.73 17.7891C1090.3 18.2773 1090.97 18.6323 1091.69 18.828C1092.41 19.0236 1093.17 19.055 1093.9 18.9198C1094.63 18.7845 1095.33 18.4861 1095.93 18.0465L1098.42 19.7843L1095.62 21.7481C1094.64 21.154 1093.49 20.9151 1092.35 21.0717C1091.22 21.2283 1090.17 21.7709 1089.39 22.6082C1088.61 23.4454 1088.14 24.5264 1088.06 25.6693C1087.98 26.8123 1088.3 27.9475 1088.96 28.8842C1089.62 29.8209 1090.58 30.5019 1091.68 30.8128C1092.78 31.1237 1093.96 31.0456 1095.01 30.5915C1096.06 30.1373 1096.92 29.335 1097.45 28.3192C1097.98 27.3035 1098.15 26.1363 1097.92 25.0138L1115.12 12.665ZM1093.02 16.4986C1092.36 16.4986 1091.72 16.2352 1091.25 15.7664C1090.79 15.2976 1090.52 14.6618 1090.52 13.9988C1090.52 13.3359 1090.79 12.7 1091.25 12.2312C1091.72 11.7624 1092.36 11.4991 1093.02 11.4991C1093.68 11.4991 1094.32 11.7624 1094.79 12.2312C1095.26 12.7 1095.52 13.3359 1095.52 13.9988C1095.52 14.6618 1095.26 15.2976 1094.79 15.7664C1094.32 16.2352 1093.68 16.4986 1093.02 16.4986ZM1093.02 28.4975C1092.36 28.4975 1091.72 28.2342 1091.25 27.7654C1090.79 27.2966 1090.52 26.6607 1090.52 25.9978C1090.52 25.3348 1090.79 24.6989 1091.25 24.2301C1091.72 23.7614 1092.36 23.498 1093.02 23.498C1093.68 23.498 1094.32 23.7614 1094.79 24.2301C1095.26 24.6989 1095.52 25.3348 1095.52 25.9978C1095.52 26.6607 1095.26 27.2966 1094.79 27.7654C1094.32 28.2342 1093.68 28.4975 1093.02 28.4975ZM1103.81 23.64L1109.84 28.2396C1110.71 28.8475 1111.78 29.0854 1112.83 28.9009C1113.87 28.7164 1114.8 28.1246 1115.41 27.2556L1107.29 21.1982L1103.81 23.64Z"/>
<path d="M1143.98 8.00004C1142.21 8.00579 1140.5 8.59778 1139.1 9.68342C1137.71 10.7691 1136.71 12.2871 1136.27 14H1122C1121.47 14 1120.96 14.2108 1120.59 14.5858C1120.21 14.9609 1120 15.4696 1120 16C1120 16.5305 1120.21 17.0392 1120.59 17.4143C1120.96 17.7893 1121.47 18 1122 18V20C1122 20.5305 1122.21 21.0392 1122.58 21.4143C1122.96 21.7893 1123.47 22 1124 22C1124.53 22 1125.04 21.7893 1125.41 21.4143C1125.78 21.0392 1126 20.5305 1126 20V18H1127.99V20C1127.99 20.5305 1128.2 21.0392 1128.58 21.4143C1128.95 21.7893 1129.46 22 1129.99 22C1130.52 22 1131.03 21.7893 1131.4 21.4143C1131.78 21.0392 1131.99 20.5305 1131.99 20V18H1136.27C1136.64 19.4499 1137.41 20.7655 1138.5 21.7974C1139.58 22.8292 1140.93 23.5358 1142.4 23.8367C1143.87 24.1377 1145.39 24.021 1146.79 23.4998C1148.19 22.9786 1149.42 22.074 1150.33 20.8887C1151.25 19.7034 1151.81 18.2852 1151.96 16.7952C1152.11 15.3052 1151.84 13.8034 1151.18 12.4606C1150.51 11.1177 1149.49 9.98776 1148.22 9.19921C1146.94 8.41066 1145.48 7.99518 1143.98 8.00004ZM1143.98 20C1143.19 20 1142.42 19.7654 1141.76 19.3259C1141.1 18.8864 1140.59 18.2617 1140.29 17.5308C1139.99 16.7999 1139.91 15.9956 1140.06 15.2197C1140.21 14.4438 1140.6 13.731 1141.15 13.1716C1141.71 12.6122 1142.43 12.2312 1143.2 12.0769C1143.98 11.9226 1144.78 12.0018 1145.51 12.3045C1146.24 12.6073 1146.86 13.12 1147.3 13.7778C1147.74 14.4356 1147.98 15.2089 1147.98 16C1147.98 17.0609 1147.56 18.0783 1146.81 18.8285C1146.06 19.5786 1145.04 20 1143.98 20Z"/>
<path d="M1021.98 28H993.98C993.45 28 992.941 27.7893 992.566 27.4142C992.191 27.0391 991.98 26.5304 991.98 26V22C991.98 21.4696 992.191 20.9609 992.566 20.5858C992.941 20.2107 993.45 20 993.98 20H994C998.591 20 998 17 998.009 12C998.018 7.314 998.175 4 1004.27 4H1011.68C1017.81 4 1017.95 7.314 1017.98 12C1018 17 1017.39 20 1022 20H1021.98C1022.51 20 1023.02 20.2107 1023.39 20.5858C1023.77 20.9609 1023.98 21.4696 1023.98 22V26C1023.98 26.5304 1023.77 27.0391 1023.39 27.4142C1023.02 27.7893 1022.51 28 1021.98 28Z"/>
<path d="M975.969 29.969C972.264 29.969 968.711 28.4973 966.091 25.8776C963.472 23.2579 962 19.7048 962 16V8.333C962 7.18382 962.457 6.0817 963.269 5.26911C964.082 4.45651 965.184 4 966.333 4H985.6C986.749 4 987.851 4.45651 988.664 5.26911C989.476 6.0817 989.933 7.18382 989.933 8.333V16C989.933 19.7039 988.462 23.2563 985.843 25.8758C983.225 28.4954 979.673 29.9677 975.969 29.969ZM983.476 10.934C983.212 10.9338 982.95 10.9858 982.705 11.087C982.461 11.1882 982.239 11.3368 982.052 11.524L982.045 11.517L975.95 17.532L970.471 12.11C970.297 11.9004 970.082 11.7286 969.839 11.6052C969.596 11.4817 969.33 11.4092 969.058 11.3921C968.786 11.375 968.514 11.4136 968.257 11.5056C968.001 11.5976 967.766 11.7411 967.567 11.9272C967.368 12.1133 967.209 12.338 967.1 12.5878C966.991 12.8375 966.934 13.1068 966.933 13.3793C966.932 13.6518 966.986 13.9216 967.093 14.1723C967.2 14.423 967.357 14.6492 967.554 14.837L967.544 14.847L973.099 20.347L974.617 21.847C974.972 22.1954 975.45 22.3906 975.948 22.3906C976.445 22.3906 976.923 22.1954 977.278 21.847L984.836 14.388C985.04 14.2031 985.203 13.9778 985.314 13.7264C985.426 13.475 985.484 13.2031 985.485 12.928C985.484 12.665 985.432 12.4047 985.33 12.1621C985.229 11.9194 985.081 11.6991 984.894 11.5138C984.708 11.3285 984.486 11.1818 984.243 11.0822C984 10.9825 983.739 10.9318 983.476 10.933V10.934Z"/>
<path d="M951.947 10C952.117 10.8897 952.238 11.788 952.309 12.691L949 16H945V20L943 22H938.607C938.937 23.0753 939.393 24.1078 939.965 25.076L938.249 28.853C936.034 27.9329 934.071 26.4948 932.526 24.6595C930.982 22.8242 929.9 20.6452 929.371 18.3053C928.843 15.9653 928.883 13.5328 929.489 11.2117C930.095 8.89057 931.248 6.74864 932.853 4.9656C934.458 3.18256 936.467 1.81043 938.712 0.964318C940.957 0.11821 943.371 -0.177188 945.754 0.102909C948.136 0.383007 950.417 1.23043 952.404 2.57408C954.391 3.91772 956.027 5.71839 957.175 7.82501L955 10H951.947ZM938.292 26.023C937.538 24.7628 936.949 23.4107 936.54 22H933.721C934.888 23.6988 936.459 25.0812 938.292 26.023ZM932.616 20H936.053C935.793 18.681 935.639 17.3435 935.591 16H931.613C931.721 17.38 932.06 18.7321 932.616 20ZM932.616 10C932.061 11.2681 931.723 12.6202 931.616 14H935.594C935.642 12.6565 935.796 11.319 936.056 10H932.619H932.616ZM933.721 8.00001H936.54C936.949 6.58931 937.538 5.23717 938.292 3.97701C936.459 4.91878 934.888 6.30116 933.721 8.00001ZM943 2.61301C942.607 2.64401 942.223 2.70601 941.842 2.77301C940.253 4.14246 939.124 5.96721 938.607 8.00001H943V2.61301ZM943 10H938.086C937.821 11.3183 937.665 12.6561 937.619 14H943V10ZM943 16H937.619C937.665 17.3439 937.821 18.6817 938.086 20H943V16ZM945 14H950.381C950.335 12.6561 950.179 11.3183 949.914 10H945V14ZM946.158 2.77301C945.777 2.70601 945.393 2.64501 945 2.61301V8.00001H949.393C948.876 5.96721 947.747 4.14246 946.158 2.77301ZM949.708 3.97301C950.463 5.23443 951.052 6.58793 951.46 8.00001H954.279C953.112 6.30116 951.541 4.91878 949.708 3.97701V3.97301ZM947.068 28.3L939 32L942.726 23.953L947.068 28.3ZM944 23L957 10L961 14L948 27L944 23ZM947.4 29.6L958.6 18.4C957.964 21.1259 956.578 23.6196 954.599 25.5988C952.619 27.5781 950.126 28.9641 947.4 29.6Z"/>
<path d="M920.044 27.006L915.69 22.143C915.3 22.543 914.662 24.65 914.2 24.912H909.8C909.341 24.65 908.706 22.537 908.316 22.143L904.163 27.006H901V16.067L905.353 11.796C906.443 5.26 910.259 1 912 1C913.741 1 917.7 5.26 918.515 11.8L923 16.135V27.006H920.044ZM912.008 7.526C911.398 7.526 910.189 9.794 909.524 11.777C910.361 11.6277 911.209 11.5527 912.059 11.553C912.871 11.5523 913.681 11.6192 914.482 11.753C913.818 9.782 912.613 7.526 912.008 7.526ZM911.246 25.756C911.135 26.136 911.079 26.5301 911.081 26.926C911.058 27.2286 911.128 27.531 911.281 27.7929C911.434 28.0548 911.664 28.2638 911.939 28.392C912.229 28.2743 912.476 28.0708 912.647 27.8088C912.818 27.5468 912.905 27.2388 912.896 26.926C912.898 26.5301 912.843 26.1359 912.731 25.756H913.81C914.059 26.3932 914.241 27.0544 914.354 27.729C914.335 28.4492 914.101 29.1473 913.681 29.733C913.262 30.3186 912.676 30.7649 912 31.014C911.323 30.7514 910.738 30.2946 910.32 29.7009C909.901 29.1072 909.668 28.4031 909.648 27.677C909.761 27.0191 909.943 26.3752 910.192 25.756H911.243H911.246Z"/>
<path d="M880 31C877.033 31 874.133 30.1203 871.666 28.4721C869.2 26.8238 867.277 24.4812 866.142 21.7403C865.006 18.9994 864.709 15.9834 865.288 13.0737C865.867 10.1639 867.296 7.49119 869.393 5.3934C871.491 3.29562 874.164 1.86701 877.074 1.28823C879.983 0.709449 882.999 1.0065 885.74 2.14181C888.481 3.27713 890.824 5.19972 892.472 7.66645C894.12 10.1332 895 13.0333 895 16C895 19.9783 893.42 23.7936 890.607 26.6066C887.794 29.4197 883.978 31 880 31ZM879.963 8.20801V4.15901L873.635 9.35901L879.963 14.883V10.613C880.678 10.5927 881.389 10.7178 882.054 10.9808C882.72 11.2438 883.324 11.6392 883.832 12.1429C884.339 12.6467 884.739 13.2484 885.007 13.9114C885.275 14.5744 885.406 15.285 885.391 16C885.413 16.7139 885.288 17.4247 885.025 18.0887C884.762 18.7527 884.366 19.3557 883.861 19.8608C883.356 20.3658 882.753 20.7621 882.089 21.0253C881.425 21.2884 880.714 21.4129 880 21.391C878.862 21.436 877.738 21.1203 876.79 20.4889C875.842 19.8575 875.117 18.9426 874.72 17.875H872.531C872.985 19.7212 874.1 21.3369 875.665 22.4165C877.23 23.4961 879.136 23.9648 881.023 23.7339C882.91 23.5029 884.647 22.5884 885.906 21.1632C887.164 19.7381 887.857 17.9012 887.852 16C887.771 13.9428 886.911 11.9933 885.446 10.5465C883.981 9.09968 882.021 8.26374 879.963 8.20801Z"/>
<path d="M862 29H834C833.735 29 833.48 28.8946 833.293 28.7071C833.105 28.5196 833 28.2652 833 28V4C833 3.73478 833.105 3.48043 833.293 3.29289C833.48 3.10536 833.735 3 834 3H862C862.265 3 862.52 3.10536 862.707 3.29289C862.895 3.48043 863 3.73478 863 4V28C863 28.2652 862.895 28.5196 862.707 28.7071C862.52 28.8946 862.265 29 862 29ZM840 9H837C836.735 9 836.48 9.10536 836.293 9.29289C836.105 9.48043 836 9.73478 836 10V25C836 25.2652 836.105 25.5196 836.293 25.7071C836.48 25.8946 836.735 26 837 26H840V9ZM843 26H859C859.265 26 859.52 25.8946 859.707 25.7071C859.895 25.5196 860 25.2652 860 25V10C860 9.73478 859.895 9.48043 859.707 9.29289C859.52 9.10536 859.265 9 859 9H843V26ZM851 5.014C850.804 5.01578 850.614 5.07543 850.452 5.18544C850.29 5.29545 850.164 5.4509 850.091 5.63219C850.017 5.81348 849.999 6.01249 850.038 6.20416C850.078 6.39583 850.173 6.57156 850.312 6.70921C850.451 6.84687 850.628 6.94028 850.82 6.97768C851.012 7.01509 851.21 6.9948 851.391 6.91938C851.572 6.84397 851.726 6.71679 851.834 6.55389C851.942 6.391 852 6.19966 852 6.004C851.998 5.74028 851.892 5.48798 851.705 5.30254C851.517 5.11709 851.264 5.01267 851 5.014ZM854 5.014C853.804 5.01578 853.614 5.07543 853.452 5.18544C853.29 5.29545 853.164 5.4509 853.091 5.63219C853.017 5.81348 852.999 6.01249 853.038 6.20416C853.078 6.39583 853.173 6.57156 853.312 6.70921C853.451 6.84687 853.628 6.94028 853.82 6.97768C854.012 7.01509 854.21 6.9948 854.391 6.91938C854.572 6.84397 854.726 6.71679 854.834 6.55389C854.942 6.391 855 6.19966 855 6.004C854.998 5.74028 854.892 5.48798 854.705 5.30254C854.517 5.11709 854.264 5.01267 854 5.014ZM859 5H857C856.735 5 856.48 5.10536 856.293 5.29289C856.105 5.48043 856 5.73478 856 6C856 6.26522 856.105 6.51957 856.293 6.70711C856.48 6.89464 856.735 7 857 7H859C859.265 7 859.52 6.89464 859.707 6.70711C859.895 6.51957 860 6.26522 860 6C860 5.73478 859.895 5.48043 859.707 5.29289C859.52 5.10536 859.265 5 859 5Z"/>
<path d="M815.988 2.01301C818.754 2.01063 821.459 2.82861 823.761 4.36351C826.062 5.8984 827.857 8.08127 828.918 10.6361C829.978 13.1909 830.258 16.0029 829.721 18.7166C829.183 21.4302 827.853 23.9236 825.899 25.8815C823.945 27.8393 821.454 29.1736 818.741 29.7158C816.028 30.2579 813.216 29.9835 810.659 28.9272C808.102 27.8709 805.916 26.0802 804.377 23.7815C802.838 21.4828 802.016 18.7793 802.013 16.013C802.013 12.3043 803.485 8.74713 806.105 6.12234C808.725 3.49755 812.279 2.01963 815.988 2.01301ZM814.923 4.40001C814.634 4.36398 814.34 4.38815 814.061 4.471C813.782 4.55385 813.523 4.69359 813.3 4.88143C813.077 5.06927 812.896 5.30115 812.767 5.56249C812.638 5.82383 812.565 6.10898 812.552 6.40001C812.527 6.68777 812.563 6.97753 812.657 7.25055C812.751 7.52358 812.902 7.77379 813.099 7.98501C813.198 8.0752 813.274 8.18658 813.324 8.31077C813.373 8.43496 813.394 8.56872 813.384 8.70201C813.369 8.90522 813.312 9.10304 813.215 9.28271C813.119 9.46238 812.987 9.6199 812.826 9.74512C812.665 9.87035 812.48 9.96048 812.282 10.0097C812.085 10.059 811.879 10.0662 811.678 10.031H808.478C808.328 10.0385 808.188 10.1034 808.085 10.2122C807.982 10.321 807.925 10.4653 807.926 10.615C807.915 10.676 807.926 13.077 807.926 13.077C807.862 13.5914 807.963 14.1129 808.215 14.566C808.294 14.7141 808.418 14.8336 808.569 14.9073C808.72 14.9811 808.89 15.0055 809.056 14.977C809.626 14.9815 810.185 14.8116 810.656 14.49C810.82 14.3392 811.012 14.2234 811.222 14.1498C811.432 14.0762 811.655 14.0463 811.877 14.062C812.985 14.062 813.17 14.512 813.17 15.918C813.17 16.931 812.701 17.849 811.908 17.849C811.727 17.8745 811.542 17.8525 811.373 17.7852C811.203 17.7178 811.053 17.6075 810.939 17.465C810.462 17.0538 809.851 16.8299 809.221 16.835C809.025 16.8065 808.825 16.8375 808.646 16.9239C808.468 17.0104 808.32 17.1484 808.221 17.32C807.882 17.864 807.921 18.575 807.921 20.088C807.921 22.103 807.921 23.336 807.921 23.373C807.91 23.4536 807.916 23.5356 807.939 23.6138C807.961 23.692 807.999 23.7647 808.051 23.8274C808.103 23.8901 808.167 23.9415 808.24 23.9782C808.312 24.015 808.392 24.0363 808.473 24.041H811.673C812.745 24.041 814.547 24.402 814.547 22.991C814.543 22.5755 814.379 22.1774 814.089 21.88C813.825 21.5568 813.691 21.1475 813.712 20.731C813.712 20.446 813.644 19.448 815.38 19.448C815.451 19.448 817.014 19.596 817.014 20.794C817.044 20.9749 817.038 21.16 816.996 21.3385C816.953 21.517 816.876 21.6854 816.769 21.834C816.584 21.9664 816.435 22.1417 816.333 22.3449C816.231 22.548 816.18 22.7729 816.185 23C816.185 24.5 817.868 24.039 818.398 24.039C820.282 24.039 821.161 24.056 821.429 24.039C821.589 24.028 821.739 23.9562 821.848 23.8383C821.956 23.7205 822.016 23.5654 822.014 23.405C822 22.875 822 22.735 822 19.861C821.926 19.1037 821.984 18.3394 822.172 17.602C822.248 17.5044 822.35 17.4307 822.466 17.3897C822.583 17.3487 822.709 17.3422 822.829 17.371C823.209 17.3895 823.574 17.5234 823.876 17.755C824.05 18.037 824.288 18.2747 824.57 18.4493C824.852 18.6239 825.171 18.7306 825.501 18.761C826.887 18.761 827.626 17.139 827.626 15.982C827.626 14.75 826.998 13.228 825.468 13.228C825.178 13.2333 824.893 13.3006 824.632 13.4253C824.37 13.55 824.138 13.7292 823.952 13.951C823.748 14.2535 823.433 14.4633 823.076 14.535C822.826 14.5272 822.586 14.437 822.393 14.2783C822.2 14.1196 822.065 13.9015 822.009 13.658V10.738C822.008 10.5743 821.952 10.4156 821.851 10.2871C821.749 10.1587 821.608 10.0678 821.449 10.029C821.437 10.029 819.568 10.029 818.109 10.029C817.915 10.0476 817.719 10.0256 817.534 9.96439C817.348 9.90319 817.178 9.80413 817.033 9.67351C816.888 9.54289 816.772 9.38356 816.692 9.20564C816.612 9.02772 816.57 8.8351 816.568 8.64001C816.545 8.46564 816.558 8.28842 816.606 8.11922C816.654 7.95002 816.736 7.7924 816.847 7.65601C817.019 7.48938 817.156 7.29007 817.25 7.06976C817.344 6.84945 817.394 6.61257 817.395 6.37301C817.392 5.66601 817.042 4.40001 814.923 4.40001Z"/>
<path d="M787.333 16C786.911 16.464 786.396 16.8348 785.822 17.0885C785.248 17.3421 784.628 17.4732 784 17.4732C783.372 17.4732 782.752 17.3421 782.178 17.0885C781.604 16.8348 781.089 16.464 780.667 16L769.39 6.7C769.684 6.17982 770.112 5.74786 770.63 5.44893C771.147 5.15 771.735 4.995 772.333 5H795.667C796.265 4.99489 796.853 5.14985 797.37 5.44879C797.888 5.74773 798.316 6.17975 798.61 6.7L787.333 16ZM780.667 19.143C781.089 19.607 781.604 19.9778 782.178 20.2315C782.752 20.4851 783.372 20.6162 784 20.6162C784.628 20.6162 785.248 20.4851 785.822 20.2315C786.396 19.9778 786.911 19.607 787.333 19.143L799 9.243V23.857C798.974 24.7155 798.609 25.5287 797.984 26.118C797.359 26.7073 796.526 27.0245 795.667 27H772.333C771.475 27.0242 770.641 26.7069 770.017 26.1177C769.392 25.5285 769.026 24.7155 769 23.857V9.243L780.667 19.143Z"/>
<path d="M763.005 16C763.005 17.307 763.43 18.516 764.035 18.728L765 19.068C764.669 20.4668 764.114 21.8028 763.356 23.024L762.435 22.581C761.857 22.303 760.702 22.857 759.778 23.781C758.854 24.705 758.3 25.86 758.578 26.438L759.022 27.361C757.796 28.1114 756.458 28.6591 755.058 28.983L754.725 28.034C754.513 27.434 753.304 27.004 751.997 27.004C750.69 27.004 749.481 27.429 749.269 28.034L748.929 29.003C747.53 28.672 746.194 28.1168 744.973 27.359L745.416 26.438C745.694 25.86 745.14 24.705 744.216 23.781C743.292 22.857 742.136 22.303 741.558 22.581L740.635 23.025C739.885 21.7994 739.337 20.4609 739.013 19.061L739.962 18.728C740.57 18.516 741 17.308 741 16C741 14.692 740.575 13.484 739.97 13.272L738.999 12.931C739.337 11.534 739.9 10.2013 740.666 8.985L741.566 9.418C742.144 9.696 743.299 9.142 744.224 8.218C745.149 7.294 745.702 6.138 745.424 5.561L744.991 4.661C746.206 3.89775 747.537 3.33679 748.932 3L749.272 3.969C749.484 4.57 750.693 5 752 5C753.307 5 754.516 4.575 754.728 3.97L755.068 3C756.467 3.33098 757.803 3.88616 759.024 4.644L758.581 5.565C758.304 6.142 758.857 7.298 759.781 8.222C760.705 9.146 761.86 9.7 762.438 9.422L763.361 8.978C764.112 10.2033 764.659 11.5419 764.983 12.942L764.034 13.275C763.43 13.485 763.005 14.693 763.005 16ZM752 8.946C750.605 8.946 749.241 9.35971 748.081 10.1348C746.921 10.9099 746.017 12.0116 745.483 13.3006C744.949 14.5895 744.809 16.0078 745.082 17.3762C745.354 18.7445 746.026 20.0014 747.012 20.9879C747.999 21.9744 749.255 22.6463 750.624 22.9185C751.992 23.1906 753.411 23.0509 754.699 22.517C755.988 21.9831 757.09 21.079 757.865 19.919C758.64 18.759 759.054 17.3951 759.054 16C759.054 14.1292 758.311 12.335 756.988 11.0121C755.665 9.68919 753.871 8.946 752 8.946Z"/>
<path d="M724.986 11.177C725.077 11.2931 725.159 11.4157 725.232 11.544C725.678 11.8039 726.196 11.9107 726.708 11.8483C727.22 11.7858 727.697 11.5574 728.067 11.198L733.042 6.26599C733.661 7.39675 733.99 8.66309 734 9.95199C733.997 11.2403 733.682 12.5087 733.082 13.6486C732.481 14.7884 731.613 15.7656 730.552 16.4966C729.492 17.2275 728.269 17.6904 726.99 17.8455C725.711 18.0005 724.414 17.8432 723.209 17.387L711.4 29.075C710.803 29.665 709.997 29.9959 709.157 29.9959C708.317 29.9959 707.511 29.665 706.914 29.075C706.62 28.7843 706.386 28.4381 706.227 28.0564C706.067 27.6747 705.985 27.2652 705.985 26.8515C705.985 26.4378 706.067 26.0283 706.227 25.6466C706.386 25.2649 706.62 24.9187 706.914 24.628L718.589 13.065C718.166 12.0817 717.948 11.0224 717.949 9.95199C717.953 8.57706 718.312 7.2265 718.992 6.03144C719.672 4.83638 720.65 3.83744 721.829 3.13159C723.009 2.42575 724.352 2.03699 725.726 2.00307C727.101 1.96915 728.461 2.29121 729.674 2.93799L724.702 7.86699C724.318 8.25265 724.083 8.76166 724.038 9.30406C723.993 9.84645 724.141 10.3873 724.456 10.831C724.644 10.9277 724.822 11.0437 724.986 11.177ZM709.25 25C708.905 25.0006 708.567 25.1035 708.28 25.2958C707.994 25.4881 707.77 25.7611 707.638 26.0803C707.507 26.3995 707.472 26.7506 707.54 27.0893C707.608 27.4279 707.774 27.7389 708.018 27.983C708.263 28.2271 708.574 28.3932 708.913 28.4605C709.251 28.5278 709.603 28.4932 709.922 28.361C710.241 28.2288 710.513 28.0051 710.705 27.718C710.897 27.4309 711 27.0933 711 26.748C711 26.5182 710.955 26.2906 710.867 26.0783C710.779 25.866 710.651 25.6731 710.488 25.5107C710.325 25.3483 710.132 25.2196 709.92 25.1319C709.707 25.0443 709.48 24.9995 709.25 25Z"/>
<path d="M696 22V10L702 16L696 22ZM682 24H694L688 30L682 24ZM693 22H683C682.735 22 682.48 21.8946 682.293 21.7071C682.105 21.5196 682 21.2652 682 21V11C682 10.7348 682.105 10.4804 682.293 10.2929C682.48 10.1054 682.735 10 683 10H693C693.265 10 693.52 10.1054 693.707 10.2929C693.895 10.4804 694 10.7348 694 11V21C694 21.2652 693.895 21.5196 693.707 21.7071C693.52 21.8946 693.265 22 693 22ZM692 15C692 14.7348 691.895 14.4804 691.707 14.2929C691.52 14.1054 691.265 14 691 14H685C684.735 14 684.48 14.1054 684.293 14.2929C684.105 14.4804 684 14.7348 684 15V19C684 19.2652 684.105 19.5196 684.293 19.7071C684.48 19.8946 684.735 20 685 20H691C691.265 20 691.52 19.8946 691.707 19.7071C691.895 19.5196 692 19.2652 692 19V15ZM688 2L694 8H681.982L688 2ZM680 10V22L674 16L680 10Z"/>
<path d="M670 26H666V24H665L668 30H644L646 26H642C641.47 26 640.961 25.7893 640.586 25.4142C640.211 25.0391 640 24.5304 640 24V14C640 13.4696 640.211 12.9609 640.586 12.5858C640.961 12.2107 641.47 12 642 12H644V10C644 9.46957 644.211 8.96086 644.586 8.58579C644.961 8.21071 645.47 8 646 8V3C646 2.73478 646.105 2.48043 646.293 2.29289C646.48 2.10536 646.735 2 647 2H665C665.265 2 665.52 2.10536 665.707 2.29289C665.895 2.48043 666 2.73478 666 3V8C666.53 8 667.039 8.21071 667.414 8.58579C667.789 8.96086 668 9.46957 668 10V12H670C670.53 12 671.039 12.2107 671.414 12.5858C671.789 12.9609 672 13.4696 672 14V24C672 24.5304 671.789 25.0391 671.414 25.4142C671.039 25.7893 670.53 26 670 26ZM646 26L647 24H646V26ZM647 16H645C644.735 16 644.48 16.1054 644.293 16.2929C644.105 16.4804 644 16.7348 644 17C644 17.2652 644.105 17.5196 644.293 17.7071C644.48 17.8946 644.735 18 645 18H647C647.265 18 647.52 17.8946 647.707 17.7071C647.895 17.5196 648 17.2652 648 17C648 16.7348 647.895 16.4804 647.707 16.2929C647.52 16.1054 647.265 16 647 16ZM664 4.5C664 4.36739 663.947 4.24021 663.854 4.14645C663.76 4.05268 663.633 4 663.5 4H648.5C648.367 4 648.24 4.05268 648.146 4.14645C648.053 4.24021 648 4.36739 648 4.5V13.5C648 13.6326 648.053 13.7598 648.146 13.8536C648.24 13.9473 648.367 14 648.5 14H663.5C663.633 14 663.76 13.9473 663.854 13.8536C663.947 13.7598 664 13.6326 664 13.5V4.5ZM662.222 24H649.778L648 28H664L662.222 24Z"/>
<path d="M626.853 23.318C624.956 23.318 623.098 22.7824 621.492 21.773L614.881 28.392C614.693 28.5806 614.469 28.7302 614.223 28.8323C613.976 28.9344 613.713 28.987 613.446 28.987C613.179 28.987 612.915 28.9344 612.669 28.8323C612.423 28.7302 612.199 28.5806 612.011 28.392L611.611 27.992C611.23 27.6108 611.017 27.0942 611.017 26.5555C611.017 26.0168 611.23 25.5002 611.611 25.119L618.229 18.492C617.053 16.5806 616.545 14.3331 616.784 12.1018C617.023 9.87056 617.995 7.78162 619.549 6.16245C621.103 4.54329 623.15 3.48543 625.369 3.15469C627.589 2.82396 629.855 3.23905 631.814 4.33489C633.772 5.43074 635.311 7.14539 636.19 9.21009C637.069 11.2748 637.238 13.5728 636.671 15.7439C636.104 17.915 634.832 19.8365 633.055 21.2072C631.278 22.5779 629.097 23.3203 626.853 23.318ZM626.853 7.06399C625.646 7.06161 624.465 7.41735 623.461 8.08618C622.456 8.75501 621.672 9.70687 621.209 10.8213C620.745 11.9357 620.623 13.1626 620.857 14.3467C621.091 15.5307 621.671 16.6188 622.523 17.4731C623.376 18.3274 624.463 18.9095 625.647 19.1459C626.83 19.3822 628.057 19.2621 629.173 18.8008C630.288 18.3395 631.241 17.5576 631.912 16.5542C632.583 15.5508 632.941 14.371 632.941 13.164C632.942 12.3636 632.785 11.5709 632.48 10.8311C632.175 10.0914 631.726 9.41902 631.161 8.85253C630.596 8.28604 629.924 7.83651 629.185 7.52962C628.446 7.22274 627.653 7.06451 626.853 7.06399Z"/>
<path d="M574.273 11.973C574.151 14.109 574.643 16.661 571.873 20.34C568.92 24.266 565.987 23.966 565.433 24.025C562.111 24.379 561.673 21.405 559.733 21.405C558.033 21.405 556.65 24.36 554.155 24.025C553.603 23.951 550.668 24.266 547.715 20.34C544.947 16.661 545.439 14.109 545.315 11.973C545.211 10.4804 545.027 8.99459 544.762 7.52201C545.593 8.33423 546.666 8.85495 547.818 9.006C549.54 9.125 549.862 8.39601 553.496 7.34401C557.425 6.20701 559.796 10.866 559.796 10.866C559.796 10.866 562.464 6.27501 566.096 7.34401C569.728 8.41301 569.876 9.124 571.596 9.006C572.794 8.83481 573.917 8.31927 574.828 7.52201C574.563 8.9946 574.378 10.4804 574.273 11.973ZM553.958 12.868C551.81 12.389 550.909 13.207 549.989 13.556C549.493 13.7423 548.979 13.8764 548.455 13.956C548.455 13.956 548.578 15.202 550.731 16.27C552.884 17.338 557.3 16.787 557.3 16.787C557.3 16.787 557.769 13.718 553.958 12.868ZM569.6 13.557C568.68 13.208 567.779 12.39 565.631 12.869C561.82 13.719 562.289 16.787 562.289 16.787C562.289 16.787 566.705 17.338 568.858 16.27C571.011 15.202 571.134 13.956 571.134 13.956C570.61 13.8767 570.096 13.743 569.6 13.557Z"/>
<path d="M541.977 28H513.977C513.447 28 512.938 27.7893 512.563 27.4142C512.188 27.0391 511.977 26.5304 511.977 26V22C511.977 21.4696 512.188 20.9609 512.563 20.5858C512.938 20.2107 513.447 20 513.977 20H514C518.591 20 518 17 518.009 12C518.018 7.314 518.175 4 524.269 4H531.684C537.81 4 537.955 7.314 537.977 12C538 17 537.385 20 542 20H541.977C542.507 20 543.016 20.2107 543.391 20.5858C543.766 20.9609 543.977 21.4696 543.977 22V26C543.977 26.5304 543.766 27.0391 543.391 27.4142C543.016 27.7893 542.507 28 541.977 28ZM533 14H529V10H527V14H523V16H527V20H529V16H533V14Z"/>
<path d="M510 29H482C481.735 29 481.48 28.8946 481.293 28.7071C481.105 28.5196 481 28.2652 481 28V4C481 3.73478 481.105 3.48043 481.293 3.29289C481.48 3.10536 481.735 3 482 3H510C510.265 3 510.52 3.10536 510.707 3.29289C510.895 3.48043 511 3.73478 511 4V28C511 28.2652 510.895 28.5196 510.707 28.7071C510.52 28.8946 510.265 29 510 29ZM499 5.015C498.804 5.01678 498.614 5.07643 498.452 5.18644C498.29 5.29645 498.164 5.4519 498.091 5.63319C498.017 5.81448 497.999 6.01349 498.038 6.20516C498.078 6.39683 498.173 6.57256 498.312 6.71021C498.451 6.84787 498.628 6.94128 498.82 6.97868C499.012 7.01609 499.21 6.9958 499.391 6.92038C499.572 6.84497 499.726 6.71779 499.834 6.55489C499.942 6.392 500 6.20066 500 6.005C499.999 5.87433 499.973 5.74508 499.922 5.62461C499.872 5.50414 499.798 5.39482 499.705 5.30289C499.612 5.21096 499.502 5.13822 499.381 5.08882C499.26 5.03943 499.131 5.01434 499 5.015ZM502 5.015C501.804 5.01678 501.614 5.07643 501.452 5.18644C501.29 5.29645 501.164 5.4519 501.091 5.63319C501.017 5.81448 500.999 6.01349 501.038 6.20516C501.078 6.39683 501.173 6.57256 501.312 6.71021C501.451 6.84787 501.628 6.94128 501.82 6.97868C502.012 7.01609 502.21 6.9958 502.391 6.92038C502.572 6.84497 502.726 6.71779 502.834 6.55489C502.942 6.392 503 6.20066 503 6.005C502.999 5.87433 502.973 5.74508 502.922 5.62461C502.872 5.50414 502.798 5.39482 502.705 5.30289C502.612 5.21096 502.502 5.13822 502.381 5.08882C502.26 5.03943 502.131 5.01434 502 5.015ZM507 5H505C504.735 5 504.48 5.10536 504.293 5.29289C504.105 5.48043 504 5.73478 504 6C504 6.26522 504.105 6.51957 504.293 6.70711C504.48 6.89464 504.735 7 505 7H507C507.265 7 507.52 6.89464 507.707 6.70711C507.895 6.51957 508 6.26522 508 6C508 5.73478 507.895 5.48043 507.707 5.29289C507.52 5.10536 507.265 5 507 5ZM508 10C508 9.73478 507.895 9.48043 507.707 9.29289C507.52 9.10536 507.265 9 507 9H485C484.735 9 484.48 9.10536 484.293 9.29289C484.105 9.48043 484 9.73478 484 10V25C484 25.2652 484.105 25.5196 484.293 25.7071C484.48 25.8946 484.735 26 485 26H507C507.265 26 507.52 25.8946 507.707 25.7071C507.895 25.5196 508 25.2652 508 25V10Z"/>
<path d="M474 30H454C452.939 30 451.922 29.5786 451.172 28.8284C450.421 28.0783 450 27.0609 450 26V6C450 4.93913 450.421 3.92172 451.172 3.17157C451.922 2.42143 452.939 2 454 2H474C475.061 2 476.078 2.42143 476.828 3.17157C477.579 3.92172 478 4.93913 478 6V26C478 27.0609 477.579 28.0783 476.828 28.8284C476.078 29.5786 475.061 30 474 30ZM473 11C473 9.4087 472.368 7.88258 471.243 6.75736C470.117 5.63214 468.591 5 467 5H459C457.409 5 455.883 5.63214 454.757 6.75736C453.632 7.88258 453 9.4087 453 11V19C453 20.5913 453.632 22.1174 454.757 23.2426C455.883 24.3679 457.409 25 459 25H467C470.314 25 473 24.314 473 21V11ZM467.047 17.863C467.603 17.8667 468.158 17.8094 468.702 17.692C469.249 17.5655 469.781 17.3804 470.289 17.14V18.585C469.785 18.8134 469.261 18.9916 468.722 19.117C468.158 19.2321 467.583 19.286 467.008 19.278C466.185 19.3337 465.364 19.1477 464.646 18.743C463.927 18.3383 463.343 17.7325 462.964 17C462.539 17.7259 461.936 18.3311 461.211 18.758C460.509 19.1175 459.728 19.2956 458.94 19.276C458.031 19.3305 457.136 19.0333 456.44 18.446C456.132 18.1456 455.892 17.7826 455.737 17.3814C455.582 16.9803 455.515 16.5504 455.54 16.121C455.521 15.6443 455.621 15.1704 455.833 14.7428C456.045 14.3152 456.36 13.9477 456.751 13.674C457.864 13.0058 459.146 12.6751 460.443 12.722L462.243 12.663V12C462.299 11.3305 462.096 10.665 461.677 10.14C461.446 9.92552 461.173 9.76142 460.876 9.65812C460.578 9.55482 460.262 9.5146 459.948 9.54C458.897 9.56949 457.868 9.85069 456.948 10.36L456.44 9.12C457.557 8.52986 458.799 8.21513 460.063 8.202C460.779 8.17396 461.491 8.31978 462.139 8.627C462.687 8.92264 463.114 9.40154 463.345 9.98C463.672 9.42591 464.139 8.9681 464.7 8.653C465.285 8.33338 465.943 8.17173 466.609 8.184C467.176 8.16161 467.74 8.2668 468.261 8.4918C468.782 8.71681 469.245 9.05589 469.617 9.484C470.41 10.4618 470.814 11.6985 470.75 12.956V14H463.9C463.953 16.5753 465.002 17.863 467.047 17.863ZM462.2 13.819L460.657 13.887C459.747 13.8629 458.846 14.0733 458.04 14.498C457.774 14.6785 457.561 14.9255 457.42 15.2143C457.28 15.5031 457.218 15.8237 457.24 16.144C457.218 16.3959 457.254 16.6494 457.345 16.8854C457.435 17.1215 457.578 17.334 457.762 17.507C458.156 17.812 458.646 17.9662 459.144 17.942C459.553 17.9639 459.963 17.902 460.348 17.7602C460.732 17.6183 461.084 17.3995 461.381 17.117C461.667 16.8037 461.887 16.436 462.028 16.0359C462.169 15.6358 462.228 15.2114 462.201 14.788L462.2 13.819ZM469.008 12.705C469.061 11.8764 468.841 11.0534 468.383 10.361C468.172 10.0886 467.898 9.87154 467.584 9.72868C467.271 9.58582 466.927 9.52141 466.583 9.541C466.231 9.52479 465.881 9.58947 465.558 9.73007C465.236 9.87067 464.949 10.0834 464.722 10.352C464.219 11.0344 463.944 11.8582 463.936 12.706H469.005L469.008 12.705Z"/>
<path d="M433.425 19.753L432.767 19.833V19.753L443.07 4.742L429.57 19.752L429.724 20.202L429.23 20.262L429.777 20.356L433.428 31.009L426.77 20.562L417.993 21.629L445 1V25.188L433.425 19.753ZM433.425 20.984L438.363 23.97L433.425 31.01L432.825 20.881L433.425 20.984Z"/>
<path d="M412.68 29.958L409.58 29.989C409.379 29.9919 409.18 29.9548 408.993 29.88C408.807 29.8051 408.637 29.6939 408.494 29.5528C408.351 29.4118 408.237 29.2436 408.16 29.0583C408.082 28.8729 408.042 28.6739 408.042 28.473C408.042 28.473 408.729 21.359 401.734 14.117C396.634 8.05199 387.583 7.75899 387.583 7.75899C387.382 7.77016 387.182 7.74136 386.992 7.67425C386.803 7.60714 386.629 7.50306 386.48 7.36806C386.331 7.23307 386.21 7.06984 386.125 6.88786C386.04 6.70588 385.991 6.50877 385.983 6.30799L386.014 3.47499C386.015 3.2774 386.057 3.08213 386.136 2.90097C386.215 2.71981 386.329 2.5565 386.473 2.42091C386.617 2.28531 386.787 2.18024 386.972 2.11202C387.157 2.0438 387.355 2.01386 387.552 2.02399C387.552 2.02399 400.18 2.83099 406.816 10.88C413.37 17.023 414.029 28.473 414.029 28.473C414.05 28.6616 414.031 28.8525 413.972 29.0331C413.914 29.2136 413.818 29.3797 413.69 29.5201C413.562 29.6606 413.406 29.7723 413.232 29.8478C413.058 29.9233 412.87 29.9609 412.68 29.958ZM387.521 11.958C387.521 11.958 394.937 12.838 399.106 16.711C403.37 20.672 404.006 28.505 404.006 28.505C404.006 29.337 403.894 29.979 403.054 29.979L400.202 29.948C400.016 29.9384 399.834 29.8897 399.669 29.8049C399.503 29.7201 399.357 29.6013 399.24 29.4562C399.124 29.311 399.039 29.1429 398.992 28.9628C398.945 28.7827 398.936 28.5946 398.967 28.411C398.849 25.1661 397.495 22.0891 395.181 19.811C392.304 17.17 387.487 17.011 387.487 17.011C387.293 17.0223 387.1 16.9944 386.917 16.9289C386.735 16.8633 386.567 16.7615 386.425 16.6296C386.283 16.4977 386.169 16.3384 386.09 16.1612C386.011 15.9841 385.969 15.7929 385.966 15.599L386 13.371C386.003 13.1772 386.045 12.9859 386.124 12.8089C386.203 12.6318 386.317 12.4725 386.459 12.3407C386.601 12.2089 386.769 12.1072 386.951 12.0417C387.134 11.9763 387.328 11.9485 387.521 11.96V11.958ZM390.009 21.988C390.803 21.9856 391.58 22.2189 392.241 22.6583C392.903 23.0977 393.419 23.7234 393.724 24.4563C394.03 25.1892 394.111 25.9963 393.957 26.7753C393.804 27.5544 393.423 28.2703 392.862 28.8326C392.302 29.3949 391.587 29.7782 390.808 29.934C390.03 30.0898 389.222 30.011 388.489 29.7077C387.755 29.4044 387.127 28.8902 386.686 28.2302C386.245 27.5702 386.009 26.794 386.009 26C386.008 25.4738 386.11 24.9525 386.31 24.4659C386.511 23.9793 386.805 23.537 387.177 23.1644C387.548 22.7918 387.99 22.4962 388.476 22.2945C388.962 22.0928 389.483 21.988 390.009 21.988Z"/>
<path d="M381.914 17.518C381.788 18.6692 381.52 19.8003 381.114 20.885C380.358 23.6669 378.53 26.0357 376.03 27.472C376.83 28.1563 377.676 28.7857 378.561 29.356C375.858 29.7952 373.124 30.0195 370.385 30.027C370.312 30.039 370.24 29.794 370.167 29.806L370.158 30.025C368.107 29.9213 366.085 29.4923 364.169 28.754C365.574 27.6456 366.682 26.2059 367.394 24.564C368.173 22.6363 368.586 20.5801 368.61 18.501C369.425 19.9343 370.338 21.3105 371.34 22.62C372.484 22.0146 373.467 21.1456 374.208 20.0848C374.949 19.0241 375.428 17.8021 375.603 16.52C375.74 14.8715 375.331 13.2236 374.438 11.831C373.593 10.5602 372.387 9.57146 370.975 8.99199C371.436 8.11999 371.975 7.14499 372.488 6.31799C373.138 5.33025 374.016 4.51301 375.047 3.93499C377.383 5.29169 379.276 7.29721 380.495 9.70825C381.714 12.1193 382.207 14.8322 381.914 17.518ZM367.96 13.509C367.96 13.509 365.689 10.538 364.716 9.45499C363.431 10.1246 362.352 11.1303 361.593 12.365C360.835 13.5997 360.426 15.0171 360.41 16.466C360.516 17.8999 361.027 19.2743 361.883 20.4294C362.74 21.5846 363.906 22.4732 365.247 22.992C364.726 24.0223 364.059 24.9715 363.265 25.81C362.505 26.5909 361.686 27.3124 360.815 27.968C357.907 26.229 355.731 23.4916 354.693 20.2664C353.655 17.0412 353.826 13.5485 355.174 10.44C355.956 8.21127 357.441 6.29729 359.406 4.98699C359.595 4.83999 359.788 4.69999 359.983 4.56299C359.183 3.82399 356.316 3.51399 356.316 3.51399C356.316 3.51399 361.747 1.42099 370.275 2.35399C367.87 6.29499 367.96 13.509 367.96 13.509Z"/>
<path d="M346.25 30H325.75C325.286 29.9987 324.842 29.8139 324.514 29.486C324.186 29.1581 324.001 28.7137 324 28.25V3.75C324.001 3.28628 324.186 2.84192 324.514 2.51402C324.842 2.18612 325.286 2.00132 325.75 2H339.25C340.363 2.05899 341.427 2.47644 342.283 3.19L346.717 7.3C347.484 8.09457 347.939 9.13845 348 10.241V28.25C347.999 28.7137 347.814 29.1581 347.486 29.486C347.158 29.8139 346.714 29.9987 346.25 30ZM345.774 9.293L340.774 4.707C340.347 4.318 340 4.45 340 5V10H345.455C346.055 10 346.2 9.682 345.774 9.293Z"/>
<path d="M319.749 13.924C319.143 16.5538 318.696 19.2176 318.409 21.901C318.093 24.019 317.96 26.1602 318.009 28.301C318.007 28.4884 317.93 28.6674 317.797 28.7986C317.663 28.9298 317.482 29.0026 317.295 29.001H290.679C290.491 29.0026 290.311 28.9298 290.177 28.7987C290.043 28.6675 289.966 28.4885 289.964 28.301C290.013 26.1602 289.88 24.019 289.564 21.901C289.277 19.2176 288.83 16.5538 288.224 13.924C287.973 12.779 288.606 12 289 12H318.974C319.368 12 320 12.779 319.749 13.924ZM290.067 7.024H289.991V5.019C289.988 4.75806 290.037 4.49918 290.135 4.25715C290.232 4.01511 290.377 3.79466 290.559 3.60839C290.742 3.42211 290.96 3.27366 291.2 3.1715C291.44 3.06934 291.698 3.01548 291.959 3.013H300.064C301.151 3.013 302.34 4.768 302.34 4.768L303.975 6.99L316.975 6.981C317.108 6.97928 317.24 7.00379 317.363 7.05313C317.487 7.10247 317.6 7.17567 317.695 7.26854C317.79 7.36142 317.866 7.47214 317.918 7.59439C317.971 7.71664 317.998 7.84801 318 7.981V11H290.048L290.067 7.024Z"/>
<path d="M277.051 30.97C277.312 30.9687 277.57 30.9159 277.811 30.8146C278.052 30.7134 278.27 30.5657 278.454 30.3799C278.638 30.1941 278.783 29.974 278.881 29.7321C278.98 29.4902 279.03 29.2312 279.028 28.97V21.86C279.028 21.86 279.328 20.031 280.543 20.031C281.758 20.031 281.631 21.965 283.899 21.965C285.032 21.965 286.984 21.384 286.984 17.883C286.984 14.382 285.032 13.959 283.899 13.959C281.631 13.959 281.761 15.787 280.543 15.787C279.325 15.787 279.028 13.906 279.028 13.906V10.994C279.03 10.7329 278.98 10.4739 278.881 10.2321C278.783 9.99022 278.637 9.77013 278.454 9.5844C278.27 9.39867 278.052 9.25093 277.811 9.14963C277.57 9.04833 277.312 8.99545 277.051 8.99401H271.851C271.851 8.99401 270.126 8.69401 270.126 7.47901C270.126 6.26401 272.008 6.17901 272.008 3.91401C272.008 2.78301 271.376 0.988007 267.873 0.988007C264.37 0.988007 263.896 2.78801 263.896 3.91401C263.896 6.18201 265.62 6.26301 265.62 7.47901C265.62 8.69501 263.9 8.99301 263.9 8.99301H258.949C258.422 8.99644 257.917 9.20903 257.547 9.58404C257.176 9.95906 256.97 10.4658 256.973 10.993V14.899C256.973 14.899 256.762 17.914 259.186 17.914C260.714 17.914 260.918 15.857 262.928 15.857C263.928 15.857 264.947 16.798 264.947 18.877C264.947 20.956 263.932 22 262.932 22C260.922 22 260.718 19.945 259.19 19.945C256.766 19.945 256.977 22.854 256.977 22.854V28.969C256.975 29.2301 257.025 29.4889 257.124 29.7307C257.222 29.9725 257.367 30.1925 257.551 30.3783C257.734 30.564 257.952 30.7117 258.193 30.8131C258.434 30.9145 258.692 30.9674 258.953 30.969H265.591C265.591 30.969 268.745 31.181 268.745 28.755C268.745 27.227 266.754 26.931 266.754 24.92C266.754 23.92 267.863 22.682 269.944 22.682C272.025 22.682 273.258 23.92 273.258 24.92C273.258 26.932 271.33 27.227 271.33 28.755C271.33 31.18 274.484 30.969 274.484 30.969H277.056L277.051 30.97Z"/>
<path d="M253.285 18.118L242.09 29.126C241.526 29.6864 240.764 30.001 239.969 30.001C239.174 30.001 238.412 29.6864 237.848 29.126L226.59 18.118C225.424 16.952 225.818 15.997 227.469 15.997H233.969L234.031 3.99699C234.038 3.46322 234.256 2.9538 234.636 2.57934C235.016 2.20489 235.529 1.99562 236.063 1.99699H244C244.53 1.99699 245.039 2.2077 245.414 2.58277C245.789 2.95784 246 3.46655 246 3.99699V16H252.406C254.057 16 254.451 16.952 253.285 18.118Z"/>
<path d="M208.007 30.007C205.238 30.007 202.531 29.1859 200.229 27.6476C197.927 26.1092 196.132 23.9227 195.073 21.3646C194.013 18.8064 193.736 15.9915 194.276 13.2757C194.816 10.56 196.15 8.06543 198.108 6.1075C200.066 4.14956 202.56 2.81619 205.276 2.276C207.992 1.73581 210.806 2.01305 213.365 3.07268C215.923 4.13231 218.109 5.92672 219.648 8.22901C221.186 10.5313 222.007 13.2381 222.007 16.007C222.007 19.72 220.532 23.281 217.907 25.9065C215.281 28.532 211.72 30.007 208.007 30.007ZM208.007 5.99999C206.027 5.99841 204.092 6.58403 202.445 7.68276C200.798 8.78149 199.514 10.344 198.755 12.1726C197.996 14.0011 197.797 16.0137 198.182 17.9556C198.568 19.8974 199.52 21.6814 200.92 23.0819C202.319 24.4823 204.102 25.4363 206.044 25.8231C207.985 26.2099 209.998 26.0122 211.827 25.2549C213.656 24.4977 215.22 23.215 216.32 21.569C217.42 19.923 218.007 17.9877 218.007 16.008C218.008 14.6941 217.75 13.3929 217.248 12.1787C216.746 10.9645 216.01 9.86119 215.081 8.93175C214.152 8.00232 213.05 7.26501 211.836 6.76196C210.622 6.25892 209.321 5.99999 208.007 5.99999ZM206.1 15.9V10.412C206.1 9.92691 206.293 9.4617 206.636 9.1187C206.979 8.77569 207.444 8.58299 207.929 8.58299C208.428 8.57844 208.911 8.76555 209.276 9.10581C209.642 9.44607 209.863 9.91356 209.894 10.412V15.444C211.36 17.2351 212.547 19.2373 213.414 21.383C213.414 21.383 209.308 19.583 207.355 17.61C206.993 17.4931 206.676 17.2649 206.451 16.958C206.226 16.651 206.103 16.2808 206.1 15.9Z"/>
<path d="M188.4 11.546L186.159 11.175L180.859 10.303L179.505 7.57501L178.415 5.38301L177.327 3.18301C176.584 1.68301 175.367 1.68301 174.627 3.18301L173.538 5.38301L172.45 7.57501L171.1 10.3L165.805 11.172L163.563 11.543C161.886 11.818 161.47 13.033 162.635 14.243L168.087 19.877L167.253 25.341L166.879 27.8C166.626 29.443 167.645 30.148 169.143 29.376L171.2 28.3L173.251 27.229H173.256L175.982 25.802L178.707 27.229C178.709 27.2295 178.712 27.2295 178.714 27.229L180.762 28.3L182.822 29.382C184.322 30.154 185.336 29.45 185.088 27.806L184.712 25.345L183.884 19.881L189.328 14.253C190.5 13.037 190.08 11.821 188.4 11.546Z"/>
<path d="M144 8.365L145.725 11.891L146.515 13.507L148.288 13.807L152.357 14.488L149.35 17.641L148.168 18.881L148.422 20.581L149.052 24.788L145.626 22.967L143.987 22.096L142.348 22.967L138.925 24.786L139.557 20.586L139.812 18.886L138.628 17.645L135.628 14.495L139.739 13.812L141.529 13.512L142.316 11.876L144 8.365ZM143.984 2C143.675 2.04462 143.385 2.17498 143.146 2.37631C142.907 2.57763 142.729 2.84186 142.633 3.139L139.161 10.352L131.579 11.611C129.904 11.89 129.488 13.12 130.653 14.346L136.098 20.055L134.891 28.086C134.708 29.293 135.191 30 136.042 30C136.432 29.9845 136.813 29.8758 137.153 29.683L143.985 26.052L150.817 29.683C151.157 29.8757 151.537 29.9844 151.927 30C152.777 30 153.26 29.293 153.079 28.086L151.879 20.055L157.317 14.355C158.482 13.126 158.066 11.894 156.391 11.615L148.864 10.356L145.337 3.143C145.242 2.84466 145.064 2.57922 144.825 2.37708C144.586 2.17494 144.294 2.04426 143.984 2Z"/>
<path d="M124 16L112 6L100 16H96L112 2L128 16H124ZM122 16V29.96H114V20H110V29.96H102V16L112 8L122 16Z"/>
<path d="M93.1209 24.879L88.8779 29.122L79.9779 20.222L71.2059 29L67.0059 24.8L75.7799 16.026L66.8799 7.126L71.1229 2.883L80.0229 11.783L88.7939 3L92.9939 7.2L84.2219 15.98L93.1209 24.879Z"/>
<path d="M61.9999 14C61.9999 14.5304 61.7892 15.0391 61.4141 15.4142C61.0391 15.7893 60.5304 16 59.9999 16H47.9999L53.8329 10.167C52.48 9.0131 50.8153 8.28619 49.0493 8.07817C47.2833 7.87015 45.4953 8.19035 43.9112 8.99829C42.3271 9.80623 41.0181 11.0657 40.1497 12.6174C39.2812 14.1691 38.8923 15.9434 39.032 17.7161C39.1718 19.4888 39.8339 21.1803 40.9348 22.5768C42.0356 23.9733 43.5258 25.012 45.2168 25.5618C46.9079 26.1116 48.724 26.1477 50.4356 25.6655C52.1472 25.1834 53.6775 24.2046 54.8329 22.853L57.8679 25.453C56.1886 27.4176 53.9618 28.8371 51.472 29.5301C48.9821 30.2231 46.3422 30.1582 43.8893 29.3437C41.4365 28.5293 39.2821 27.0022 37.7013 24.9575C36.1205 22.9128 35.1851 20.4433 35.0145 17.8644C34.8438 15.2855 35.4458 12.7143 36.7434 10.4791C38.041 8.24399 39.9754 6.44636 42.2996 5.31583C44.6237 4.1853 47.2321 3.77319 49.7916 4.13213C52.351 4.49107 54.7454 5.60477 56.6689 7.331L61.9999 2V14Z"/>
<path d="M16 0C19.1645 0 22.2579 0.938384 24.8891 2.69649C27.5203 4.45459 29.5711 6.95345 30.7821 9.87706C31.9931 12.8007 32.3099 16.0177 31.6926 19.1214C31.0752 22.2251 29.5513 25.0761 27.3137 27.3137C25.0761 29.5513 22.2251 31.0752 19.1214 31.6926C16.0177 32.3099 12.8007 31.9931 9.87706 30.7821C6.95345 29.5711 4.45459 27.5203 2.69649 24.8891C0.938384 22.2579 0 19.1645 0 16C0 11.7565 1.68571 7.68687 4.68629 4.68629C7.68687 1.68571 11.7565 0 16 0ZM8 24V8H24V24H8ZM19.879 22L16 18.121L12.121 22H19.879ZM13.879 16L10 12.121V19.878L13.879 16ZM12.122 10L16 13.879L19.879 10H12.122ZM18.122 16L22 19.879V12.121L18.122 16Z"/>
<path d="M1165.87 5.8H1179.25C1180.34 5.8 1181.23 6.69543 1181.23 7.8V25.2C1181.23 26.3046 1180.34 27.2 1179.25 27.2H1165.87C1164.78 27.2 1163.89 26.3046 1163.89 25.2V23.0418C1163.89 22.2686 1163.27 21.6418 1162.5 21.6418C1161.74 21.6418 1161.12 22.2686 1161.12 23.0418V25.2C1161.12 27.851 1163.25 30 1165.87 30H1179.25C1181.87 30 1184 27.851 1184 25.2V7.8C1184 5.14903 1181.87 3 1179.25 3H1165.87C1163.25 3 1161.12 5.14903 1161.12 7.8V10.5781C1161.12 11.3513 1161.74 11.9781 1162.5 11.9781C1163.27 11.9781 1163.89 11.3513 1163.89 10.5781V7.8C1163.89 6.69543 1164.78 5.8 1165.87 5.8Z"/>
<path d="M1153.39 18.3C1153.02 18.3 1152.67 18.1518 1152.41 17.8881C1152.15 17.6244 1152 17.2667 1152 16.8938C1152 16.5208 1152.15 16.1631 1152.41 15.8994C1152.67 15.6357 1153.02 15.4875 1153.39 15.4875L1168.38 15.4763V10.8503C1168.38 10.6275 1168.45 10.4096 1168.57 10.2242C1168.69 10.0388 1168.87 9.8943 1169.07 9.80899C1169.27 9.72366 1169.5 9.70139 1169.71 9.74496C1169.93 9.78854 1170.13 9.89601 1170.28 10.0538L1176.58 16.4055V17.3595L1170.28 23.7112C1170.13 23.869 1169.93 23.9765 1169.71 24.02C1169.5 24.0636 1169.27 24.0413 1169.07 23.956C1168.87 23.8707 1168.69 23.7262 1168.57 23.5408C1168.45 23.3554 1168.38 23.1375 1168.38 22.9147V18.2888L1153.39 18.3Z"/>
</svg>