<svg width="7" height="13" viewBox="0 0 7 13" fill="none" xmlns="http://www.w3.org/2000/svg">
<path d="M6 12.9143C5.55259 12.7561 5.2026 12.3917 5.06427 11.9353C4.58624 11.7905 4.20915 11.4134 4.06427 10.9353C3.58624 10.7905 3.20915 10.4134 3.06427 9.93534C2.58624 9.79045 2.20915 9.41337 2.06427 8.93534C1.58624 8.79045 1.20915 8.41337 1.06427 7.93534C0.448346 7.74866 2.95875e-08 7.17649 0 6.49961C-2.95875e-08 5.82272 0.448346 5.25056 1.06427 5.06388C1.20915 4.58585 1.58624 4.20876 2.06427 4.06388C2.20915 3.58585 2.58624 3.20876 3.06427 3.06388C3.20915 2.58585 3.58624 2.20876 4.06427 2.06388C4.20915 1.58585 4.58624 1.20876 5.06427 1.06388C5.2026 0.607481 5.55259 0.243099 6 0.0849609L6 12.9143Z" fill="context-stroke"/>
<g filter="url(#filter0_i_533_598)">
<path d="M7 1L6 1L6 2L5 2L5 3L4 3L4 4L3 4L3 5L2 5L2 6L1 6L1 7L2 7L2 8L3 8L3 9L4 9L4 10L5 10L5 11L6 11L6 12L7 12L7 1Z" fill="context-fill"/>
</g>
<defs>
<filter id="filter0_i_533_598" x="1" y="1" width="6" height="11" filterUnits="userSpaceOnUse" color-interpolation-filters="sRGB">
<feFlood flood-opacity="0" result="BackgroundImageFix"/>
<feBlend mode="normal" in="SourceGraphic" in2="BackgroundImageFix" result="shape"/>
<feColorMatrix in="SourceAlpha" type="matrix" values="0 0 0 0 0 0 0 0 0 0 0 0 0 0 0 0 0 0 127 0" result="hardAlpha"/>
<feOffset dy="1"/>
<feComposite in2="hardAlpha" operator="arithmetic" k2="-1" k3="1"/>
<feColorMatrix type="matrix" values="0 0 0 0 1 0 0 0 0 1 0 0 0 0 1 0 0 0 0.05 0"/>
<feBlend mode="normal" in2="shape" result="effect1_innerShadow_533_598"/>
</filter>
</defs>
</svg>
