<svg width="156" height="40" viewBox="0 0 156 40" fill="none" xmlns="http://www.w3.org/2000/svg">
<path d="M13.2909 34.709C15.7074 34.709 17.9663 33.8095 20.1202 32.0106L22.8519 36.2434C19.7525 38.7831 16.4954 40 12.713 40C4.99065 40 0 34.4974 0 25.9788C0 21.1111 0.998129 17.8836 3.36212 15.2381C5.56851 12.7513 8.2477 11.5873 11.82 11.5873C14.9194 11.5873 17.8613 12.6455 19.5949 14.4444C22.0639 16.9841 23.1671 20.6349 23.1671 26.2963C23.1671 26.8783 23.1671 27.0899 23.1671 27.9365H7.6173V28.1482C7.6173 32.328 9.6661 34.709 13.2909 34.709ZM7.72237 22.6455V22.7513H15.865V22.4339C15.865 20.4233 15.6549 19.3651 15.0245 18.3598C14.3415 17.3016 13.3434 16.7725 11.925 16.7725C9.24583 16.7725 7.72237 18.8889 7.72237 22.6455Z" fill="white"/>
<path d="M41.9214 12.5397C42.9196 13.0688 43.3924 13.4392 44.5481 14.4444L41.1334 19.1005C39.715 17.7778 38.1916 16.9841 36.8783 16.9841C33.7263 16.9841 32.3079 19.7354 32.3079 26.0847C32.3079 29.6296 32.7281 31.746 33.6737 32.9101C34.4092 33.8624 35.6175 34.4444 36.8257 34.4444C38.4543 34.4444 39.9252 33.7566 41.6588 32.2222L42.079 31.8519L45.2836 36.1376C44.2329 37.1958 43.7601 37.5661 42.8145 38.1481C40.9233 39.2593 38.822 39.8413 36.2479 39.8413C28.8407 39.8413 24.533 34.6561 24.533 25.873C24.533 19.6296 26.897 15.5026 30.049 13.3333C31.8351 12.1164 34.4617 11.3228 36.7207 11.3228C38.5068 11.3228 40.398 11.7989 41.9214 12.5397Z" fill="white"/>
<path d="M46.4241 7.8836C46.4241 5.34392 46.214 2.80423 45.8988 1.69312L53.0958 0C53.411 1.48148 53.5686 4.02117 53.5686 6.61376V12.0106C53.5686 12.8571 53.4635 13.9683 53.4635 14.2857C55.3022 12.5397 58.3491 11.3757 61.0808 11.3757C64.3904 11.3757 67.2272 12.963 68.0678 15.2381C68.5931 16.7725 68.7507 17.1958 68.7507 20.2646V39.2064H61.8688V21.0053C61.8688 18.3069 61.1334 17.3016 59.1371 17.3016C57.4035 17.3016 55.1446 18.3598 53.5686 19.7884V39.2064H46.4241V7.8836Z" fill="white"/>
<path d="M84.8632 34.709C87.2797 34.709 89.5386 33.8095 91.6925 32.0106L94.4242 36.2434C91.3247 38.7831 88.0677 40 84.2853 40C76.5629 40 71.5723 34.4974 71.5723 25.9788C71.5723 21.1111 72.5704 17.8836 74.9344 15.2381C77.1408 12.7513 79.82 11.5873 83.3922 11.5873C86.4917 11.5873 89.4336 12.6455 91.1671 14.4444C93.6362 16.9841 94.7394 20.6349 94.7394 26.2963C94.7394 26.8783 94.7394 27.0899 94.7394 27.9365H79.1896V28.1482C79.1896 32.328 81.2384 34.709 84.8632 34.709ZM79.2947 22.6455V22.7513H87.4373V22.4339C87.4373 20.4233 87.2272 19.3651 86.5968 18.3598C85.9138 17.3016 84.9157 16.7725 83.4973 16.7725C80.8181 16.7725 79.2947 18.8889 79.2947 22.6455Z" fill="white"/>
<path d="M97.1034 1.69312L104.3 0.0529125C104.563 1.53439 104.668 3.28042 104.668 7.08995V28.2011C104.668 32.8571 104.721 33.4921 105.141 34.2328C105.404 34.709 105.981 34.9735 106.559 34.9735C106.822 34.9735 106.98 34.9735 107.347 34.8677L108.556 39.1005C107.347 39.5767 105.876 39.8413 104.353 39.8413C101.359 39.8413 98.942 38.4127 98.1015 36.1376C97.5762 34.7619 97.4711 33.9153 97.4711 30.0529V9.84127C97.4711 6.2963 97.366 4.12698 97.1034 1.69312Z" fill="white"/>
<path d="M107.692 25.7672C107.692 17.2487 112.525 11.5873 119.774 11.5873C123.609 11.5873 126.604 12.9101 128.915 15.6614C131.069 18.2011 132.015 21.164 132.015 25.5556C132.015 30.2116 130.964 33.3862 128.652 36.0317C126.604 38.3598 123.924 39.7884 119.774 39.7884C112.472 39.7884 107.692 34.2857 107.692 25.7672ZM122.926 18.254C122.243 17.3545 121.14 16.8254 119.879 16.8254C118.198 16.8254 116.832 17.8836 116.255 19.5767C115.782 21.0053 115.519 22.9101 115.519 25.6085C115.519 28.7302 115.834 31.0582 116.412 32.4339C117.043 33.9153 118.619 34.6561 119.984 34.6561C123.031 34.6561 124.345 31.9048 124.345 25.5026C124.345 21.8519 123.872 19.4709 122.926 18.254Z" fill="white"/>
<path d="M134.777 19.5767C134.777 17.2487 134.461 15.0265 133.831 13.2275L140.082 11.4286C140.713 12.5397 141.081 13.7037 141.081 14.8148C142.709 13.6508 143.024 13.4392 144.18 12.8042C145.598 12.0635 147.437 11.6402 149.013 11.6402C152.007 11.6402 154.634 13.2275 155.475 15.5556C155.842 16.5608 156 17.7249 156 19.418V39.2064H149.066V21.5873C149.066 18.5185 148.54 17.619 146.702 17.619C145.283 17.619 143.445 18.5714 141.816 20.0529V39.2064H134.777V19.5767Z" fill="white"/>
</svg>
