<svg width="212" height="57" viewBox="0 0 212 57" fill="none" xmlns="http://www.w3.org/2000/svg">
<g filter="url(#filter0_di_626_895)">
<path d="M18.8916 47.7249C22.1446 47.7249 25.1854 46.4881 28.0849 44.0145L31.7622 49.8347C27.5898 53.3267 23.2054 55 18.1137 55C7.71818 55 1 47.4339 1 35.7209C1 29.0278 2.34364 24.5899 5.52593 20.9524C8.49607 17.5331 12.1027 15.9325 16.9115 15.9325C21.0838 15.9325 25.044 17.3876 27.3777 19.8611C30.7014 23.3532 32.1865 28.373 32.1865 36.1574C32.1865 36.9577 32.1865 37.2487 32.1865 38.4127H11.2541V38.7037C11.2541 44.4511 14.0121 47.7249 18.8916 47.7249ZM11.3955 31.1376V31.2831H22.3567V30.8466C22.3567 28.082 22.0739 26.627 21.2253 25.2447C20.3059 23.7897 18.9623 23.0622 17.0529 23.0622C13.4463 23.0622 11.3955 25.9722 11.3955 31.1376Z" fill="url(#paint0_linear_626_895)"/>
<path d="M57.4327 17.2421C58.7764 17.9696 59.4128 18.4788 60.9686 19.8611L56.3719 26.2632C54.4626 24.4444 52.4118 23.3532 50.6438 23.3532C46.4008 23.3532 44.4914 27.1362 44.4914 35.8664C44.4914 40.7407 45.0571 43.6508 46.33 45.2513C47.3201 46.5608 48.9466 47.3611 50.5731 47.3611C52.7653 47.3611 54.7454 46.4153 57.0791 44.3056L57.6449 43.7963L61.9586 49.6892C60.5443 51.1442 59.9078 51.6534 58.6349 52.4537C56.0891 53.9815 53.2604 54.7817 49.7952 54.7817C39.824 54.7817 34.0252 47.6521 34.0252 35.5754C34.0252 26.9907 37.2075 21.3161 41.4505 18.3333C43.8549 16.6601 47.3908 15.5688 50.4317 15.5688C52.8361 15.5688 55.3819 16.2235 57.4327 17.2421Z" fill="url(#paint1_linear_626_895)"/>
<path d="M63.494 10.84C63.494 7.34788 63.2111 3.85582 62.7868 2.32804L72.4751 0C72.8994 2.03704 73.1116 5.5291 73.1116 9.09391V16.5146C73.1116 17.6786 72.9702 19.2063 72.9702 19.6429C75.4453 17.2421 79.5469 15.6415 83.2242 15.6415C87.6794 15.6415 91.4982 17.8241 92.6297 20.9524C93.3368 23.0622 93.549 23.6442 93.549 27.8638V53.9087H84.285V28.8823C84.285 25.172 83.2949 23.7897 80.6077 23.7897C78.274 23.7897 75.2331 25.2447 73.1116 27.209V53.9087H63.494V10.84Z" fill="url(#paint2_linear_626_895)"/>
<path d="M115.239 47.7249C118.492 47.7249 121.533 46.4881 124.432 44.0145L128.109 49.8347C123.937 53.3267 119.553 55 114.461 55C104.065 55 97.3473 47.4339 97.3473 35.7209C97.3473 29.0278 98.6909 24.5899 101.873 20.9524C104.843 17.5331 108.45 15.9325 113.259 15.9325C117.431 15.9325 121.391 17.3876 123.725 19.8611C127.049 23.3532 128.534 28.373 128.534 36.1574C128.534 36.9577 128.534 37.2487 128.534 38.4127H107.601V38.7037C107.601 44.4511 110.359 47.7249 115.239 47.7249ZM107.743 31.1376V31.2831H118.704V30.8466C118.704 28.082 118.421 26.627 117.573 25.2447C116.653 23.7897 115.31 23.0622 113.4 23.0622C109.794 23.0622 107.743 25.9722 107.743 31.1376Z" fill="url(#paint3_linear_626_895)"/>
<path d="M131.716 2.32804L141.404 0.0727547C141.758 2.10979 141.899 4.51058 141.899 9.74868V38.7765C141.899 45.1786 141.97 46.0516 142.536 47.0701C142.889 47.7249 143.667 48.0886 144.445 48.0886C144.799 48.0886 145.011 48.0886 145.506 47.9431L147.133 53.7632C145.506 54.418 143.526 54.7817 141.475 54.7817C137.444 54.7817 134.191 52.8175 133.06 49.6892C132.353 47.7976 132.211 46.6336 132.211 41.3228V13.5318C132.211 8.65741 132.07 5.6746 131.716 2.32804Z" fill="url(#paint4_linear_626_895)"/>
<path d="M145.97 35.4299C145.97 23.7169 152.476 15.9325 162.235 15.9325C167.397 15.9325 171.428 17.7513 174.54 21.5344C177.439 25.0265 178.712 29.1005 178.712 35.1389C178.712 41.541 177.298 45.9061 174.186 49.5437C171.428 52.7447 167.821 54.709 162.235 54.709C152.405 54.709 145.97 47.1429 145.97 35.4299ZM166.478 25.0992C165.558 23.8624 164.073 23.1349 162.376 23.1349C160.113 23.1349 158.274 24.59 157.497 26.918C156.86 28.8823 156.507 31.5013 156.507 35.2116C156.507 39.504 156.931 42.705 157.709 44.5966C158.557 46.6336 160.679 47.6521 162.518 47.6521C166.619 47.6521 168.387 43.869 168.387 35.0661C168.387 30.0463 167.751 26.7725 166.478 25.0992Z" fill="url(#paint5_linear_626_895)"/>
<path d="M182.43 26.918C182.43 23.7169 182.006 20.6614 181.157 18.1878L189.573 15.7143C190.421 17.2421 190.916 18.8426 190.916 20.3704C193.108 18.7698 193.533 18.4788 195.089 17.6058C196.998 16.5873 199.473 16.0053 201.595 16.0053C205.625 16.0053 209.161 18.1878 210.293 21.3889C210.788 22.7712 211 24.3717 211 26.6997V53.9087H201.665V29.6825C201.665 25.463 200.958 24.2262 198.483 24.2262C196.574 24.2262 194.098 25.5357 191.906 27.5728V53.9087H182.43V26.918Z" fill="url(#paint6_linear_626_895)"/>
</g>
<defs>
<filter id="filter0_di_626_895" x="0" y="0" width="212" height="57" filterUnits="userSpaceOnUse" color-interpolation-filters="sRGB">
<feFlood flood-opacity="0" result="BackgroundImageFix"/>
<feColorMatrix in="SourceAlpha" type="matrix" values="0 0 0 0 0 0 0 0 0 0 0 0 0 0 0 0 0 0 127 0" result="hardAlpha"/>
<feOffset dy="1"/>
<feGaussianBlur stdDeviation="0.5"/>
<feComposite in2="hardAlpha" operator="out"/>
<feColorMatrix type="matrix" values="0 0 0 0 0 0 0 0 0 0 0 0 0 0 0 0 0 0 0.5 0"/>
<feBlend mode="normal" in2="BackgroundImageFix" result="effect1_dropShadow_626_895"/>
<feBlend mode="normal" in="SourceGraphic" in2="effect1_dropShadow_626_895" result="shape"/>
<feColorMatrix in="SourceAlpha" type="matrix" values="0 0 0 0 0 0 0 0 0 0 0 0 0 0 0 0 0 0 127 0" result="hardAlpha"/>
<feOffset dy="1"/>
<feGaussianBlur stdDeviation="0.5"/>
<feComposite in2="hardAlpha" operator="arithmetic" k2="-1" k3="1"/>
<feColorMatrix type="matrix" values="0 0 0 0 1 0 0 0 0 1 0 0 0 0 1 0 0 0 0.5 0"/>
<feBlend mode="normal" in2="shape" result="effect2_innerShadow_626_895"/>
</filter>
<linearGradient id="paint0_linear_626_895" x1="106" y1="0" x2="106" y2="55" gradientUnits="userSpaceOnUse">
<stop stop-color="white"/>
<stop offset="1" stop-color="#D0D0D0"/>
</linearGradient>
<linearGradient id="paint1_linear_626_895" x1="106" y1="0" x2="106" y2="55" gradientUnits="userSpaceOnUse">
<stop stop-color="white"/>
<stop offset="1" stop-color="#D0D0D0"/>
</linearGradient>
<linearGradient id="paint2_linear_626_895" x1="106" y1="0" x2="106" y2="55" gradientUnits="userSpaceOnUse">
<stop stop-color="white"/>
<stop offset="1" stop-color="#D0D0D0"/>
</linearGradient>
<linearGradient id="paint3_linear_626_895" x1="106" y1="0" x2="106" y2="55" gradientUnits="userSpaceOnUse">
<stop stop-color="white"/>
<stop offset="1" stop-color="#D0D0D0"/>
</linearGradient>
<linearGradient id="paint4_linear_626_895" x1="106" y1="0" x2="106" y2="55" gradientUnits="userSpaceOnUse">
<stop stop-color="white"/>
<stop offset="1" stop-color="#D0D0D0"/>
</linearGradient>
<linearGradient id="paint5_linear_626_895" x1="106" y1="0" x2="106" y2="55" gradientUnits="userSpaceOnUse">
<stop stop-color="white"/>
<stop offset="1" stop-color="#D0D0D0"/>
</linearGradient>
<linearGradient id="paint6_linear_626_895" x1="106" y1="0" x2="106" y2="55" gradientUnits="userSpaceOnUse">
<stop stop-color="white"/>
<stop offset="1" stop-color="#D0D0D0"/>
</linearGradient>
</defs>
</svg>
