<svg width="32" height="32" viewBox="0 0 32 32" fill="none" xmlns="http://www.w3.org/2000/svg">
<path d="M21.9798 3.48C22.0481 3.45229 22.1198 3.42397 22.1945 3.39546C20.3419 2.50138 18.2625 2 16.0655 2C8.29734 2 2 8.26801 2 16C2 16.9823 2.10163 17.9409 2.295 18.866L4.67863 17.9462C4.58418 17.7775 4.44641 17.6294 4.27702 17.5302C4.17179 17.4686 4.09132 17.4474 4.05685 17.4402L4.04097 17.4373L4.03848 17.4368L4.05685 17.4371C4.41737 17.4371 4.6779 17.3767 4.83802 17.3226C4.89418 17.3036 4.93564 17.2862 4.96311 17.2737C7.71951 14.8393 9.17352 12.8661 9.8763 11.9123L9.90516 11.8732C10.0183 11.7196 10.147 11.5448 10.2612 11.4005C10.7881 10.7054 11.9169 9.35343 12.5949 8.67241C13.1527 7.94593 14.0199 6.97292 15.0358 6.13125C16.023 5.3133 17.6791 4.16771 19.6058 4.16771H20.5663C20.9527 3.94644 21.4443 3.69746 21.9798 3.48Z" fill="#144787"/>
<path d="M28.5175 22.5168L27.5725 21.0941C27.3243 21.0665 26.9672 21.0443 26.4691 21.0443C26.3122 21.0443 25.9141 21.1035 25.2432 21.3417C24.6109 21.5661 23.8891 21.8937 23.1407 22.2838C22.6533 22.5378 22.1751 22.8075 21.7264 23.0752L20.6025 24.504C19.292 26.1698 15.9583 28.5557 10.9314 29.0381C12.522 29.659 14.2537 30 16.0655 30C21.4697 30 26.162 26.9664 28.5175 22.5168Z" fill="#144787"/>
<path d="M30 14.0812C29.7986 14.413 29.4128 14.6424 29.1879 14.7337C29.2926 14.6149 29.4135 14.3366 29.2402 14.2324C29.1789 14.1955 29.1074 14.2061 28.9944 14.2229L28.9534 14.2289L28.9281 14.2324C27.5749 14.4171 24.8684 15.0133 24.8684 15.9208C26.3675 15.8725 29.3655 16.4274 29.3655 19.0339C29.2516 18.8624 28.8639 18.4193 26.4691 18.4193C24.0743 18.4193 19.5921 21.1665 17.8698 22.4899C17.8038 22.5317 17.7113 22.6535 17.8698 22.8065C18.0284 22.9595 18.3733 22.9231 18.5259 22.8857C17.5782 24.0905 14.3651 26.5 9.09427 26.5C7.90712 26.5 6.90341 26.2515 6.05879 25.8385C4.27523 24.0414 2.97672 21.7664 2.3747 19.2237C2.59843 19.6234 3.09722 20.0621 4.05685 20.0621C5.37915 20.0621 6.24329 19.6162 6.56423 19.3683C9.62714 16.6889 11.2487 14.4883 12.0099 13.4553C12.1514 13.2633 12.2632 13.1116 12.3489 13.0047C12.896 12.2788 14.127 10.8268 14.583 10.4088C15.4736 9.20346 17.7249 6.79271 19.6058 6.79271H20.549C20.025 7.1049 18.977 8.04058 18.977 9.28581C19.5557 8.38883 21.0901 6.93733 21.6288 6.59485C22.2029 6.2299 23.6218 5.5 24.7044 5.5C24.9476 5.5 25.1824 5.51154 25.4041 5.53072C25.6128 5.71527 25.8159 5.90592 26.0132 6.10237C25.939 6.17003 25.8936 6.25394 25.8936 6.3574C26.0064 6.3475 26.1284 6.34384 26.2548 6.34894C28.2388 8.42344 29.5899 11.1031 30 14.0812Z" fill="#144787"/>
</svg>
